<?xml version="1.0" encoding="UTF-8" standalone="no"?>
<svg xmlns:rdf="http://www.w3.org/1999/02/22-rdf-syntax-ns#" xmlns="http://www.w3.org/2000/svg" xml:space="preserve" height="33.33" viewBox="0 0 137.34938 33.330002" width="137.35" version="1.1" xmlns:cc="http://creativecommons.org/ns#" xmlns:dc="http://purl.org/dc/elements/1.1/"><g transform="matrix(1.25 0 0 -1.25 -50.727 504.37)"><g style=""><path d="m46.283 402.95v-8.3953h0.8625l-3.4141-9.0656h-2.8906v-8.4031h28.006v8.4031h-2.9l-3.3969 9.0656h0.85312v8.3953h-17.12zm1.0172-1.0188h7.55 7.5469v-6.3688h-1.3078l4.1594-11.089h2.5984v-6.3703h-11.561v4.275h2.05v-2.1766h7.3328v2.2344h-1.7516l-5.9109 15.234h2.2469v2.1641h-5.4031-5.4141v-2.1641h2.2484l-5.9109-15.234h-1.7469v-2.2344h7.3234v2.1766h2.0578v-4.275h-11.559v6.3703h2.5938l4.1609 11.089h-1.3031v6.3688zm7.5391-2.1203 6-15.553s0.77075-1.8938 2.0187-1.8938h-4.3437c0.06 0 0.23606 0.0382 0.41406 0.33125 0.124 0.205 0.01875 0.52188 0.01875 0.52188l-1.35 3.4687h-2.7578-2.7406l-1.3547-3.4687s-0.10181-0.31688 0.01718-0.52188c0.184-0.293 0.35531-0.33125 0.42031-0.33125h-4.35c1.249 0 2.0188 1.8938 2.0188 1.8938l5.9891 15.553zm0.03906-6.0141-2.1453-5.4594h2.1016 2.1141l-2.0703 5.4594z" fill="#fff"/><path d="m8.3984 1.9492v7.961h1.6286l-5.2028 13.863h-3.2402v7.961h14.449v-5.343h-2.572v2.72h-9.1544v-2.793h2.1836l7.3908-19.043-2.813 0.0004v-2.7051h6.77 6.754v2.7051h-2.813l7.391 19.043h2.189v2.793h-9.164v-2.72h-2.564v5.343h14.451v-7.961h-3.246l-5.201-13.863 1.635 0.0002v-7.961h-9.432-9.4396zm26.809 4.1309l-0.504 1.7148c0.208-0.2075 0.49-0.3508 0.844-0.4433 0.355-0.0888 0.821-0.1348 1.391-0.1348h0.835v7.4742c0 0.52-0.046 0.918-0.14 1.166-0.089 0.254-0.25 0.478-0.473 0.678h2.826c-0.218-0.2-0.37-0.424-0.466-0.678-0.104-0.248-0.141-0.646-0.141-1.166v-7.4742h1.154c0.384 0 0.687 0.046 0.946 0.1348 0.243 0.09 0.447 0.2222 0.599 0.416l0.483-1.6875h-7.354zm28.647 0.041c0.211 0.195 0.365 0.4142 0.46 0.668 0.089 0.2487 0.135 0.6354 0.135 1.1679v4.9c0 0.695 0.06 1.254 0.176 1.674 0.114 0.425 0.304 0.783 0.57 1.106 0.342 0.396 0.745 0.694 1.207 0.894 0.473 0.2 1.007 0.303 1.598 0.303 0.525 0 1.043-0.091 1.553-0.268 0.51-0.185 1.013-0.456 1.515-0.822v0.791h2.135c-0.217-0.205-0.381-0.424-0.471-0.678-0.091-0.248-0.138-0.635-0.138-1.168v-6.732c0-0.5037 0.047-0.888 0.138-1.1543 0.09-0.2662 0.254-0.4866 0.471-0.6816h-2.822c0.217 0.195 0.369 0.4016 0.459 0.6504 0.089 0.2375 0.14 0.6405 0.14 1.1855v5.186c0 0.496-0.05 0.882-0.14 1.173-0.095 0.285-0.244 0.523-0.473 0.7-0.241 0.22-0.526 0.385-0.851 0.488-0.325 0.116-0.681 0.174-1.051 0.174-0.459 0-0.851-0.058-1.176-0.182-0.325-0.125-0.592-0.303-0.777-0.557-0.169-0.203-0.288-0.474-0.354-0.824-0.06-0.344-0.097-0.876-0.097-1.586v-4.572c0-0.5325 0.044-0.9192 0.132-1.1679 0.089-0.2538 0.244-0.473 0.459-0.668h-2.798zm51.656 0.9062c-1.06 0-1.9 0.2184-2.5 0.6622-0.61 0.4425-0.91 1.0541-0.91 1.8066 0 0.5309 0.16 0.9919 0.49 1.3769 0.33 0.384 0.95 0.8 1.84 1.256 0.14 0.076 0.32 0.163 0.57 0.283 0.95 0.474 1.51 0.84 1.68 1.094 0.08 0.11 0.13 0.23 0.18 0.357 0.03 0.123 0.05 0.248 0.05 0.373 0 0.437-0.19 0.795-0.57 1.076-0.38 0.279-0.89 0.413-1.52 0.413-0.5 0-0.99-0.087-1.5-0.266-0.5-0.175-1.02-0.443-1.55-0.814l0.44 1.703c0.47 0.146 0.9 0.266 1.31 0.338 0.4 0.077 0.77 0.119 1.12 0.119 1.09 0 1.99-0.278 2.71-0.842 0.73-0.563 1.09-1.241 1.09-2.041 0-0.353-0.08-0.682-0.23-0.994-0.15-0.305-0.37-0.562-0.64-0.782-0.37-0.291-0.92-0.609-1.66-0.947-0.1-0.059-0.17-0.087-0.23-0.117-0.87-0.415-1.43-0.759-1.68-1.008-0.25-0.2548-0.38-0.5328-0.38-0.8728 0-0.3588 0.16-0.6657 0.48-0.8907 0.32-0.2312 0.74-0.3359 1.27-0.3359 0.41 0 0.81 0.0708 1.19 0.207 0.39 0.1463 0.77 0.3652 1.15 0.6602v-1.5664c-0.43-0.0875-0.83-0.1532-1.2-0.1895-0.36-0.0462-0.69-0.0586-1-0.0586zm8.1 0.1778l-0.46 1.5273c0.2-0.18 0.45-0.3101 0.77-0.3926 0.32-0.0712 0.73-0.1171 1.24-0.1171h0.74v6.6723c0 0.461-0.04 0.814-0.12 1.039-0.08 0.236-0.23 0.43-0.41 0.607h2.52c-0.21-0.177-0.33-0.371-0.42-0.607-0.09-0.225-0.12-0.578-0.12-1.039v-6.6723h1.03c0.34 0 0.72 0.0075 0.93 0.0878 0.22 0.0788 0.38 0.1203 0.59 0.4454l2.16 3.5531v2.58c0 0.468-0.04 0.82-0.12 1.045-0.09 0.236-0.22 0.43-0.42 0.607h2.54c-0.2-0.177-0.33-0.371-0.42-0.607-0.08-0.225-0.13-0.577-0.13-1.045v-2.555l3.16-5.1289h-2.15c0.14 0.1 0.23 0.2082 0.29 0.3144 0.07 0.11 0.1 0.2164 0.1 0.3164 0 0.0938-0.02 0.2082-0.07 0.3457-0.06 0.1288-0.12 0.2772-0.23 0.4434l-1.61 2.645-2.39-4.0649h-7zm-80.63 0.0097c0.193 0.1763 0.333 0.3713 0.415 0.5938 0.081 0.225 0.126 0.579 0.126 1.0527v6.0347c0 0.474-0.045 0.817-0.126 1.047-0.082 0.225-0.222 0.432-0.415 0.61h2.524c-0.2-0.178-0.341-0.385-0.422-0.61-0.081-0.23-0.123-0.573-0.123-1.047v-2.871h4.953v2.871c0 0.474-0.051 0.817-0.125 1.047-0.081 0.225-0.222 0.432-0.422 0.61h2.522c-0.199-0.178-0.34-0.385-0.42-0.61-0.075-0.23-0.119-0.573-0.119-1.047v-6.0347c0-0.4737 0.045-0.8277 0.127-1.0527 0.081-0.2225 0.219-0.4175 0.412-0.5938h-2.522c0.2 0.1763 0.341 0.3713 0.422 0.5938 0.074 0.225 0.125 0.579 0.125 1.0527v2.0817h-4.953v-2.0817c0-0.4737 0.042-0.8277 0.123-1.0527 0.081-0.2225 0.222-0.4175 0.422-0.5938h-2.524zm10.127 0c0.194 0.175 0.335 0.3707 0.416 0.5957 0.089 0.2325 0.125 0.5771 0.125 1.0508v6.0347c0 0.474-0.036 0.817-0.125 1.047-0.081 0.225-0.222 0.432-0.416 0.61h5.579l0.642-1.834c-0.401 0.263-0.805 0.458-1.219 0.592-0.415 0.117-0.859 0.189-1.332 0.189-0.205 0-0.443-0.013-0.732-0.043-0.281-0.029-0.595-0.069-0.947-0.117v-3.344h0.828c0.487 0 0.822 0.019 1 0.07 0.181 0.049 0.324 0.142 0.431 0.266v-1.357h-2.259v-2.6293c0.288-0.0487 0.533-0.1029 0.761-0.1328 0.223-0.0313 0.424-0.0352 0.612-0.0352 0.351 0 0.662 0.0317 0.929 0.1192 0.269 0.075 0.516 0.2067 0.739 0.3867v-1.4688h-5.032zm21.491 0c0.2 0.175 0.334 0.3713 0.414 0.5938 0.088 0.2225 0.129 0.579 0.129 1.0527v6.0347c0 0.474-0.041 0.817-0.129 1.047-0.08 0.225-0.214 0.432-0.414 0.61h2.093c-0.2-0.178-0.337-0.373-0.414-0.592-0.081-0.225-0.119-0.578-0.119-1.065v-5.6694l4.742 6.0684c0.438 0.567 0.8 0.953 1.088 1.15 0.289 0.208 0.595 0.316 0.916 0.326v-7.9097c0-0.4737 0.038-0.8302 0.119-1.0527 0.089-0.2225 0.222-0.4188 0.422-0.5938h-2.08c0.194 0.175 0.334 0.3713 0.416 0.5938 0.088 0.2225 0.125 0.579 0.125 1.0527v5.3657l-5.445-7.0122h-1.863zm10.349 0c0.2 0.1763 0.333 0.3713 0.42 0.5938 0.083 0.2225 0.119 0.579 0.119 1.0527v6.0347c0 0.474-0.036 0.817-0.119 1.047-0.087 0.224-0.22 0.432-0.42 0.61h2.522c-0.2-0.178-0.333-0.386-0.418-0.61-0.085-0.23-0.121-0.573-0.121-1.047v-6.0347c0-0.4737 0.036-0.8302 0.121-1.0527s0.218-0.4175 0.418-0.5938h-2.522zm3.344 0c0.169 0.255 0.325 0.5196 0.451 0.8008 0.14 0.2838 0.278 0.6495 0.428 1.0957l1.865 5.4417c0.234 0.697 0.488 1.211 0.768 1.556 0.275 0.354 0.607 0.575 1.004 0.682l3.724-9.5762h-2.107c0.17 0.2075 0.287 0.3842 0.353 0.5254 0.072 0.145 0.112 0.2735 0.112 0.3985 0 0.1412-0.021 0.3078-0.059 0.4765-0.036 0.1675-0.09 0.3455-0.148 0.5118l-2.123 5.566-2.235-6.6793c-0.036-0.12-0.064-0.2372-0.08-0.3672-0.03-0.1363-0.045-0.2754-0.053-0.4317h-1.9zm8.883 0c0.192 0.175 0.335 0.3707 0.416 0.5957 0.081 0.2325 0.125 0.5771 0.125 1.0508v6.0347c0 0.474-0.044 0.817-0.125 1.047-0.081 0.225-0.224 0.432-0.416 0.61h5.576l0.64-1.834c-0.39 0.263-0.81 0.458-1.22 0.592-0.42 0.117-0.86 0.189-1.33 0.189-0.2 0-0.45-0.013-0.73-0.043-0.28-0.029-0.597-0.069-0.946-0.117v-3.344h0.83c0.486 0 0.816 0.019 0.996 0.07 0.18 0.049 0.33 0.142 0.43 0.266v-1.357h-2.256v-2.6293c0.281-0.0487 0.535-0.1029 0.764-0.1328 0.232-0.0313 0.422-0.0352 0.602-0.0352 0.36 0 0.66 0.0317 0.93 0.1192 0.27 0.075 0.52 0.2067 0.75 0.3867v-1.4688h-5.036zm6.856 0c0.19 0.1763 0.33 0.3713 0.42 0.5938 0.08 0.2275 0.12 0.579 0.12 1.0527v6.0347c0 0.474-0.04 0.817-0.12 1.047-0.09 0.225-0.23 0.432-0.42 0.61h2.52c-0.2-0.178-0.34-0.385-0.42-0.61-0.08-0.23-0.11-0.573-0.11-1.047v-6.6577c0.2-0.0438 0.39-0.0767 0.56-0.0879 0.17-0.025 0.31-0.0293 0.43-0.0293 0.52 0 0.95 0.1451 1.27 0.4414 0.32 0.2975 0.48 0.6818 0.48 1.1543 0 0.5042-0.18 0.9192-0.55 1.2422-0.39 0.31-0.98 0.564-1.8 0.754l2.73 3.834c0.23 0.309 0.5 0.563 0.82 0.74 0.32 0.176 0.64 0.266 0.98 0.266h0.11l0.71-0.074c-0.25-0.22-0.49-0.449-0.68-0.667-0.2-0.216-0.37-0.414-0.51-0.609l-2.39-3.238c0.71-0.295 1.23-0.638 1.56-1.022 0.34-0.397 0.51-0.84 0.51-1.3629 0-0.6913-0.28-1.2717-0.84-1.7129-0.56-0.4275-1.29-0.6524-2.2-0.6524h-3.18zm15.66 0c0.19 0.175 0.34 0.3713 0.42 0.5938s0.12 0.579 0.12 1.0527v6.0347c0 0.474-0.04 0.817-0.12 1.047-0.08 0.225-0.23 0.432-0.42 0.61h2.52c-0.2-0.178-0.33-0.385-0.42-0.61-0.09-0.23-0.12-0.573-0.12-1.047v-6.0347c0-0.4737 0.03-0.8302 0.12-1.0527s0.22-0.4188 0.42-0.5938h-2.52zm-49.508 12.355v0.063l-3.907 9.879c-0.337 0.871-0.59 1.746-1.474 2.183v0.049h2.791v-0.049c-0.725-0.276-0.628-0.72-0.303-1.58l0.793-2.17h3.852l0.822 2.17c0.404 1.073 0.532 1.244-0.219 1.58v0.049h3.119v-0.049c-0.87-0.437-1.147-1.312-1.492-2.183l-3.154-7.916-0.828-2.026zm-19.559 2.625c-0.836 0-1.613 0.175-2.32 0.534-0.707 0.348-1.304 0.857-1.785 1.517-0.303 0.424-0.541 0.888-0.704 1.377-0.158 0.499-0.244 1.002-0.244 1.529 0 0.674 0.13 1.309 0.385 1.916 0.26 0.603 0.614 1.138 1.088 1.58 0.444 0.434 0.975 0.757 1.598 0.977 0.621 0.226 1.273 0.344 1.982 0.344 0.666 0 1.295-0.113 1.879-0.334 0.585-0.228 1.112-0.553 1.572-0.987 0.514-0.476 0.905-1.031 1.194-1.656 0.273-0.622 0.423-1.255 0.423-1.906 0-0.708-0.128-1.372-0.386-1.982-0.244-0.61-0.607-1.141-1.086-1.586-0.444-0.427-0.977-0.75-1.598-0.983-0.619-0.229-1.288-0.34-1.998-0.34zm50.827 0c-0.84 0-1.613 0.175-2.323 0.534-0.699 0.348-1.301 0.857-1.777 1.517-0.307 0.424-0.545 0.888-0.707 1.377-0.155 0.499-0.239 1.002-0.239 1.529 0 0.674 0.128 1.309 0.379 1.916 0.254 0.603 0.622 1.138 1.082 1.58 0.448 0.434 0.979 0.757 1.6 0.977 0.625 0.226 1.285 0.344 1.985 0.344 0.67 0 1.3-0.113 1.88-0.334 0.59-0.228 1.12-0.553 1.57-0.987 0.52-0.476 0.92-1.031 1.19-1.656 0.29-0.622 0.43-1.255 0.43-1.906 0-0.708-0.13-1.372-0.38-1.982s-0.61-1.141-1.09-1.586c-0.45-0.427-0.98-0.75-1.6-0.983-0.62-0.229-1.28-0.34-2-0.34zm-44.991 0.217c0.194 0.178 0.325 0.376 0.414 0.606 0.081 0.225 0.127 0.572 0.127 1.041v6.037c0 0.471-0.046 0.819-0.127 1.047-0.089 0.217-0.22 0.426-0.414 0.603h2.516c-0.193-0.177-0.333-0.386-0.416-0.603-0.088-0.228-0.123-0.576-0.123-1.047v-2.908h0.841c0.489 0 0.821 0.029 0.998 0.078 0.185 0.051 0.328 0.149 0.438 0.265v-1.355h-2.264v-2.625c0.28-0.059 0.533-0.101 0.762-0.131 0.23-0.031 0.426-0.049 0.613-0.049 0.356 0 0.66 0.037 0.934 0.121 0.267 0.08 0.518 0.209 0.74 0.399v-1.479h-5.039zm19.869 0c0.193 0.179 0.333 0.372 0.414 0.6 0.083 0.231 0.127 0.567 0.127 1.041v6.052c0 0.462-0.044 0.811-0.127 1.038-0.081 0.217-0.221 0.424-0.414 0.603h2.524c-0.2-0.179-0.341-0.386-0.422-0.603-0.082-0.227-0.125-0.576-0.125-1.038v-6.669c0.213-0.034 0.403-0.07 0.576-0.09 0.155-0.015 0.304-0.032 0.422-0.032 0.525 0 0.946 0.149 1.271 0.444 0.325 0.296 0.488 0.678 0.488 1.152 0 0.503-0.19 0.917-0.568 1.242-0.37 0.32-0.971 0.571-1.785 0.76l2.738 3.828c0.218 0.315 0.488 0.562 0.807 0.74 0.317 0.177 0.643 0.266 0.976 0.266h0.12l0.709-0.07c-0.259-0.225-0.481-0.445-0.68-0.67-0.2-0.208-0.37-0.414-0.51-0.602l-2.39-3.24c0.711-0.296 1.22-0.638 1.568-1.021 0.33-0.395 0.496-0.847 0.496-1.358 0-0.702-0.282-1.276-0.836-1.709-0.559-0.444-1.287-0.664-2.197-0.664h-3.182zm8.516 0c0.198 0.179 0.34 0.37 0.42 0.598 0.075 0.232 0.127 0.569 0.127 1.043v6.043c0 0.471-0.052 0.819-0.127 1.047-0.08 0.217-0.222 0.426-0.42 0.603h2.521c-0.2-0.177-0.34-0.386-0.42-0.603-0.075-0.228-0.119-0.576-0.119-1.047v-6.043c0-0.474 0.044-0.811 0.119-1.043 0.08-0.228 0.22-0.419 0.42-0.598h-2.521zm4.726 0l-0.629 1.561c0.393-0.22 0.775-0.376 1.155-0.481 0.373-0.102 0.768-0.148 1.172-0.148 0.277 0 0.581 0.015 0.906 0.056 0.321 0.05 0.673 0.121 1.033 0.209l-4.895 8.137h7.17l0.67-1.746c-0.436 0.236-0.908 0.415-1.435 0.535-0.523 0.121-1.101 0.184-1.744 0.184-0.267 0-0.593-0.016-0.955-0.037-0.377-0.033-0.828-0.072-1.372-0.143l4.893-8.127h-5.969zm17.7 0c0.19 0.179 0.32 0.37 0.41 0.598 0.08 0.232 0.12 0.569 0.12 1.043v6.043c0 0.471-0.04 0.819-0.12 1.047-0.09 0.217-0.22 0.426-0.41 0.603h2.08c-0.2-0.177-0.33-0.367-0.41-0.594-0.08-0.212-0.12-0.561-0.12-1.056v-5.67l4.75 6.078c0.43 0.561 0.8 0.946 1.08 1.141 0.29 0.207 0.6 0.308 0.91 0.31v-7.902c0-0.474 0.05-0.811 0.13-1.043 0.08-0.228 0.22-0.419 0.42-0.598h-2.08c0.2 0.179 0.33 0.37 0.42 0.598 0.08 0.232 0.12 0.569 0.12 1.043v5.373l-5.44-7.014h-1.86zm12.45 0c0.11 0.09 0.2 0.18 0.25 0.27 0.05 0.087 0.07 0.187 0.07 0.295 0 0.1-0.01 0.206-0.04 0.324-0.03 0.12-0.06 0.242-0.12 0.367l-2.59 6.662c-0.14 0.381-0.29 0.678-0.43 0.9-0.15 0.22-0.31 0.389-0.49 0.516h2.17c-0.14-0.13-0.24-0.248-0.31-0.363-0.06-0.108-0.09-0.198-0.09-0.293 0-0.108 0.01-0.214 0.03-0.305 0.02-0.105 0.05-0.205 0.09-0.295l0.88-2.236h3.42l0.79 2.16c0.01 0.019 0.02 0.055 0.04 0.107 0.1 0.27 0.16 0.479 0.16 0.622 0 0.116-0.13 0.309-0.37 0.57l-0.03 0.033h2.64c-0.25-0.207-0.45-0.426-0.61-0.648s-0.31-0.508-0.43-0.862l-2.93-7.824h-2.1zm-49.716 0.506l1.488 3.887h-3.019l1.531-3.887zm-19.338 0.266c0.984 0 1.798 0.383 2.457 1.134 0.666 0.74 0.992 1.689 0.992 2.836 0 1.118-0.335 2.021-1 2.746-0.659 0.71-1.507 1.065-2.521 1.065-0.988 0-1.806-0.375-2.465-1.127-0.658-0.764-0.99-1.711-0.99-2.856 0-1.106 0.333-2.013 0.998-2.724 0.658-0.715 1.509-1.074 2.529-1.074zm50.824 0c0.99 0 1.81 0.383 2.46 1.134 0.66 0.74 0.99 1.689 0.99 2.836 0 1.118-0.34 2.021-1 2.746-0.66 0.71-1.5 1.065-2.52 1.065-0.99 0-1.807-0.375-2.471-1.127-0.651-0.764-0.982-1.711-0.982-2.856 0-1.106 0.332-2.013 0.998-2.724 0.665-0.715 1.515-1.074 2.525-1.074zm19.42 0.533l1.3 3.599h-2.71l1.41-3.599z" transform="matrix(.8 0 0 -.8 40.581 403.49)" fill="#0c234b"/><path d="m54.878 393.8 2.071-5.459h-2.115-2.101l2.145 5.459zm-2.779-7.111h2.741 2.758l1.349-3.469s0.106-0.316-0.018-0.522c-0.177-0.293-0.355-0.332-0.414-0.332h4.343c-1.248 0-2.018 1.895-2.018 1.895l-6 15.553-5.989-15.553s-0.769-1.895-2.018-1.895h4.349c-0.065 0-0.236 0.039-0.42 0.332-0.119 0.206-0.017 0.522-0.017 0.522l1.354 3.469z" fill="#ab0520"/></g></g></svg>
