<?xml version="1.0" encoding="iso-8859-1"?>
<!-- Generator: Adobe Illustrator 13.0.0, SVG Export Plug-In . SVG Version: 6.00 Build 14948)  -->
<!DOCTYPE svg PUBLIC "-//W3C//DTD SVG 1.1//EN" "http://www.w3.org/Graphics/SVG/1.1/DTD/svg11.dtd">
<svg version="1.1" id="Layer_1" xmlns="http://www.w3.org/2000/svg" xmlns:xlink="http://www.w3.org/1999/xlink" x="0px" y="0px"
	 width="500px" height="100px" viewBox="0 0 500 100" style="enable-background:new 0 0 500 100;" xml:space="preserve">
<rect x="12.703" y="12.042" style="fill:#FFFFFF;" width="159.353" height="76.935"/>
<rect x="12.699" y="12.042" style="fill:#FF0000;" width="37.784" height="76.935"/>
<rect x="134.278" y="12.042" style="fill:#FF0000;" width="37.778" height="76.935"/>
<path style="fill:#FF0000;" d="M87.131,28.034l5.407-10.984l5.352,10.583c0.67,1.114,1.212,1.028,2.279,0.487l4.601-2.274
	l-2.993,14.779c-0.625,2.906,1.028,3.749,2.813,1.782l6.563-7.001l1.742,3.966c0.583,1.204,1.473,1.023,2.64,0.806l6.781-1.426
	l-2.278,8.568l-0.046,0.18c-0.264,1.119-0.799,2.052,0.453,2.594l2.407,1.203l-13.976,11.834c-1.426,1.467-0.936,1.916-0.401,3.568
	l1.294,3.968l-13.039-2.36c-1.6-0.399-2.719-0.399-2.767,0.895l0.538,14.951h-3.932l0.542-14.91c0-1.473-1.12-1.426-3.756-0.885
	l-12.053,2.312l1.562-3.968c0.535-1.52,0.67-2.551-0.537-3.568L62.04,51.475l2.637-1.605c0.758-0.581,0.806-1.208,0.402-2.504
	l-2.68-8.707l6.875,1.472c1.922,0.446,2.457,0,2.949-1.064l1.921-3.935l6.785,7.683c1.207,1.42,2.904,0.496,2.366-1.561
	L80.038,25.22l5.039,2.9c0.803,0.492,1.653,0.627,2.147-0.31"/>
<path d="M266.438,44.569h-3.547l-0.843-3.723c-2.976,3.37-5.678,4.479-9.534,4.479c-9.489,0-15.167-7.537-15.167-16.587
	c0-9.044,5.677-16.583,15.167-16.583c6.916,0,12.728,3.681,13.567,10.818h-5.409c-0.531-4.17-4.168-6.299-8.158-6.299
	c-6.788,0-9.623,5.987-9.623,12.063c0,6.077,2.835,12.067,9.623,12.067c5.678,0.082,8.781-3.333,8.869-8.696h-8.426V27.9h13.48
	V44.569"/>
<path d="M282.268,45.191c7.363,0,11.575-5.057,11.575-12.108c0-7.005-4.212-12.059-11.575-12.059s-11.572,5.053-11.572,12.059
	C270.695,40.134,274.904,45.191,282.268,45.191 M282.268,41.202c-4.521,0-6.519-4.127-6.519-8.119c0-3.942,1.996-8.066,6.519-8.066
	c4.521,0,6.522,4.124,6.522,8.066C288.79,37.075,286.789,41.202,282.268,41.202z"/>
<polyline points="295.793,21.643 301.294,21.643 307.101,39.246 307.189,39.246 312.778,21.643 318.014,21.643 309.809,44.569 
	304.132,44.569 295.793,21.643 "/>
<path d="M341.871,34.414c0.842-6.871-3.593-13.389-10.821-13.389c-6.834,0-11.086,5.585-11.086,12.108
	c0,7.046,4.037,12.059,11.219,12.059c5.012,0,9.269-2.792,10.374-7.805h-4.786c-0.892,2.526-2.662,3.816-5.588,3.816
	c-4.211,0-6.164-3.197-6.164-6.789H341.871 M325.019,31.089c0.133-3.42,2.529-6.072,6.031-6.072c3.412,0,5.59,2.883,5.765,6.072
	H325.019z"/>
<path d="M345.73,21.643h4.743v4.435h0.089c0.575-2.441,3.593-5.053,6.694-5.053c1.151,0,1.469,0.085,1.903,0.131v4.881
	c-0.705-0.095-1.462-0.226-2.168-0.226c-3.461,0-6.21,2.792-6.21,7.851V44.57h-5.054V21.643"/>
<path d="M361.339,21.643h4.789v3.374l0.088,0.086c1.506-2.526,4.12-4.079,7.141-4.079c4.97,0,8.113,2.658,8.113,7.799v15.745h-5.055
	V30.154c-0.088-3.586-1.504-5.138-4.479-5.138c-3.371,0-5.544,2.652-5.544,6.027v13.525h-5.053V21.643"/>
<path d="M386.791,21.643h4.791v3.192h0.133c1.507-2.259,3.415-3.811,7.051-3.811c2.796,0,5.409,1.196,6.429,3.811
	c1.687-2.354,3.858-3.811,7.184-3.811c4.838,0,7.675,2.129,7.675,7.714v15.831H415V31.18c0-3.638-0.223-6.164-4.174-6.164
	c-3.413,0-4.878,2.26-4.878,6.117v13.436h-5.053V29.848c0-3.149-0.974-4.832-4.037-4.832c-2.613,0-5.013,2.129-5.013,5.937v13.616
	h-5.055V21.643"/>
<path d="M446.17,34.414c0.846-6.871-3.589-13.389-10.816-13.389c-6.829,0-11.088,5.585-11.088,12.108
	c0,7.046,4.037,12.059,11.221,12.059c5.012,0,9.266-2.792,10.375-7.805h-4.786c-0.892,2.526-2.663,3.816-5.589,3.816
	c-4.214,0-6.169-3.197-6.169-6.789H446.17 M429.316,31.089c0.136-3.42,2.531-6.072,6.035-6.072c3.412,0,5.591,2.883,5.767,6.072
	H429.316z"/>
<path d="M450.03,21.643h4.788v3.374l0.087,0.086c1.511-2.526,4.126-4.079,7.142-4.079c4.971,0,8.118,2.658,8.118,7.799v15.745
	h-5.056V30.154c-0.086-3.586-1.511-5.138-4.481-5.138c-3.371,0-5.543,2.652-5.543,6.027v13.525h-5.055V21.643"/>
<path d="M473.181,21.643h3.81v-6.876h5.055v6.876h4.572v3.77h-4.572v12.239c0,2.086,0.181,3.153,2.442,3.153
	c0.709,0,1.421,0,2.13-0.18v3.903c-1.108,0.085-2.173,0.261-3.284,0.261c-5.278,0-6.254-2.034-6.343-5.85V25.413h-3.81V21.643"/>
<path d="M248.609,89.539c7.366,0,11.573-5.061,11.573-12.107c0-7.01-4.207-12.063-11.573-12.063
	c-7.362,0-11.577,5.055-11.577,12.063C237.033,84.479,241.248,89.539,248.609,89.539 M248.609,85.547
	c-4.523,0-6.516-4.123-6.516-8.115c0-3.945,1.993-8.068,6.516-8.068s6.52,4.123,6.52,8.068
	C255.129,81.424,253.133,85.547,248.609,85.547z"/>
<path d="M262.136,65.986h3.771v-1.899c0-5.856,3.06-6.833,6.343-6.833c1.595,0,2.75,0.086,3.547,0.311v3.947
	c-0.664-0.181-1.328-0.267-2.351-0.267c-1.379,0-2.484,0.483-2.484,2.391v2.353h4.3v3.771h-4.3v19.16h-5.055v-19.16h-3.771V65.986"
	/>
<path d="M312.778,67.318c-0.934-3.637-3.285-6.295-7.896-6.295c-6.782,0-9.622,5.987-9.622,12.059c0,6.082,2.84,12.068,9.622,12.068
	c4.926,0,7.627-3.68,8.072-8.297h5.414c-0.443,7.584-5.813,12.817-13.486,12.817c-9.485,0-15.164-7.539-15.164-16.59
	c0-9.048,5.679-16.586,15.164-16.586c7.144,0.045,12.774,3.991,13.441,10.821h-5.545"/>
<path d="M341.913,72.02c0-4.832-4.702-6.651-9.176-6.651c-5.063,0-10.072,1.729-10.425,7.63h5.055
	c0.221-2.484,2.218-3.635,5.058-3.635c2.037,0,4.745,0.479,4.745,3.103c0,2.97-3.239,2.572-6.874,3.234
	c-4.259,0.489-8.828,1.417-8.828,7.141c0,4.479,3.729,6.699,7.851,6.699c2.706,0,5.944-0.842,7.938-2.796
	c0.398,2.085,1.863,2.796,3.904,2.796c0.842,0,2.438-0.312,3.191-0.577v-3.5c-0.529,0.085-0.932,0.085-1.243,0.085
	c-0.932,0-1.195-0.491-1.195-1.729V72.02 M336.856,81.199c0,3.193-3.458,4.348-5.675,4.348c-1.773,0-4.654-0.662-4.654-2.927
	c0-2.661,1.948-3.456,4.124-3.815c2.218-0.396,4.651-0.354,6.204-1.373L336.856,81.199L336.856,81.199z"/>
<path d="M347.369,65.986h4.785v3.375l0.092,0.086c1.508-2.526,4.126-4.08,7.138-4.08c4.965,0,8.117,2.658,8.117,7.807v15.744h-5.055
	V74.504c-0.089-3.591-1.509-5.143-4.48-5.143c-3.366,0-5.544,2.656-5.544,6.024v13.531h-5.053V65.986"/>
<path d="M392.027,72.02c0-4.832-4.704-6.651-9.187-6.651c-5.052,0-10.061,1.729-10.416,7.63h5.052
	c0.225-2.484,2.218-3.635,5.056-3.635c2.04,0,4.748,0.479,4.748,3.103c0,2.97-3.237,2.572-6.873,3.234
	c-4.258,0.489-8.828,1.417-8.828,7.141c0,4.479,3.724,6.699,7.851,6.699c2.707,0,5.943-0.842,7.938-2.796
	c0.396,2.085,1.863,2.796,3.905,2.796c0.838,0,2.438-0.312,3.189-0.577v-3.5c-0.536,0.085-0.933,0.085-1.242,0.085
	c-0.934,0-1.193-0.491-1.193-1.729V72.02 M386.966,81.199c0,3.193-3.455,4.348-5.672,4.348c-1.771,0-4.653-0.662-4.653-2.927
	c0-2.661,1.946-3.456,4.118-3.815c2.217-0.396,4.656-0.354,6.207-1.373V81.199z"/>
<path d="M419.078,57.254h-5.06v11.707h-0.089c-1.554-2.527-4.744-3.594-7.626-3.594c-5.012,0-9.933,3.638-9.933,11.93
	c0,6.875,3.5,12.242,10.73,12.242c2.883,0,5.766-1.107,7.096-3.73h0.088v3.109h4.792L419.078,57.254 M401.426,77.691
	c0-4.123,1.688-8.33,6.432-8.33c3.903,0,6.342,3.019,6.342,8.07c0,3.991-1.907,8.114-6.431,8.114
	C403.376,85.547,401.426,81.646,401.426,77.691z"/>
<path d="M443.777,72.02c0-4.832-4.703-6.651-9.18-6.651c-5.058,0-10.067,1.729-10.421,7.63h5.054
	c0.222-2.484,2.217-3.635,5.053-3.635c2.043,0,4.749,0.479,4.749,3.103c0,2.97-3.238,2.572-6.872,3.234
	c-4.261,0.489-8.828,1.417-8.828,7.141c0,4.479,3.728,6.699,7.851,6.699c2.704,0,5.943-0.842,7.938-2.796
	c0.396,2.085,1.86,2.796,3.904,2.796c0.841,0,2.438-0.312,3.191-0.577v-3.5c-0.532,0.085-0.935,0.085-1.241,0.085
	c-0.931,0-1.197-0.491-1.197-1.729L443.777,72.02 M438.724,81.199c0,3.193-3.461,4.348-5.677,4.348
	c-1.774,0-4.658-0.662-4.658-2.927c0-2.661,1.951-3.456,4.12-3.815c2.22-0.396,4.663-0.354,6.215-1.373V81.199z"/>
</svg>
