<?xml version="1.0" encoding="utf-8"?>
<svg xmlns="http://www.w3.org/2000/svg" width="300px" height="86.02px">
<linearGradient id="SG" gradientUnits="userSpaceOnUse" x1="33.275" y1="85.0826" x2="33.275" y2="1.4952">
	<stop offset="0.5734" style="stop-color:#E87722"/>
	<stop offset="0.5739" style="stop-color:#000000"/>
	<stop offset="1" style="stop-color:#000000"/>
</linearGradient>
<path fill="url(#SG)" stroke="#FFFFFF" stroke-width="1.374" d="M33.26,85.08C17.55,73.71,6.33,56.25,2.33,37.3c-1.63-7.76-2.04-15.59-1.28-23.48c2.82,0.89,5.59,1.41,8.74,1.41c9.77,0,18.7-5.23,23.49-13.73c4.7,8.41,13.61,13.73,23.47,13.73c3.22,0,5.93-0.53,8.75-1.43c0.75,7.92,0.31,15.7-1.31,23.49C60.15,56.2,48.99,73.75,33.26,85.08z"/>
<path d="M55.19,59.36c-2.06,3.66-4.39,7.13-6.97,10.39L33.25,55.19L18.33,69.71c-2.6-3.29-4.94-6.77-6.98-10.41l21.9-21.03L55.19,59.36z M298.89,16.17c0-0.12-0.02-0.33-0.09-0.42h-0.69c-1.5,0-2.45,0.06-5.16,0.06c-0.93,0-2.31-0.06-2.64-0.06h-0.78c-0.09,0.06-0.12,0.39-0.12,0.51c0,0.15,0.03,0.39,0.15,0.51c0.48,0.15,2.31,0.35,3.09,0.87c0.54,0.63,0.78,1.89,0.87,3.06c0.03,0.45,0.06,0.9,0.06,2.12v6.26c0,0.72-0.03,0.96-0.06,1.29c-0.51-0.57-1.23-1.65-2.43-3l-10.01-11.09c-0.09-0.12-0.27-0.27-0.45-0.39c-0.24,0-0.66-0.03-0.9-0.03c-1.92,0-5.39-0.09-5.9-0.09c-0.06,0.12-0.12,0.3-0.12,0.42c0,0.06,0.06,0.48,0.09,0.57c0.45,0.12,1.44,0.27,2.25,1.14c0.48,0.54,1.32,1.29,1.58,1.89c0.09,0.21,0.12,0.54,0.12,0.96c0,1.56-0.09,3.75-0.09,5.84v6.09c0,0.99-0.09,1.76-0.18,2.28c-0.62,0.66-1.59,1.14-3.14,1.53c-0.06,0.15-0.12,0.39-0.12,0.54c0,0.09,0.02,0.39,0.08,0.42h0.57c0.6,0,1.98-0.09,2.87-0.09c1.32,0,2.22,0.09,3.45,0.09h1.79c0.12-0.03,0.15-0.39,0.15-0.51s-0.04-0.36-0.09-0.48c-1.04-0.27-2.58-0.51-3.6-1.86c-0.21-0.45-0.39-2.67-0.39-3.72c0-0.96-0.03-2.27-0.03-4.04c0-2.37,0.03-4.43,0.06-5.48c0.18,0.21,0.39,0.48,0.54,0.65l13.84,15.56c0.15,0.15,0.69,0.18,0.84,0.18s0.24,0,0.36-0.06c0.06-0.15,0.27-0.63,0.27-1.35c0-0.87-0.03-1.77-0.03-2.22V21.63c0-3.75,1.77-4.79,3.83-4.88C298.87,16.59,298.89,16.33,298.89,16.17z M264.55,25.7c0,4.52-1.26,8.51-2.97,9.92c-0.87,0.72-1.95,1.08-3.18,1.08c-1.67,0-3.14-0.66-3.98-2.01c-1.14-1.74-1.77-4.97-1.77-7.79c0-4.17,1.07-7.43,3-9.02c1.02-0.84,2.07-1.17,3.12-1.17c1.62,0,3.18,0.78,4.08,2.07C263.98,20.34,264.55,22.59,264.55,25.7z M269.97,26.27c0-4.19-1.86-7.4-5.33-9.32c-1.86-1.02-3.71-1.53-5.69-1.53c-4.37,0-8.33,2.61-10.1,5.58c-1.14,1.86-1.73,3.89-1.73,6.05c0,3.45,1.68,6.83,4.28,8.78c1.98,1.44,4.22,2.15,6.84,2.15c1.59,0,3.08-0.3,4.55-0.87c1.65-0.63,3.06-1.62,4.17-2.85C268.9,32.15,269.97,29.42,269.97,26.27z M243.63,22.5v-6.12c0-0.45-0.18-0.57-0.63-0.57c-0.9,0-5.63,0.12-10.43,0.12c-3.72,0-6.81-0.06-8.48-0.06h-2.22c-0.38,0-0.51,0.09-0.51,0.51v5.72c0.12,0.09,0.33,0.12,0.48,0.12c0.12,0,0.54,0,0.66-0.06c1.35-2.72,2.61-4.19,4.2-5c0.9-0.09,2.66-0.12,3.14-0.12c0.03,0.33,0.06,1.38,0.09,2.64c0.03,2.16,0.03,3.08,0.03,8.18c0,4.41-0.03,6.38-0.09,6.86c-0.12,0.84,0.03,1.47-3.56,1.62c-0.09,0.21-0.09,0.45-0.09,0.69c0,0.12,0,0.36,0.03,0.48h1.17c1.11,0,3.72-0.12,4.8-0.12c0.87,0,3.66,0.09,5.48,0.09h0.84c0.09-0.15,0.09-0.48,0.09-0.63c0-0.18-0.03-0.39-0.12-0.54c-0.33,0-2.25,0.06-3.09-0.57c-0.09-0.33-0.27-1.2-0.27-2.25c-0.03-3.23-0.06-4.46-0.06-6.62c0-2.79,0.03-4.68,0.03-9.86c0.42,0,1.38-0.03,2.28,0c1.86,0.51,2.76,1.2,3.57,2.28c0.51,0.69,1.05,1.86,1.59,3.27c0.18,0.06,0.33,0.06,0.51,0.06C243.19,22.62,243.58,22.56,243.63,22.5z M217.81,32.24c0-0.42,0-0.6-0.03-0.87c-0.15-0.09-0.21-0.09-0.45-0.09c-0.21,0-0.45,0-0.66,0.06c-1.01,2.31-2.48,4.11-3.29,4.58c-0.45,0.27-1.14,0.33-2.25,0.33h-2.45c-0.96,0-1.71-0.09-1.98-0.15c-0.45-0.09-0.93-0.81-1.14-1.29c-0.21-0.51-0.33-0.51-0.33-1.89v-6.56h1.11c0.3,0,1.02,0.06,1.83,0.42c0.75,0.33,1.05,0.78,1.35,1.26c0.27,0.42,0.45,2.07,0.51,2.49c0.15,0.09,0.54,0.12,0.78,0.12s0.39-0.03,0.6-0.15c0-0.81-0.18-3-0.18-4.2c0-1.5,0.21-3.56,0.3-4.64c-0.12-0.06-0.3-0.12-0.6-0.12c-0.21,0-0.6,0-0.78,0.09c-0.09,0.42-0.42,1.68-0.48,1.77c-0.45,0.75-1.23,1.32-2.03,1.56c-0.54,0.15-1.32,0.24-1.74,0.24h-0.63v-2.78c0-2.88,0.06-3.81,0.09-4.35c0.03-0.35,0.09-0.75,0.12-1.01c0.27-0.03,0.42-0.06,1.8-0.06c1.73,0,2.55,0.03,2.81,0.03c0.84,0.06,1.47,0.24,1.92,0.6c1.14,0.87,2.01,2.25,2.87,3.72c0.18,0.06,0.48,0.06,0.63,0.06c0.18,0,0.21-0.06,0.45-0.18c0-1.83-0.12-4.2-0.18-4.94c-0.03-0.3-0.09-0.39-0.69-0.39c-0.24,0-1.38-0.06-2.58-0.06c-1.71,0-2.4,0.03-5.01,0.03c-1.41,0-4.31,0.03-5.54,0.03c-1.79,0-3.33-0.06-4.1-0.06h-1.02c-0.09,0.12-0.15,0.36-0.15,0.48c0,0.15,0.06,0.48,0.15,0.6c0.36,0.12,1.77,0.09,2.19,0.33c0.42,0.36,0.81,0.51,1.08,1.95c0.06,0.63,0.09,2.37,0.09,3.75v6.17c0,1.26-0.03,3.09-0.06,3.83c-0.06,1.17-0.48,2.58-0.65,2.85c-0.27,0.21-1.5,0.39-2.7,0.45c-0.09,0.18-0.15,0.48-0.15,0.66s0.06,0.39,0.15,0.54h0.99c0.96,0,4.5-0.09,5.31-0.09c0.75,0,2.19,0.06,3.92,0.06c0.96,0,3.78,0.18,9.83,0.18c0.24,0,0.51,0.03,0.81-0.06c0.09-0.15,0.09-0.21,0.12-0.48C217.81,36.43,217.81,34.66,217.81,32.24z M192.46,33.28c-0.09-0.27-0.33-0.72-1.02-0.72c-0.06,0-0.15,0.03-0.21,0.03c-1.8,2.55-3.78,3.5-6.02,3.5c-3.12,0-5.33-2.1-6.05-3.96c-0.39-0.99-0.93-3.15-0.93-5.46c0-2.19,0.33-3.96,0.9-5.24c1.32-3.47,3.24-4.55,5.57-4.55c1.95,0,3.56,1.11,4.79,2.69c0.51,0.69,1.05,2.04,1.53,3.63c0.12,0.02,0.39,0.09,0.66,0.09c0.18,0,0.6-0.15,0.72-0.27c-0.03-0.33-0.33-2.64-0.33-3.35c0-0.9,0.24-2.37,0.24-2.94c-0.18-0.18-0.78-0.3-1.17-0.33c-0.45,0.33-0.6,0.71-1.02,1.23c-1.68-1.2-3.24-2.13-6.65-2.13c-3.15,0-5.64,1.08-7.52,2.97c-2.07,2.03-3.21,4.85-3.21,8.45c0,3.83,1.62,6.98,4.23,8.96c1.65,1.2,4.08,2.01,6.98,2.01c3.66,0,6.32-1.38,7.67-3.2C192.16,33.97,192.22,33.79,192.46,33.28z M169.13,16.17c0-0.12-0.03-0.33-0.09-0.42h-0.69c-1.5,0-2.45,0.06-5.15,0.06c-0.93,0-2.31-0.06-2.64-0.06h-0.78c-0.09,0.06-0.12,0.39-0.12,0.51c0,0.15,0.03,0.39,0.15,0.51c0.48,0.15,2.3,0.35,3.09,0.87c0.54,0.63,0.78,1.89,0.87,3.06c0.03,0.45,0.06,0.9,0.06,2.12v6.26c0,0.72-0.03,0.96-0.06,1.29c-0.51-0.57-1.23-1.65-2.43-3l-10-11.09c-0.09-0.12-0.27-0.27-0.45-0.39c-0.24,0-0.66-0.03-0.9-0.03c-1.92,0-5.4-0.09-5.9-0.09c-0.06,0.12-0.12,0.3-0.12,0.42c0,0.06,0.06,0.48,0.09,0.57c0.45,0.12,1.44,0.27,2.25,1.14c0.48,0.54,1.32,1.29,1.59,1.89c0.09,0.21,0.12,0.54,0.12,0.96c0,1.56-0.09,3.75-0.09,5.84v6.09c0,0.99-0.09,1.76-0.18,2.28c-0.63,0.66-1.59,1.14-3.15,1.53c-0.06,0.15-0.12,0.39-0.12,0.54c0,0.09,0.03,0.39,0.09,0.42h0.57c0.6,0,1.98-0.09,2.87-0.09c1.32,0,2.22,0.09,3.44,0.09h1.79c0.12-0.03,0.15-0.39,0.15-0.51s-0.03-0.36-0.09-0.48c-1.04-0.27-2.57-0.51-3.59-1.86c-0.21-0.45-0.39-2.67-0.39-3.72c0-0.96-0.03-2.27-0.03-4.04c0-2.37,0.03-4.43,0.06-5.48c0.18,0.21,0.39,0.48,0.54,0.65l13.83,15.56c0.15,0.15,0.69,0.18,0.84,0.18s0.24,0,0.36-0.06c0.06-0.15,0.27-0.63,0.27-1.35c0-0.87-0.03-1.77-0.03-2.22V21.63c0-3.75,1.77-4.79,3.84-4.88C169.1,16.59,169.13,16.33,169.13,16.17z M139.51,36.94c0-0.15-0.03-0.48-0.09-0.6c-0.45-0.03-1.68-0.15-2.22-0.27c-0.48-0.57-0.81-1.23-1.02-2.31c-0.03-1.44-0.06-4.41-0.06-7.19V19.2c0-0.81,0.33-1.44,0.54-1.62c0.57-0.54,1.71-0.66,2.67-0.78c0.06-0.12,0.09-0.45,0.09-0.57c0-0.18-0.09-0.42-0.15-0.48h-0.87c-1.26,0-4.19,0.15-5.21,0.15c-0.63,0-3.56-0.09-4.88-0.12h-0.66c-0.09,0.12-0.15,0.24-0.15,0.51c0,0.12,0.02,0.42,0.06,0.57c1.47,0.12,2.12,0.27,2.34,0.42c0.36,0.27,0.87,0.93,0.99,2.55c0.03,0.57,0.05,1.8,0.09,4.56c0.03,1.5,0.06,3.59,0.06,5.33c0,0.87-0.06,2.82-0.09,3.86c-0.05,0.72-0.21,1.41-0.42,1.8c-0.36,0.3-0.72,0.84-2.91,0.99c-0.06,0.12-0.09,0.51-0.09,0.63c0,0.24,0.06,0.35,0.06,0.51h0.51c1.2,0,4.2-0.15,5.75-0.15c0.45,0,3.56,0.09,4.55,0.09h0.99C139.47,37.3,139.51,37.06,139.51,36.94z M115.47,21.3c0,1.86-1.26,3.98-2.72,4.34c-0.6,0.15-1.35,0.24-2.46,0.24c-0.3,0-0.75,0-1.11-0.06l-0.03-2.55v-5.51c0-0.36,0.09-0.57,0.18-0.66c0.09-0.09,0.63-0.18,1.26-0.18c2.34,0,3.36,0.21,4.19,1.62C115.26,19.35,115.47,20.28,115.47,21.3z M124.17,36.97c0-0.15-0.06-0.51-0.15-0.63c-0.3,0-1.53-0.06-1.98-0.39c-0.15-0.18-0.39-0.54-0.51-0.75c-0.39-1.37-0.84-2.3-1.29-3.44c-0.63-1.5-1.5-2.91-2.22-3.57c-0.27-0.24-1.2-0.63-2.25-0.99c-0.48-0.18-0.87-0.33-1.23-0.48c0.45-0.09,0.66-0.12,1.23-0.18c2.22-0.27,2.73-0.66,3.3-1.11c1.2-0.9,1.86-2.28,1.86-3.9c0-2.43-1.56-4.76-3.74-5.45c-0.72-0.21-2.01-0.33-3.6-0.33c-2.25,0-5.4,0.21-6.89,0.21c-0.45,0-3.06-0.06-4.11-0.06c-0.45,0-1.59-0.06-1.77-0.06c-0.09,0.21-0.15,0.45-0.15,0.57c0,0.12,0.03,0.42,0.06,0.54c0.51,0.06,1.44,0.18,1.92,0.27c0.72,0.54,0.96,0.96,1.26,1.62c0.15,0.96,0.18,3.41,0.18,7.64c0,3.06,0.03,6.59-0.12,7.73c-0.09,0.75-0.36,1.64-1.23,2c-0.39,0.06-1.11,0.18-1.71,0.21c-0.09,0.15-0.15,0.45-0.15,0.6c0,0.09,0.06,0.33,0.12,0.48c0.42,0,5.01-0.09,5.96-0.09c1.92,0,3.54,0.09,5.24,0.09c0.06-0.12,0.12-0.33,0.12-0.45c0-0.21-0.06-0.51-0.12-0.63c-0.6-0.06-1.35-0.24-1.68-0.3c-0.75-0.35-1.29-1.07-1.29-2.13l-0.03-6.92c0.24-0.03,0.54-0.03,0.78-0.03c0.39,0,0.84,0.06,1.59,0.48c1.11,0.63,1.65,1.09,2.37,2.19c0.96,1.5,1.59,4.25,1.89,6.44c0.09,0.63,0.33,1.17,0.9,1.23c0.24,0.03,1.83,0.09,2.97,0.09h4.28C124.11,37.36,124.17,37.12,124.17,36.97z M91.63,21.45c0,1.53-0.54,2.88-1.53,3.75c-0.63,0.51-1.62,0.81-3.12,0.81c-0.63,0-1.11-0.03-1.29-0.06c-0.24-0.03-0.39-0.06-0.39-0.21l0.03-8.78c0.36-0.03,0.87-0.15,1.74-0.15c2.04,0,3.3,0.51,3.89,1.77C91.38,19.38,91.63,20.4,91.63,21.45z M96.99,21.57c0-2.25-1.29-4.35-3.2-5.21c-0.99-0.42-2.73-0.69-5.36-0.69c-2.31,0-5.91,0.18-7.49,0.18c-1.11,0-2.79-0.12-3.72-0.12c-0.09,0.15-0.15,0.36-0.15,0.48c0,0.12,0,0.45,0.09,0.6c0.57,0.18,1.5,0.33,2.1,0.48c0.51,0.45,0.63,0.84,0.81,1.71c0.09,1.04,0.15,2.37,0.15,4.64c0,6.32-0.03,9.65-0.12,10.36c-0.12,0.9-0.72,1.83-1.71,2.13c-0.45,0.09-1.11,0.24-1.73,0.3c-0.03,0.15-0.06,0.36-0.06,0.63c0,0.24,0.03,0.27,0.09,0.42c0.96,0,3.78-0.12,4.86-0.12c2.67,0,5.4,0.12,6.5,0.12h0.75c0.09-0.12,0.09-0.33,0.09-0.48c0-0.18,0-0.42-0.06-0.54c-0.9-0.12-2.25-0.3-2.81-0.96c-0.3-0.35-0.6-0.87-0.6-1.76l-0.09-6.59c1.8,0.12,3.72,0.18,4.77,0.18c1.38,0,2.55-0.24,3.47-0.54C95.67,25.98,96.99,23.87,96.99,21.57z M299.37,49.6c0-0.18-0.12-0.24-0.18-0.36c-1.23,0-2.84,0.09-3.48,0.09c-1.53,0-3.38-0.12-4.19-0.12c-0.09,0.18-0.12,0.21-0.12,0.36s0.03,0.27,0.06,0.36c0.87,0.18,2.13,0.39,2.37,0.81c0.21,0.38,0.27,0.69,0.27,1.16c0,0.36-0.03,0.72-0.18,1.11c-0.27,0.74-0.84,1.92-1.65,3.56c-1.38,2.78-2.25,4.52-2.73,5.21c-0.78-1.32-2.51-4.79-2.93-5.69l-1.68-3.66c-0.06-0.12-0.12-0.54-0.12-0.81c0-0.39,0.06-0.66,0.12-0.78c0.27-0.54,1.2-0.59,2.46-0.75c0.06-0.15,0.09-0.33,0.09-0.45c0-0.21-0.09-0.15-0.18-0.3h-0.54c-2.01,0-1.41,0.09-4.86,0.09c-1.46,0-3.23-0.09-3.47-0.09c-0.12,0.21-0.18,0.24-0.18,0.45c0,0.12,0.03,0.21,0.12,0.36c2,0.48,2.6,0.84,2.81,1.23l5.24,10.27c0.51,0.96,0.81,1.71,0.96,2.25c0.21,0.84,0.24,2.07,0.24,3.59c0,1.29-0.45,1.98-0.96,2.31c-0.21,0.12-1.71,0.33-2.4,0.38c-0.12,0.21-0.15,0.27-0.15,0.42s0.06,0.24,0.09,0.36c1.53,0,3.12-0.03,4.02-0.03c0.63,0,1.59,0.03,3.36,0.06c1.02,0.03,1.8,0.06,2.34,0.06c0.06-0.12,0.15-0.24,0.15-0.39c0-0.14-0.03-0.24-0.12-0.38c-0.96-0.12-2.3-0.3-2.61-0.6c-0.48-0.51-0.72-0.74-0.78-1.92l-0.24-4.5c-0.03-0.33,0.09-0.63,0.12-0.71c0.09-0.33,0.21-0.6,0.32-0.84l4.62-9.14c0.42-0.78,1.32-1.65,1.92-2.01c0.42-0.27,1.35-0.45,1.95-0.6C299.32,49.84,299.37,49.72,299.37,49.6z M275.16,55.77v-5.82c0-0.45-0.18-0.57-0.63-0.57c-0.9,0-5.04,0.12-9.83,0.12c-3.72,0-6.2-0.06-7.88-0.06h-2.22c-0.39,0-0.51,0.09-0.51,0.51v5.42c0.12,0.09,0.21,0.12,0.36,0.12c0.12,0,0.24,0,0.36-0.06c1.17-2.61,1.77-3.98,3.78-5c0.9-0.09,4.04-0.12,4.52-0.12c0.03,0.33,0.06,1.37,0.09,2.64c0.03,2.16,0.03,3.32,0.03,8.42c0,4.4-0.03,6.68-0.09,7.15c-0.12,0.84,0.03,1.47-3.56,1.62c-0.09,0.21-0.09,0.27-0.09,0.51c0,0.12,0,0.23,0.03,0.36h1.17c1.11,0,2.58-0.12,3.66-0.12c0.87,0,2.52,0.09,4.35,0.09h0.84c0.09-0.15,0.09-0.3,0.09-0.45c0-0.18-0.03-0.27-0.12-0.43c-0.33,0-2.25,0.07-3.09-0.57c-0.09-0.33-0.27-1.2-0.27-2.24c-0.02-3.24-0.06-4.77-0.06-6.93c0-2.78,0.03-4.91,0.03-10.1c0.42,0,2.64-0.02,3.54,0c1.85,0.51,2.57,1.2,3.38,2.28c0.72,0.96,0.9,1.83,1.35,3.27c0.18,0.06,0.27,0.06,0.45,0.06C274.95,55.89,275.1,55.83,275.16,55.77z M250.26,70.57c0-0.15-0.03-0.3-0.09-0.42c-0.45-0.03-1.68-0.15-2.22-0.27c-0.48-0.57-0.81-1.23-1.02-2.31c-0.03-1.44-0.06-4.7-0.06-7.49v-7.61c0-0.81,0.33-1.44,0.54-1.62c0.57-0.54,1.71-0.66,2.67-0.78c0.06-0.12,0.09-0.27,0.09-0.38c0-0.18-0.09-0.3-0.15-0.36h-0.87c-1.26,0-3.06,0.15-4.08,0.15c-0.63,0-2.42-0.09-3.74-0.12h-0.66c-0.09,0.12-0.15,0.12-0.15,0.38c0,0.12,0.03,0.24,0.06,0.39c1.47,0.12,2.13,0.27,2.34,0.42c0.36,0.27,0.87,0.93,0.99,2.55c0.03,0.57,0.05,2.1,0.09,4.85c0.03,1.5,0.06,3.54,0.06,5.27c0,0.88-0.06,3.12-0.09,4.17c-0.05,0.72-0.21,1.41-0.42,1.8c-0.36,0.3-0.72,0.84-2.91,0.99c-0.06,0.12-0.09,0.33-0.09,0.45c0,0.24,0.05,0.24,0.05,0.39h0.51c1.2,0,3.06-0.15,4.61-0.15c0.45,0,2.42,0.09,3.42,0.09h0.98C250.23,70.81,250.26,70.69,250.26,70.57z M235.45,65.06c0-2.4-1.07-4.04-3.38-5.27c-0.63-0.36-1.74-0.75-3.33-1.2c-1.83-0.51-3.36-1.1-4.35-1.65c-0.66-0.36-1.77-1.35-1.77-3.26c0-1.92,1.95-3.51,4.23-3.51c1.8,0,3.24,0.9,4.11,2.09c0.75,1.05,1.02,1.53,1.86,3.42c0.09,0.03,0.21,0.06,0.3,0.06c0.27,0,0.51-0.15,0.66-0.3c-0.09-0.75-0.24-1.8-0.24-2.69c0-0.78,0.18-1.8,0.27-2.34c-0.24-0.36-0.51-0.42-0.9-0.42c-0.42,0.27-0.81,0.69-1.17,1.08c-1.98-1.59-3.6-1.86-5.09-1.86c-3.68,0-6.32,2.46-6.32,5.72c0,1.11,0.38,2.19,1.1,3.3c0.66,0.93,1.62,1.65,2.91,2.19c0.87,0.35,4.76,1.53,5.3,1.74c2.4,0.93,3.3,1.73,3.3,3.86c0,1.05-0.45,1.98-1.32,3.03c-0.78,0.96-2.01,1.41-3.33,1.41c-1.41,0-3.84-0.6-5.04-2.22c-0.72-0.93-1.74-2.88-2.04-4.05c-0.21-0.06-0.21-0.06-0.42-0.06c-0.18,0-0.39,0.06-0.57,0.18c0,0.39,0.12,2.37,0.12,2.97c0,1.47-0.27,2.19-0.33,2.67c0.09,0.3,0.6,0.6,0.96,0.6c0.62-0.54,1.28-0.96,1.5-0.96c0.18,0,0.45,0.09,0.71,0.27c1.95,1.26,3.57,1.5,5.01,1.5C232.43,71.35,235.45,69.23,235.45,65.06z M208.94,54.72c0,1.92-1.53,4.07-3.29,4.47c-0.72,0.15-1.77,0.24-3.12,0.24c-0.36,0-1.38,0-1.83-0.07l-0.03-2.64v-5.66c0-0.39,0.09-0.6,0.21-0.69c0.12-0.09,1.35-0.18,2.1-0.18c2.82,0,4.11,0.27,5.13,1.74C208.67,52.75,208.94,53.67,208.94,54.72z M215.23,70.6c0-0.15-0.05-0.33-0.15-0.45c-0.3,0-1.53-0.06-1.98-0.39c-0.15-0.18-0.39-0.54-0.51-0.75c-0.39-1.38-0.81-2.61-1.26-3.75c-0.63-1.5-1.5-2.91-2.22-3.56c-0.27-0.24-1.11-0.63-2.16-0.99c-0.48-0.18-0.87-0.33-1.23-0.48c0.45-0.09,0.66-0.12,1.23-0.18c1.95-0.24,2.61-0.66,3.18-1.11c1.2-0.9,1.97-2.25,1.97-3.86c0-2.43-1.56-4.74-3.74-5.42c-0.72-0.21-2.01-0.33-3.6-0.33c-2.25,0-3.92,0.2-5.42,0.2c-0.45,0-1.92-0.06-2.96-0.06c-0.45,0-1.59-0.06-1.77-0.06c-0.09,0.21-0.15,0.27-0.15,0.39s0.03,0.29,0.06,0.42c0.51,0.06,1.43,0.18,1.92,0.27c0.72,0.54,0.96,0.96,1.26,1.62c0.15,0.96,0.18,3.66,0.18,7.88c0,3.05,0.03,6.89-0.12,8.03c-0.09,0.74-0.35,1.64-1.23,2c-0.39,0.06-1.11,0.18-1.71,0.21c-0.09,0.15-0.15,0.27-0.15,0.42c0,0.09,0.06,0.21,0.12,0.36c0.42,0,3.86-0.09,4.82-0.09c1.92,0,2.4,0.09,4.11,0.09c0.06-0.12,0.12-0.21,0.12-0.33c0-0.21-0.06-0.33-0.12-0.45c-0.6-0.06-1.35-0.24-1.68-0.3c-0.75-0.36-1.29-1.08-1.29-2.13l-0.03-7.49c0.24-0.03,1.11-0.03,1.35-0.03c0.81,0,1.62,0.07,2.4,0.42c1.14,0.51,2.22,1.32,2.94,2.43c0.96,1.5,1.59,4.34,1.89,6.53c0.09,0.63,0.33,1.17,0.9,1.23c0.24,0.03,0.6,0.09,1.74,0.09h3.11C215.18,70.87,215.23,70.76,215.23,70.6z M190.09,66.05c0-0.42,0-0.6-0.03-0.87c-0.15-0.09-0.21-0.09-0.45-0.09c-0.21,0-0.18,0-0.39,0.07c-0.66,2.19-1.79,3.81-3.09,4.58c-0.45,0.27-1.26,0.33-2.55,0.33h-3.36c-1.05-0.03-1.71-0.09-1.98-0.15c-0.45-0.09-0.93-0.81-1.14-1.29c-0.21-0.51-0.33-0.69-0.33-2.07v-6.83h0.96c0.96,0,1.74,0.06,2.55,0.42c0.75,0.33,1.32,0.81,1.62,1.28c0.27,0.42,0.36,2.07,0.42,2.49c0.15,0.09,0.24,0.12,0.48,0.12c0.24,0,0.27-0.02,0.48-0.15c0-0.81-0.18-3-0.18-4.19c0-1.5,0.21-3.33,0.3-4.41c-0.12-0.06-0.18-0.12-0.48-0.12c-0.21,0-0.3,0-0.48,0.09c-0.09,0.42-0.33,1.68-0.38,1.77c-0.45,0.74-1.5,1.35-2.31,1.59c-0.54,0.15-1.32,0.24-2.46,0.24h-0.48v-2.94c0-2.87,0.06-4.04,0.09-4.58c0.03-0.36,0.09-0.74,0.12-1.01c0.27-0.03,1.14-0.06,2.52-0.06c1.73,0,3.02,0.02,3.3,0.02c0.84,0.06,1.46,0.24,1.92,0.6c1.47,1.14,1.86,1.89,2.67,3.72c0.18,0.06,0.21,0.06,0.36,0.06c0.18,0,0.21-0.06,0.45-0.18c0-1.83-0.12-3.9-0.18-4.65c-0.03-0.3-0.09-0.38-0.69-0.38c-0.24,0-1.38-0.06-2.57-0.06c-1.71,0-2.4,0.03-5.01,0.03c-1.41,0-3.89,0.03-5.12,0.03c-1.8,0-2.19-0.06-2.97-0.06h-1.03c-0.09,0.12-0.15,0.24-0.15,0.35c0,0.16,0.06,0.3,0.15,0.42c0.36,0.12,1.78,0.09,2.2,0.33c0.42,0.36,0.81,0.45,1.08,1.89c0.06,0.63,0.09,2.67,0.09,4.05v6.17c0,1.26-0.03,3.33-0.06,4.07c-0.06,1.17-0.48,2.64-0.66,2.91c-0.27,0.21-1.5,0.39-2.71,0.45c-0.09,0.18-0.15,0.3-0.15,0.48s0.06,0.27,0.15,0.42h0.99c0.96,0,3.36-0.09,4.17-0.09c0.75,0,1.77,0.06,3.51,0.06c0.96,0,3.77,0.18,9.83,0.18c0.24,0,0.51,0.03,0.81-0.06c0.09-0.15,0.09-0.21,0.12-0.48C190.09,69.95,190.09,68.48,190.09,66.05z M167.9,49.69c0-0.12-0.03-0.3-0.15-0.33h-1.02c-0.72,0-1.86,0.06-2.37,0.06c-2.43,0-3.3-0.15-3.66-0.15h-0.54c-0.07,0.15-0.16,0.24-0.16,0.39c0,0.12,0.07,0.21,0.07,0.33c0.74,0.09,1.4,0.24,2.07,0.45c0.36,0.36,0.75,1.08,0.75,1.89c0,0.29-0.3,1.71-0.73,2.73l-4.82,11.86l-5.92-15.02c0.09-0.71,0.48-1.4,0.98-1.67c0.51-0.06,1.13-0.24,1.94-0.24c0.06-0.12,0.12-0.29,0.12-0.42c0-0.12-0.03-0.3-0.15-0.33h-0.75c-0.92,0-2.32,0.12-3.91,0.12c-0.69,0-2.04-0.06-3.36-0.06h-1.17c-0.06,0.12-0.12,0.18-0.12,0.36s0.03,0.24,0.09,0.36c0.84,0.21,1.65,0.54,2.52,1.01c0.57,0.84,1.8,3.87,2.46,5.45l2.48,6c2.06,4.98,3.29,8.3,3.44,8.87c0.15,0.09,0,0.18,0.27,0.18s0.24-0.05,0.3-0.2l7.73-18.58c0.27-0.66,0.69-1.29,1.08-1.71c0.48-0.54,1.46-0.75,2.39-0.96C167.81,49.96,167.9,49.84,167.9,49.69z M141.66,70.57c0-0.15-0.02-0.3-0.09-0.42c-0.45-0.03-1.68-0.15-2.22-0.27c-0.48-0.57-0.81-1.23-1.02-2.31c-0.03-1.44-0.06-4.7-0.06-7.49v-7.61c0-0.81,0.33-1.44,0.54-1.62c0.57-0.54,1.71-0.66,2.67-0.78c0.06-0.12,0.09-0.27,0.09-0.38c0-0.18-0.09-0.3-0.15-0.36h-0.87c-1.26,0-3.06,0.15-4.08,0.15c-0.63,0-2.43-0.09-3.74-0.12h-0.66c-0.09,0.12-0.15,0.12-0.15,0.38c0,0.12,0.03,0.24,0.06,0.39c1.47,0.12,2.13,0.27,2.34,0.42c0.36,0.27,0.87,0.93,0.99,2.55c0.03,0.57,0.06,2.1,0.09,4.85c0.03,1.5,0.06,3.54,0.06,5.27c0,0.88-0.06,3.12-0.09,4.17c-0.06,0.72-0.21,1.41-0.42,1.8c-0.36,0.3-0.72,0.84-2.91,0.99c-0.06,0.12-0.09,0.33-0.09,0.45c0,0.24,0.06,0.24,0.06,0.39h0.51c1.2,0,3.06-0.15,4.61-0.15c0.45,0,2.43,0.09,3.42,0.09h0.99C141.64,70.81,141.66,70.69,141.66,70.57z M128.12,49.63c0-0.12-0.03-0.21-0.09-0.29h-0.69c-1.5,0-2.16,0.06-4.85,0.06c-0.93,0-2.31-0.06-2.64-0.06h-0.78c-0.09,0.06-0.12,0.27-0.12,0.39c0,0.15,0.03,0.21,0.15,0.33c0.48,0.15,2.31,0.36,3.09,0.87c0.54,0.63,0.78,1.89,0.87,3.06c0.03,0.45,0.06,0.9,0.06,2.13v8.9c0,0.72-0.03,0.96-0.06,1.29c-0.51-0.57-1.38-1.68-2.55-3.06l-11.45-13.36c-0.09-0.12-0.27-0.27-0.45-0.39c-0.24,0-0.54-0.03-0.78-0.03c-1.92,0-3.6-0.09-4.11-0.09c-0.06,0.12-0.09,0.18-0.09,0.3c0,0.06,0.03,0.3,0.06,0.39c0.45,0.12,1.77,0.27,2.31,0.84c0.48,0.54,1.2,1.17,1.46,1.77c0.09,0.21,0.12,0.54,0.12,0.96c0,1.56-0.09,4.4-0.09,6.5v6.38c0,0.99-0.09,1.76-0.18,2.28c-0.63,0.66-1.59,1.14-3.15,1.53c-0.06,0.15-0.12,0.21-0.12,0.36c0,0.09,0.03,0.27,0.09,0.29h0.57c0.6,0,1.98-0.09,2.88-0.09c1.31,0,1.91,0.09,3.14,0.09h1.81c0.12-0.03,0.14-0.27,0.14-0.39s-0.02-0.18-0.09-0.3c-1.05-0.27-2.57-0.51-3.59-1.86c-0.21-0.45-0.39-2.73-0.39-3.77c0-0.96-0.03-2.52-0.03-4.28c0-2.37,0.03-5.64,0.06-6.68c0.18,0.21,0.45,0.54,0.66,0.78l14.2,16.63c0.15,0.15,0.21,0.18,0.36,0.18s0.05,0,0.18-0.06c0.06-0.15,0.15-0.63,0.15-1.35c0-0.87-0.03-1.77-0.03-2.22V54.9c0-3.75,1.77-4.8,3.84-4.88C128.09,49.87,128.12,49.78,128.12,49.63z M100.37,49.78c0-0.12-0.06-0.3-0.15-0.39h-0.87c-0.93,0-2.19,0.06-3.27,0.06c-1.2,0-2.54-0.06-3.42-0.06h-1.07c-0.09,0.18-0.12,0.24-0.12,0.39c0,0.12,0.03,0.24,0.09,0.39c0.12,0,2.31,0.03,2.7,0.57c0.33,0.45,1.05,1.56,1.17,2.22c0.06,0.3,0.24,1.53,0.24,3.3c0,2.55,0,4.25-0.03,5.15c-0.06,1.68-0.24,3-0.54,3.99c-0.84,2.61-2.78,3.9-5.87,3.9c-1.32,0-2.46-0.27-3.51-0.75c-1.95-0.96-2.88-2.79-2.91-3.77l-0.15-8.98l-0.03-3.66c0-0.69,0.87-1.32,1.17-1.68c0.24-0.12,1.56-0.24,2.31-0.3c0.09-0.18,0.15-0.27,0.15-0.42c0-0.15-0.09-0.3-0.21-0.39l-1.14,0.03c-1.11,0.03-2.58,0.06-3.5,0.06c-1.44,0-2.55-0.03-3.45-0.03H76.7c-0.12,0.09-0.15,0.27-0.15,0.42c0,0.15,0.03,0.27,0.12,0.36c0.96,0.12,1.59,0.21,2.01,0.3c0.51,0.3,0.87,0.81,1.05,1.32c0.03,0.39,0.09,1.35,0.09,3.24v7.19c0,1.86,0.09,3.17,0.3,4.02c0.39,1.56,1.23,2.79,2.61,3.68c1.47,0.96,3.3,1.44,5.48,1.44c2.01,0,3.72-0.42,5.15-1.23c1.5-0.81,2.43-2.12,2.97-3.98c0.3-1.1,0.48-2.31,0.48-3.56v-5.75c0-1.08,0.06-2.43,0.06-2.97c0.03-1.62,0.45-2.58,0.9-3.3c0.48-0.15,0.9-0.24,2.48-0.42C100.31,50.02,100.37,49.93,100.37,49.78z"/>
<path fill="#FFFFFF" d="M30.78,17.47c1.88,0,2.5,1.08,2.5,1.08s0.61-1.08,2.5-1.08c1.86,0,6.9,1.83,9.06,0.12v1.54l1.77,0.46v1.81h1.57v2.57h-1.57v4.16h1.57v2.58h-1.57v3.2c-3.15,0.69-7.69,0.56-11.54-0.04v0.81c-1.12,0.46-2.48,0.53-3.59,0v-0.81c-3.85,0.6-8.2,0.75-11.54,0.04v-3.2h-1.58v-2.58h1.58v-4.16h-1.58V21.4h1.58v-1.81l1.89-0.37V17.6C24.45,19.39,28.76,17.47,30.78,17.47z"/>
<path d="M45.09,18.95l0.01-1.97l-0.48,0.5c-0.01,0.01-0.59,0.59-2.98,0.59l-3.23-0.43l-2.66-0.37c-1.46,0-2.19,0.6-2.5,0.96c-0.32-0.36-1.05-0.96-2.5-0.96l-2.66,0.38l-3.23,0.43c-2.35,0-2.84-0.56-2.84-0.57l-0.48-0.6l-0.01,0.76v1.35l-1.92,0.4v14.79l0.23,0.03c0.03,0.01,2.7,0.42,5.14,0.42c2.41,0,5.27-0.32,6.17-0.42v0.67l0.15,0.08c0.04,0.02,0.83,0.4,1.89,0.4c1.07,0,1.91-0.38,1.95-0.4l0.16-0.07v-0.68c0.9,0.11,3.76,0.42,6.18,0.42c2.43,0,5.1-0.42,5.13-0.42l0.23-0.03V19.45L45.09,18.95z M33.53,18.76c0.02-0.04,0.54-0.94,2.23-0.94l2.54,0.36l3.35,0.44c1.62,0,2.45-0.25,2.91-0.47v13.98c-0.03-0.07-0.69,0.43-2.91,0.43l-3.23-0.43l-2.66-0.37c-1.15,0-1.83,0.37-2.23,0.7V18.76z M22.09,18.18c0.44,0.22,1.23,0.45,2.79,0.45l3.34-0.44l2.54-0.37c1.67,0,2.2,0.89,2.23,0.94v13.7c-0.41-0.34-1.09-0.71-2.25-0.71l-2.66,0.37l-3.2,0.43c-2.35,0-2.84-0.56-2.84-0.57C22.03,31.99,22.08,19.11,22.09,18.18z M46.3,33.74c-0.67,0.1-2.82,0.38-4.81,0.38c-2.86,0-6.39-0.45-6.42-0.45l-0.31-0.04v0.94c-0.27,0.1-0.86,0.28-1.56,0.28c-0.68,0-1.23-0.18-1.49-0.28v-0.95l-0.31,0.04c-0.04,0.01-3.56,0.45-6.41,0.45c-2,0-4.15-0.28-4.82-0.38V19.88c0.25-0.05,1-0.21,1.37-0.29v12.56c0.13,0.29,0.71,0.96,3.33,0.96l3.32-0.43l2.54-0.37c1.7,0,2.23,0.9,2.25,0.94l0.08-0.04h0.39l0.07,0.04c0.02-0.04,0.54-0.94,2.23-0.94l2.54,0.36l3.35,0.44c2.66,0,3.33-0.7,3.39-0.78l0.06-12.8c0.35,0.1,0.99,0.27,1.21,0.34V33.74z M23.68,20.86c-0.1-0.18-0.23-0.19-0.37-0.21c-0.02-0.02-0.02-0.04-0.02-0.06c0-0.02,0-0.03,0.01-0.06h0.15c0.17,0,0.31,0.01,0.43,0.01c0.15,0,0.39-0.02,0.55-0.02h0.1c0.02,0.01,0.02,0.04,0.02,0.06c0,0.01,0,0.05-0.01,0.06c-0.11,0.01-0.35,0.01-0.35,0.16c0,0.03,0.01,0.09,0.02,0.13l0.58,1.37l0.48-1.14c0.06-0.13,0.07-0.24,0.07-0.3c0-0.13-0.09-0.19-0.33-0.21c-0.01-0.02-0.02-0.04-0.02-0.05c0-0.02,0.01-0.05,0.02-0.07h0.07c0.11,0,0.21,0.02,0.46,0.02c0.04,0,0.21-0.01,0.29-0.01H26c0.01,0.02,0.02,0.03,0.02,0.05c0,0.02-0.01,0.05-0.02,0.07c-0.21,0.02-0.35,0.13-0.42,0.27l-0.88,1.96c0,0-0.04,0.03-0.07,0.03s-0.06-0.03-0.08-0.09c-0.02-0.07-0.13-0.34-0.36-0.88l-0.29-0.64C23.78,21.06,23.7,20.91,23.68,20.86z M26.35,22.83c0.25,0,0.47-0.02,0.57-0.02c0.09,0,0.26,0.01,0.33,0.01c0.1,0,0.48,0.02,1.18,0.02c0.09,0,0.12-0.01,0.12-0.06v-0.61c-0.03-0.01-0.05-0.02-0.07-0.02s-0.04,0-0.07,0.01c-0.07,0.21-0.29,0.45-0.37,0.5c-0.04,0.02-0.16,0.04-0.25,0.04h-0.33c-0.12,0-0.18-0.01-0.22-0.02c-0.07-0.01-0.12-0.09-0.14-0.13c-0.02-0.05-0.03-0.13-0.03-0.27v-0.61c0.05-0.01,0.11-0.01,0.16-0.01c0.09,0,0.16,0.01,0.26,0.05c0.17,0.07,0.2,0.2,0.22,0.4c0.02,0.01,0.05,0.01,0.07,0.01c0.03,0,0.04,0,0.06-0.01c0-0.1-0.01-0.35-0.01-0.46c0-0.23,0.02-0.4,0.02-0.5c-0.02-0.01-0.04-0.02-0.06-0.02c-0.03,0-0.06,0.01-0.08,0.02c-0.01,0.04-0.03,0.16-0.05,0.19c-0.05,0.08-0.15,0.14-0.24,0.17c-0.06,0.02-0.16,0.03-0.26,0.03h-0.08v-0.3c0-0.31,0.01-0.41,0.01-0.47c0.01-0.09,0.01-0.09,0.03-0.09s0.1-0.01,0.26-0.01c0.2,0,0.28,0.01,0.31,0.01c0.1,0.01,0.16,0.03,0.21,0.06c0.12,0.09,0.19,0.14,0.35,0.4c0.01,0.01,0.03,0.01,0.05,0.01c0.03,0,0.03-0.01,0.07-0.02l-0.03-0.52c0-0.05-0.02-0.06-0.07-0.06c-0.03,0-0.19-0.01-0.24-0.01c-0.09,0-0.48-0.01-0.88-0.01c-0.44,0-0.67-0.01-0.76-0.01h-0.13c-0.02,0.01-0.02,0.04-0.02,0.06c0,0.02,0.01,0.04,0.01,0.06c0.26,0.03,0.39,0.03,0.39,0.29v0.37c0,0.26,0.01,0.47,0.01,0.65c0,0.12-0.01,0.24-0.01,0.35c-0.01,0.21-0.04,0.3-0.08,0.35c-0.03,0.03-0.16,0.06-0.35,0.07c0,0.02,0,0.05,0,0.07s0,0.03,0.01,0.05L26.35,22.83z M31.17,20.52c-0.11,0-0.52,0.02-1.08,0.02c-0.42-0.01-0.76-0.01-0.84-0.01c-0.11,0-0.2-0.01-0.25-0.01c-0.06,0-0.07,0.02-0.07,0.07v0.59c0.01,0.02,0.03,0.02,0.06,0.02c0.01,0,0.04,0,0.06-0.01c0.15-0.28,0.28-0.44,0.47-0.51c0.06-0.03,0.29-0.03,0.36-0.03c0.02,0.07,0.02,0.18,0.02,0.29v0.85c0,0.31,0,0.62-0.01,0.69c-0.01,0.12-0.05,0.19-0.42,0.21c-0.01,0.02-0.01,0.04-0.01,0.06c0,0.04,0,0.04,0.02,0.06c0.17,0,0.52-0.02,0.59-0.02c0.1,0,0.42,0.01,0.59,0.01h0.1c0.01-0.02,0.02-0.04,0.02-0.06c0-0.02-0.01-0.04-0.02-0.07c-0.28-0.04-0.4-0.04-0.4-0.31c-0.01-0.35-0.01-0.54-0.01-0.7l0.01-1.03c0.04,0,0.17,0,0.23,0.01c0.24,0.03,0.33,0.11,0.43,0.23c0.06,0.07,0.12,0.2,0.17,0.34c0.02,0,0.05,0.01,0.06,0.01c0.02,0,0.05-0.01,0.06-0.03v-0.6c0-0.03,0.01-0.07,0-0.09C31.26,20.52,31.22,20.52,31.17,20.52z M25.28,26.46h0.1c0.01-0.02,0.01-0.04,0.01-0.06c0-0.02,0-0.04-0.02-0.07c-0.28-0.04-0.4-0.04-0.41-0.31c-0.01-0.35-0.01-0.54-0.01-0.7l0.01-1.03c0.04,0,0.17,0,0.23,0.01c0.24,0.03,0.34,0.11,0.43,0.23c0.06,0.07,0.12,0.2,0.17,0.34c0.03,0,0.05,0.01,0.07,0.01s0.04-0.01,0.06-0.03v-0.59c0-0.03,0-0.08-0.01-0.09c-0.02-0.02-0.05-0.02-0.12-0.02c-0.1,0-0.52,0.02-1.07,0.02c-0.42,0-0.76-0.01-0.85-0.01c-0.11,0-0.19-0.01-0.25-0.01s-0.07,0.02-0.07,0.07v0.6c0.02,0.01,0.03,0.02,0.05,0.02c0.02,0,0.04,0,0.06-0.01c0.15-0.28,0.27-0.44,0.46-0.51c0.07-0.03,0.29-0.03,0.37-0.03c0.02,0.07,0.02,0.18,0.02,0.29v0.85c0,0.31,0,0.62-0.01,0.69c-0.02,0.12-0.05,0.19-0.43,0.21c0,0.02-0.01,0.04-0.01,0.06c0,0.04,0.01,0.04,0.01,0.06c0.17,0,0.53-0.02,0.6-0.02C24.79,26.45,25.12,26.46,25.28,26.46z M28.52,26.47c0.09,0,0.12-0.01,0.12-0.07v-0.61c-0.02-0.01-0.05-0.02-0.07-0.02s-0.04,0-0.07,0.01c-0.07,0.21-0.29,0.45-0.38,0.5c-0.04,0.02-0.16,0.04-0.24,0.04h-0.34c-0.12,0-0.18-0.01-0.21-0.02c-0.06-0.01-0.12-0.09-0.14-0.13c-0.02-0.05-0.03-0.13-0.03-0.27v-0.61c0.05-0.01,0.11-0.01,0.15-0.01c0.09,0,0.16,0.01,0.25,0.05c0.17,0.07,0.2,0.2,0.22,0.4c0.02,0.01,0.05,0.01,0.07,0.01c0.03,0,0.04,0,0.06-0.02c0-0.1-0.02-0.35-0.02-0.46c0-0.23,0.02-0.4,0.03-0.5c-0.02-0.01-0.04-0.02-0.06-0.02c-0.03,0-0.06,0.01-0.08,0.02c-0.01,0.04-0.03,0.16-0.05,0.19c-0.06,0.07-0.15,0.14-0.24,0.17c-0.06,0.01-0.16,0.02-0.26,0.02h-0.06v-0.3c0-0.31,0.01-0.41,0.01-0.47c0.01-0.09,0.01-0.09,0.04-0.09c0.02,0,0.1-0.01,0.26-0.01c0.2,0,0.29,0.01,0.32,0.01c0.1,0.01,0.16,0.03,0.2,0.06c0.12,0.09,0.2,0.14,0.35,0.4c0.02,0.01,0.04,0.01,0.05,0.01c0.03,0,0.04-0.01,0.07-0.02l-0.03-0.52c0-0.05-0.02-0.06-0.08-0.06c-0.03,0-0.19-0.01-0.24-0.01c-0.09,0-0.48-0.01-0.89-0.01c-0.44,0-0.67-0.01-0.76-0.01h-0.12c-0.02,0.01-0.03,0.04-0.03,0.06s0.01,0.04,0.02,0.06c0.26,0.03,0.38,0.03,0.39,0.29c0,0.07,0.01,0.18,0.01,0.37c0,0.26,0.01,0.47,0.01,0.65c0,0.12-0.01,0.24-0.01,0.35c-0.01,0.21-0.03,0.3-0.08,0.35c-0.02,0.02-0.16,0.06-0.35,0.07c-0.01,0.02-0.01,0.05-0.01,0.06c0,0.02,0,0.03,0.01,0.06l0.14,0.01c0.24,0,0.47-0.02,0.56-0.02s0.26,0.01,0.34,0.01C27.43,26.45,27.82,26.47,28.52,26.47z M30.58,25.21c-0.07-0.04-0.2-0.08-0.37-0.14c-0.13-0.04-0.25-0.09-0.35-0.12c-0.13-0.06-0.28-0.15-0.28-0.34c0-0.2,0.19-0.34,0.42-0.34c0.2,0,0.35,0.05,0.46,0.2c0.07,0.1,0.13,0.29,0.2,0.4c0.01,0.01,0.03,0.01,0.04,0.01c0.04,0,0.07-0.02,0.09-0.03c0-0.04-0.04-0.29-0.04-0.34c0-0.12,0.03-0.26,0.04-0.32c-0.01-0.03-0.05-0.07-0.12-0.07c-0.05,0.04-0.1,0.09-0.13,0.13c-0.18-0.15-0.4-0.16-0.56-0.16c-0.42,0-0.71,0.28-0.71,0.65c0,0.13,0.04,0.3,0.13,0.42c0.08,0.09,0.16,0.15,0.32,0.23c0.13,0.07,0.49,0.16,0.59,0.21c0.13,0.07,0.18,0.1,0.24,0.17c0.05,0.05,0.07,0.12,0.07,0.21c0,0.11-0.02,0.18-0.13,0.28c-0.07,0.08-0.2,0.11-0.38,0.11c-0.15,0-0.37-0.07-0.51-0.24c-0.07-0.1-0.17-0.35-0.21-0.45h-0.04c-0.04,0-0.08,0.02-0.1,0.05c0.01,0.06,0.02,0.32,0.02,0.38c0,0.09-0.04,0.24-0.04,0.28c0.02,0.04,0.08,0.07,0.13,0.07c0.07-0.06,0.15-0.09,0.17-0.09s0.07,0.01,0.09,0.02c0.13,0.07,0.34,0.14,0.54,0.14c0.43,0,0.82-0.27,0.82-0.7C30.97,25.55,30.85,25.35,30.58,25.21z M26.78,29.43c-0.07,0.21-0.29,0.45-0.37,0.5c-0.04,0.02-0.16,0.04-0.25,0.04h-0.33c-0.12,0-0.18-0.01-0.22-0.02c-0.07-0.01-0.12-0.09-0.14-0.13c-0.02-0.05-0.03-0.13-0.03-0.27v-0.61c0.05-0.01,0.11-0.01,0.15-0.01c0.09,0,0.17,0.01,0.26,0.05c0.17,0.07,0.2,0.2,0.22,0.4c0.02,0.01,0.05,0.01,0.07,0.01c0.03,0,0.04,0,0.06-0.01c0-0.1-0.01-0.35-0.01-0.46c0-0.23,0.02-0.4,0.02-0.5c-0.02-0.01-0.04-0.02-0.06-0.02c-0.03,0-0.06,0.01-0.08,0.02c-0.01,0.04-0.03,0.16-0.05,0.19c-0.05,0.08-0.15,0.14-0.24,0.17c-0.06,0.02-0.16,0.02-0.26,0.02h-0.08v-0.3c0-0.31,0.01-0.41,0.01-0.47c0.01-0.09,0.01-0.09,0.03-0.09s0.1-0.01,0.26-0.01c0.2,0,0.28,0.01,0.31,0.01c0.1,0.01,0.16,0.03,0.21,0.06c0.12,0.09,0.19,0.14,0.35,0.4c0.02,0.01,0.03,0.01,0.05,0.01c0.03,0,0.03-0.01,0.07-0.02l-0.03-0.52c0-0.05-0.02-0.06-0.08-0.06c-0.03,0-0.19-0.01-0.24-0.01c-0.09,0-0.48-0.01-0.88-0.01c-0.44,0-0.67-0.01-0.76-0.01h-0.13c-0.02,0.01-0.02,0.04-0.02,0.06s0.01,0.04,0.01,0.06c0.26,0.03,0.39,0.03,0.39,0.29v0.37c0,0.26,0.01,0.47,0.01,0.65c0,0.12-0.01,0.24-0.01,0.35c-0.01,0.21-0.04,0.3-0.08,0.35c-0.03,0.02-0.16,0.06-0.35,0.07c-0.01,0.02-0.01,0.05-0.01,0.07s0,0.03,0.01,0.05l0.14,0.01c0.25,0,0.47-0.02,0.57-0.02c0.09,0,0.26,0.01,0.33,0.01c0.1,0,0.48,0.02,1.18,0.02c0.09,0,0.12-0.01,0.12-0.06v-0.63c-0.03-0.01-0.05-0.02-0.07-0.02C26.83,29.42,26.82,29.42,26.78,29.43z M30.09,27.79c-0.14,0-0.23,0.01-0.51,0.01c-0.11,0-0.29-0.02-0.41-0.02H29.1c-0.01,0.02-0.01,0.04-0.01,0.05c0,0.02,0,0.05,0.01,0.07c0.12,0.03,0.34,0.06,0.38,0.12c0.04,0.07,0.06,0.15,0.07,0.25c0.01,0.05,0.01,0.14,0.01,0.27v0.96c-0.06-0.09-0.18-0.22-0.27-0.32l-1.21-1.32c-0.01-0.02-0.05-0.04-0.07-0.05H27.9c-0.19,0-0.45-0.01-0.49-0.01h-0.06c-0.01,0.02-0.02,0.04-0.02,0.06c0,0,0.01,0.03,0.02,0.05c0.08,0.03,0.21,0.07,0.26,0.11c0.05,0.06,0.11,0.11,0.11,0.12c0.06,0.06,0.08,0.15,0.08,0.25c0.01,0.13,0.01,0.2,0.01,0.33v0.83c0,0.11-0.01,0.22-0.04,0.28c-0.07,0.1-0.25,0.15-0.37,0.16c-0.01,0.03-0.01,0.05-0.01,0.06s0,0.04,0.01,0.06h0.08c0.1,0,0.24-0.01,0.35-0.01c0.15,0,0.27,0.01,0.42,0.01h0.18c0.02-0.02,0.02-0.05,0.02-0.06c0-0.02-0.01-0.04-0.02-0.05c-0.1-0.01-0.23-0.03-0.31-0.1c-0.07-0.05-0.11-0.1-0.12-0.25c-0.01-0.09-0.02-0.21-0.02-0.26l-0.01-0.65l-0.02-0.36l1.64,1.76c0.03,0.02,0.05,0.04,0.06,0.04c0.02,0,0.06-0.01,0.1-0.04c0-0.13-0.02-0.47-0.02-0.52l0.01-1.19c0-0.37,0.2-0.5,0.44-0.51c0.01-0.02,0.01-0.04,0.01-0.05c0-0.01,0-0.04-0.01-0.06h-0.09V27.79z M37.85,20.58c0,0.01-0.01,0.04-0.02,0.05c-0.23,0.01-0.44,0.14-0.44,0.51v1.19c0,0.05,0.02,0.39,0.02,0.52c-0.03,0.02-0.08,0.04-0.09,0.04c-0.02,0-0.03-0.02-0.07-0.04l-1.64-1.76l0.02,0.36l0.01,0.65c0,0.05,0.01,0.17,0.02,0.26c0.02,0.15,0.06,0.19,0.12,0.25c0.09,0.07,0.22,0.09,0.31,0.1c0.01,0.02,0.02,0.04,0.02,0.05c0,0.01-0.01,0.04-0.02,0.06h-0.18c-0.15,0-0.26-0.01-0.42-0.01c-0.1,0-0.24,0.01-0.34,0.01h-0.08c-0.01-0.02-0.01-0.04-0.01-0.06c0-0.01,0-0.03,0.02-0.06c0.11-0.01,0.3-0.07,0.37-0.16c0.03-0.06,0.04-0.16,0.04-0.28v-0.83c0-0.13,0-0.2-0.01-0.33c-0.01-0.11-0.03-0.19-0.08-0.25c-0.01-0.02-0.06-0.07-0.12-0.12c-0.05-0.04-0.18-0.08-0.26-0.11c-0.01-0.02-0.01-0.05-0.01-0.05c0-0.02,0.01-0.04,0.01-0.06h0.06c0.04,0,0.3,0.01,0.49,0.01h0.11c0.02,0.01,0.06,0.03,0.07,0.05l1.21,1.32c0.09,0.1,0.21,0.24,0.27,0.32v-0.96c0-0.13-0.01-0.22-0.02-0.27c-0.01-0.1-0.03-0.18-0.07-0.25c-0.04-0.06-0.26-0.09-0.38-0.12c-0.01-0.02-0.02-0.05-0.02-0.07c0-0.01,0-0.03,0.01-0.05h0.07c0.11,0,0.29,0.02,0.41,0.02c0.27,0,0.37-0.01,0.51-0.01h0.09C37.84,20.54,37.85,20.56,37.85,20.58z M40.6,21.66c0-0.42-0.21-0.8-0.57-1.03c-0.22-0.12-0.41-0.17-0.61-0.17c-0.28,0-0.56,0.1-0.82,0.35c-0.24,0.23-0.35,0.55-0.35,0.87c0,0.34,0.11,0.65,0.35,0.89c0.22,0.21,0.54,0.33,0.81,0.33c0.29,0,0.6-0.13,0.83-0.35C40.47,22.31,40.6,21.98,40.6,21.66z M40.07,21.68c0,0.32-0.05,0.57-0.15,0.74c-0.11,0.2-0.26,0.32-0.51,0.32c-0.2,0-0.34-0.09-0.46-0.26c-0.13-0.18-0.2-0.46-0.2-0.81c0-0.36,0.07-0.64,0.21-0.82c0.11-0.16,0.24-0.24,0.43-0.24c0.21,0,0.35,0.09,0.46,0.24C40,21.03,40.07,21.3,40.07,21.68z M43.54,20.52h-0.17c-0.08,0-0.25,0.01-0.29,0.01c-0.25,0-0.35-0.02-0.46-0.02h-0.07c-0.01,0.02-0.01,0.05-0.01,0.07s0.01,0.04,0.01,0.05c0.24,0.03,0.33,0.09,0.33,0.21c0,0.06-0.01,0.17-0.06,0.3l-0.49,1.14l-0.57-1.37c-0.02-0.04-0.02-0.1-0.02-0.13c0-0.15,0.24-0.15,0.35-0.16c0.01-0.02,0.01-0.06,0.01-0.06c0-0.02-0.01-0.05-0.03-0.06h-0.09c-0.17,0-0.41,0.02-0.56,0.02c-0.12,0-0.26-0.01-0.42-0.01h-0.15c-0.01,0.03-0.01,0.04-0.01,0.06c0,0.02,0,0.04,0.02,0.06c0.14,0.02,0.26,0.04,0.37,0.21c0.03,0.05,0.11,0.2,0.21,0.44l0.28,0.64c0.24,0.54,0.34,0.81,0.37,0.88c0.01,0.06,0.05,0.09,0.08,0.09s0.07-0.03,0.07-0.03l0.88-1.96c0.06-0.15,0.2-0.26,0.41-0.27c0.02-0.02,0.02-0.05,0.02-0.07C43.56,20.56,43.55,20.55,43.54,20.52z M37.13,24.17c-0.02-0.02-0.06-0.02-0.11-0.02c-0.1,0-0.52,0.02-1.07,0.02c-0.42,0-0.76-0.01-0.85-0.01c-0.11,0-0.19-0.01-0.25-0.01s-0.07,0.02-0.07,0.07v0.6c0.02,0.01,0.03,0.02,0.06,0.02c0.02,0,0.04,0,0.06-0.01c0.15-0.28,0.27-0.44,0.46-0.51c0.07-0.03,0.29-0.03,0.37-0.03c0.02,0.07,0.02,0.18,0.02,0.29v0.85c0,0.31,0,0.62-0.01,0.69c-0.02,0.12-0.06,0.19-0.42,0.21c-0.01,0.02-0.01,0.04-0.01,0.06c0,0.04,0.01,0.04,0.01,0.06c0.17,0,0.53-0.02,0.6-0.02c0.1,0,0.42,0.01,0.59,0.01h0.1c0.01-0.02,0.01-0.04,0.01-0.06c0-0.02,0-0.04-0.02-0.07c-0.28-0.04-0.4-0.04-0.41-0.31c-0.01-0.35-0.01-0.54-0.01-0.7l0.01-1.03c0.04,0,0.17,0,0.23,0.01c0.24,0.03,0.34,0.11,0.43,0.23c0.06,0.07,0.12,0.2,0.17,0.34c0.03,0,0.05,0.01,0.07,0.01s0.04-0.01,0.06-0.03v-0.59C37.13,24.23,37.14,24.18,37.13,24.17z M39.88,26.42c0,0.02-0.01,0.03-0.02,0.06h-0.19c-0.12,0-0.25-0.02-0.39-0.02c-0.22,0-0.5,0.02-0.61,0.02c-0.01-0.01-0.01-0.03-0.01-0.06c0-0.01,0.01-0.04,0.01-0.05c0.23-0.01,0.32-0.05,0.32-0.14c0-0.04,0-0.11-0.07-0.3c-0.07-0.17-0.11-0.25-0.12-0.29c-0.01-0.01-0.02-0.02-0.07-0.02H38c-0.05,0.06-0.11,0.22-0.17,0.45c-0.02,0.06-0.02,0.11-0.02,0.13c0,0.07,0.07,0.16,0.33,0.16c0.02,0.03,0.02,0.05,0.02,0.06c0,0.02,0,0.03-0.01,0.06h-0.06c-0.17,0-0.22-0.01-0.4-0.01c-0.12,0-0.4,0.01-0.5,0.01c-0.01-0.02-0.01-0.03-0.01-0.05c0-0.01,0-0.03,0.01-0.06c0.14-0.03,0.27-0.07,0.33-0.17c0.04-0.05,0.16-0.27,0.29-0.6c0.13-0.31,0.29-0.7,0.35-0.87c0.1-0.2,0.13-0.27,0.16-0.34c0.05-0.1,0.1-0.2,0.12-0.24c0.02-0.02,0.07-0.04,0.09-0.04c0.04,0,0.09,0.02,0.1,0.05c0.02,0.04,0.05,0.09,0.05,0.11c0.13,0.32,0.24,0.61,0.41,1c0.09,0.2,0.13,0.33,0.22,0.54c0.06,0.13,0.1,0.23,0.16,0.35c0.09,0.18,0.23,0.18,0.37,0.21C39.86,26.38,39.88,26.4,39.88,26.42z M38.72,25.45c-0.05-0.14-0.23-0.56-0.33-0.82h-0.01c-0.05,0.09-0.13,0.29-0.16,0.38c-0.12,0.3-0.17,0.4-0.19,0.45h0.69V25.45z M43.44,26.35c-0.07,0-0.21-0.02-0.24-0.03c-0.05-0.03-0.16-0.07-0.16-0.5V24.7c0-0.19,0.02-0.23,0.04-0.27c0.08-0.13,0.25-0.13,0.34-0.15c0.01-0.02,0.02-0.04,0.02-0.06c0-0.02-0.01-0.04-0.02-0.06l-0.88,0.02c-0.03,0.06-0.09,0.18-0.14,0.27c-0.22,0.41-0.38,0.79-0.48,1.04L41.8,25.8l-0.69-1.57c-0.01-0.03-0.02-0.04-0.05-0.06H40.5c-0.16,0-0.32-0.01-0.42-0.01c-0.01,0.03-0.02,0.05-0.02,0.07c0,0.01,0.01,0.04,0.02,0.06c0.12,0.02,0.27,0.03,0.31,0.06c0.09,0.06,0.11,0.14,0.12,0.33v0.64v0.55c0,0.23-0.04,0.33-0.09,0.38s-0.27,0.1-0.34,0.12c-0.01,0.02-0.01,0.04-0.01,0.05c0,0.02,0.01,0.04,0.01,0.06h0.16c0.11,0,0.26-0.01,0.33-0.01c0.25,0,0.42,0.02,0.45,0.02c0.05,0,0.1-0.01,0.12-0.01c0.01-0.02,0.02-0.04,0.02-0.06c0,0-0.01-0.04-0.02-0.05c-0.26,0-0.43-0.16-0.43-0.49l-0.02-1.08v-0.44h0.02l0.77,1.7c0.02,0.06,0.07,0.15,0.13,0.29c0.02,0.05,0.04,0.07,0.07,0.07c0.02,0,0.06,0,0.07-0.04c0.03-0.1,0.09-0.27,0.2-0.53c0.05-0.13,0.12-0.26,0.17-0.37l0.49-1.09h0.01v0.32v1.36c0,0.14-0.04,0.24-0.13,0.28c-0.06,0.02-0.18,0.02-0.23,0.02c-0.01,0.02-0.02,0.03-0.02,0.06c0,0.01,0.01,0.04,0.02,0.06h0.26l0.94,0.01c0.01-0.02,0.02-0.03,0.02-0.06C43.46,26.39,43.45,26.38,43.44,26.35z M36.96,27.79c-0.1,0-0.52,0.02-1.07,0.02c-0.42,0-0.76-0.01-0.85-0.01c-0.11,0-0.19-0.01-0.25-0.01s-0.07,0.02-0.07,0.07v0.6c0.02,0.01,0.03,0.02,0.06,0.02c0.02,0,0.04,0,0.06-0.01c0.15-0.28,0.27-0.44,0.46-0.51c0.06-0.03,0.29-0.03,0.37-0.03c0.02,0.07,0.02,0.18,0.02,0.28v0.85c0,0.31,0,0.62-0.01,0.69c-0.02,0.12-0.05,0.19-0.43,0.21c-0.01,0.02-0.01,0.04-0.01,0.06c0,0.04,0.01,0.04,0.02,0.06c0.17,0,0.53-0.02,0.6-0.02c0.1,0,0.42,0.01,0.59,0.01h0.1c0.01-0.02,0.01-0.04,0.01-0.06c0-0.02,0-0.04-0.02-0.07c-0.28-0.04-0.4-0.04-0.41-0.31c-0.01-0.35-0.01-0.54-0.01-0.7l0.01-1.03c0.04,0,0.17,0,0.23,0.01c0.24,0.03,0.34,0.11,0.43,0.23c0.06,0.07,0.12,0.2,0.17,0.34c0.03,0,0.05,0.01,0.07,0.01s0.04-0.01,0.06-0.03v-0.6c0-0.03,0.01-0.07-0.01-0.09C37.06,27.79,37.02,27.79,36.96,27.79z M39.74,27.8c-0.08,0-0.25,0.01-0.29,0.01c-0.25,0-0.35-0.02-0.46-0.02h-0.07c-0.01,0.02-0.01,0.05-0.01,0.07s0.01,0.04,0.01,0.05c0.24,0.03,0.33,0.09,0.33,0.21c0,0.06-0.01,0.17-0.06,0.3l-0.49,1.14l-0.57-1.37c-0.02-0.04-0.02-0.1-0.02-0.13c0-0.15,0.24-0.15,0.35-0.16c0.01-0.02,0.01-0.05,0.01-0.06c0-0.02,0-0.05-0.02-0.06h-0.09c-0.16,0-0.41,0.02-0.55,0.02c-0.12,0-0.26-0.01-0.42-0.01h-0.15c-0.02,0.03-0.02,0.04-0.02,0.06c0,0.01,0,0.04,0.02,0.06c0.14,0.02,0.26,0.04,0.37,0.21c0.03,0.05,0.11,0.2,0.21,0.44l0.28,0.64c0.24,0.54,0.34,0.81,0.37,0.88c0.01,0.06,0.05,0.09,0.08,0.09s0.07-0.03,0.07-0.03l0.88-1.96c0.06-0.15,0.2-0.26,0.41-0.27c0.02-0.02,0.02-0.05,0.02-0.07s-0.01-0.03-0.02-0.05h-0.17V27.8z M43.49,29.99c-0.07,0-0.21-0.02-0.23-0.03c-0.05-0.03-0.16-0.07-0.16-0.5v-1.12c0-0.19,0.02-0.23,0.05-0.27c0.08-0.13,0.25-0.13,0.34-0.15c0.01-0.02,0.02-0.04,0.02-0.06c0-0.02-0.02-0.04-0.03-0.06l-0.87,0.02c-0.03,0.06-0.1,0.18-0.14,0.27c-0.22,0.41-0.38,0.79-0.48,1.04l-0.13,0.31l-0.69-1.57c-0.01-0.03-0.02-0.04-0.04-0.06h-0.57c-0.16,0-0.32-0.01-0.41-0.01c-0.02,0.03-0.02,0.05-0.02,0.07c0,0.01,0.01,0.04,0.02,0.06c0.12,0.02,0.26,0.03,0.3,0.06c0.1,0.06,0.11,0.14,0.12,0.33l0.01,0.64l-0.01,0.55c0,0.23-0.04,0.33-0.09,0.38s-0.28,0.1-0.34,0.12c-0.01,0.02-0.02,0.04-0.02,0.05c0,0.02,0.01,0.04,0.02,0.06h0.16c0.11,0,0.25-0.01,0.33-0.01c0.25,0,0.41,0.02,0.45,0.02c0.06,0,0.1-0.01,0.12-0.01c0.01-0.02,0.01-0.04,0.01-0.06c0-0.01-0.01-0.04-0.02-0.06c-0.27,0-0.43-0.16-0.44-0.49l-0.02-1.08V28h0.02l0.78,1.7c0.02,0.06,0.07,0.15,0.12,0.29c0.02,0.05,0.04,0.07,0.07,0.07s0.07,0,0.08-0.04c0.03-0.1,0.1-0.27,0.2-0.53c0.06-0.13,0.12-0.26,0.18-0.38l0.49-1.09h0.01c0,0.07-0.01,0.32-0.01,0.32v1.35c0,0.14-0.04,0.24-0.13,0.28c-0.06,0.02-0.18,0.02-0.24,0.02c-0.02,0.02-0.02,0.03-0.02,0.06c0,0.01,0,0.04,0.01,0.06h0.26l0.93,0.01c0.01-0.02,0.02-0.03,0.02-0.06C43.51,30.03,43.51,30.01,43.49,29.99z"/>
</svg>