<svg id="White_Black" data-name="White/ Black" xmlns="http://www.w3.org/2000/svg" viewBox="0 0 499.07 148.89"><defs><style>.cls-1{fill:#000;}</style></defs><title>uconn-wordmark-stacked-white</title><path class="cls-1" d="M2,139.47V126.78H6.89v12.56c0,3.62,1.81,5.49,4.79,5.49s4.79-1.81,4.79-5.33V126.78h4.89v12.53c0,6.73-3.78,10-9.74,10S2,146,2,139.47Z" transform="translate(-2 -0.48)"/><path class="cls-1" d="M26.34,126.78h4.51l10.41,13.67V126.78h4.82V149H41.92L31.16,134.87V149H26.34Z" transform="translate(-2 -0.48)"/><path class="cls-1" d="M51.63,126.78h4.89V149H51.63Z" transform="translate(-2 -0.48)"/><path class="cls-1" d="M60.17,126.78h5.39l5.81,15.64,5.81-15.64h5.27l-9,22.37H69.15Z" transform="translate(-2 -0.48)"/><path class="cls-1" d="M85.87,126.78h16.76v4.34H90.73v4.51H101.2V140H90.73v4.66h12.06V149H85.87Z" transform="translate(-2 -0.48)"/><path class="cls-1" d="M107.14,126.78h10.15a8.86,8.86,0,0,1,6.48,2.25,7,7,0,0,1,1.9,5.08v.06a6.91,6.91,0,0,1-4.76,6.89l5.43,7.93h-5.72l-4.76-7.11H112V149h-4.88ZM117,137.57c2.37,0,3.74-1.27,3.74-3.15v-.06c0-2.09-1.46-3.17-3.84-3.17H112v6.38Z" transform="translate(-2 -0.48)"/><path class="cls-1" d="M128.56,145.76l2.88-3.47a10.16,10.16,0,0,0,6.64,2.7c2,0,3.2-.79,3.2-2.09v-.06c0-1.24-.76-1.88-4.47-2.83-4.48-1.14-7.36-2.38-7.36-6.79v-.07c0-4,3.23-6.69,7.77-6.69a12.89,12.89,0,0,1,8.25,2.82L142.93,133a10.37,10.37,0,0,0-5.77-2.2c-1.88,0-2.86.86-2.86,1.94v.06c0,1.46.95,1.94,4.79,2.92,4.51,1.18,7,2.8,7,6.67v.06c0,4.41-3.37,6.89-8.16,6.89A14.17,14.17,0,0,1,128.56,145.76Z" transform="translate(-2 -0.48)"/><path class="cls-1" d="M150.61,126.78h4.89V149h-4.89Z" transform="translate(-2 -0.48)"/><path class="cls-1" d="M166.23,131.28h-6.76v-4.5h18.4v4.5h-6.76V149h-4.88Z" transform="translate(-2 -0.48)"/><path class="cls-1" d="M187.87,140.23l-8.54-13.45H185l5.3,8.91,5.4-8.91h5.55l-8.53,13.36V149h-4.89Z" transform="translate(-2 -0.48)"/><path class="cls-1" d="M206.53,138v-.07a11.81,11.81,0,0,1,23.61-.06v.06a11.81,11.81,0,0,1-23.61.07Zm18.5,0v-.07a6.75,6.75,0,0,0-6.73-7,6.64,6.64,0,0,0-6.66,6.92v.06a6.75,6.75,0,0,0,6.72,7A6.65,6.65,0,0,0,225,138Z" transform="translate(-2 -0.48)"/><path class="cls-1" d="M234.48,126.78H251.4v4.44h-12V136H250v4.44h-10.6V149h-4.89Z" transform="translate(-2 -0.48)"/><path class="cls-1" d="M260,138v-.07a11.3,11.3,0,0,1,11.59-11.49,11.49,11.49,0,0,1,8.76,3.43l-3.12,3.59a8.17,8.17,0,0,0-5.68-2.51c-3.74,0-6.44,3.11-6.44,6.92v.06c0,3.81,2.64,7,6.44,7,2.54,0,4.1-1,5.84-2.61l3.11,3.15a11.34,11.34,0,0,1-9.1,4A11.22,11.22,0,0,1,260,138Z" transform="translate(-2 -0.48)"/><path class="cls-1" d="M282.82,138v-.07a11.81,11.81,0,0,1,23.61-.06v.06a11.81,11.81,0,0,1-23.61.07Zm18.5,0v-.07a6.75,6.75,0,0,0-6.73-7,6.65,6.65,0,0,0-6.67,6.92v.06a6.76,6.76,0,0,0,6.73,7A6.65,6.65,0,0,0,301.32,138Z" transform="translate(-2 -0.48)"/><path class="cls-1" d="M310.78,126.78h4.5l10.41,13.67V126.78h4.83V149h-4.16L315.6,134.87V149h-4.82Z" transform="translate(-2 -0.48)"/><path class="cls-1" d="M335.84,126.78h4.51l10.41,13.67V126.78h4.82V149h-4.15l-10.76-14.12V149h-4.83Z" transform="translate(-2 -0.48)"/><path class="cls-1" d="M360.92,126.78h16.75v4.34h-11.9v4.51h10.47V140H365.77v4.66h12.06V149H360.92Z" transform="translate(-2 -0.48)"/><path class="cls-1" d="M381.19,138v-.07a11.3,11.3,0,0,1,11.59-11.49,11.49,11.49,0,0,1,8.76,3.43l-3.12,3.59a8.15,8.15,0,0,0-5.67-2.51c-3.75,0-6.45,3.11-6.45,6.92v.06c0,3.81,2.64,7,6.45,7,2.53,0,4.09-1,5.84-2.61l3.1,3.15a11.34,11.34,0,0,1-9.1,4A11.22,11.22,0,0,1,381.19,138Z" transform="translate(-2 -0.48)"/><path class="cls-1" d="M410.77,131.28H404v-4.5h18.41v4.5h-6.76V149h-4.89Z" transform="translate(-2 -0.48)"/><path class="cls-1" d="M426.38,126.78h4.89V149h-4.89Z" transform="translate(-2 -0.48)"/><path class="cls-1" d="M435.84,138v-.07a11.29,11.29,0,0,1,11.58-11.49,11.46,11.46,0,0,1,8.76,3.43l-3.11,3.59a8.17,8.17,0,0,0-5.68-2.51c-3.74,0-6.44,3.11-6.44,6.92v.06c0,3.81,2.64,7,6.44,7,2.54,0,4.09-1,5.84-2.61l3.11,3.15a11.35,11.35,0,0,1-9.11,4A11.22,11.22,0,0,1,435.84,138Z" transform="translate(-2 -0.48)"/><path class="cls-1" d="M459.89,139.47V126.78h4.89v12.56c0,3.62,1.81,5.49,4.79,5.49s4.8-1.81,4.8-5.33V126.78h4.89v12.53c0,6.73-3.78,10-9.75,10S459.89,146,459.89,139.47Z" transform="translate(-2 -0.48)"/><path class="cls-1" d="M489.41,131.28h-6.76v-4.5h18.4v4.5H494.3V149h-4.89Z" transform="translate(-2 -0.48)"/><path class="cls-1" d="M68.07,82.49c-6.73,2-13.64,4.44-22,4.44s-15.29-2.47-22-4.44V3.27H2V93.5c12,7.07,27.29,11.34,44.05,11.34,16.6,0,32.05-4.27,44.05-11.34V3.27h-22Z" transform="translate(-2 -0.48)"/><path class="cls-1" d="M171.16,22.67V37.3h22V11.65c-12-7.06-27.28-11.17-44-11.17-16.6,0-31.89,4.11-43.88,11.17v82c12,6.9,27.28,11,43.88,11,16.76,0,32-4.11,44-11V63.76h-22V82.49a74.94,74.94,0,0,1-22,3.12,74,74,0,0,1-21.87-3.12V22.67a73.68,73.68,0,0,1,21.87-3.13A74.6,74.6,0,0,1,171.16,22.67Z" transform="translate(-2 -0.48)"/><path class="cls-1" d="M208.79,11.5V93.67c12,6.9,27.29,11,44.05,11,16.6,0,32-4.11,44-11V11.5c-12-6.91-27.28-11-44-11C236.24.48,220.8,4.59,208.79,11.5Zm66.08,71a79.3,79.3,0,0,1-44.05,0V22.67a70.48,70.48,0,0,1,22-3.13,75.53,75.53,0,0,1,22,3.13Z" transform="translate(-2 -0.48)"/><polygon class="cls-1" points="376.98 72.64 376.49 72.64 332.76 2.79 309.27 2.79 309.27 101.24 329.16 101.24 329.16 31.39 329.81 31.39 373.52 101.24 397.03 101.24 397.03 2.79 376.98 2.79 376.98 72.64"/><polygon class="cls-1" points="479.02 72.64 478.52 72.64 434.81 2.79 411.3 2.79 411.3 101.24 431.19 101.24 431.19 31.39 431.84 31.39 475.56 101.24 499.07 101.24 499.07 2.79 479.02 2.79 479.02 72.64"/></svg>