<svg xmlns="http://www.w3.org/2000/svg" viewBox="0 0 300 130"><defs><style>.cls-1,.cls-2{fill:#25355a;}.cls-2{fill-rule:evenodd;}</style></defs><title>signature-stack-crop</title><g id="Layer_2" data-name="Layer 2"><path id="Shield_Scroll" data-name="Shield &amp; Scroll" class="cls-1" d="M45.21,94.54l-.65-1.39-.89-1.86A3.89,3.89,0,0,0,40.56,89a37.35,37.35,0,0,0,5.09-18.65V47.58a.27.27,0,0,0-.26-.27H.34a.27.27,0,0,0-.26.27V70.34A37.35,37.35,0,0,0,5.17,89a3.94,3.94,0,0,0-3.1,2.29l-.89,1.87L.53,94.54c-.59,1.21-1.2,3.69,1.22,6.73,2,2.47,6.09,5.11,11,7.07l.24.09c.42.17.83.33,1.22.5-.41.39-1,.86-1.42,1.22l-.4.33-.28.24s0,0,0,0a.43.43,0,0,0-.09.1,2.51,2.51,0,0,0-.64,1.88v4.36c0,1.79,2.49,2.43,4.83,2.43H29.51c2.34,0,4.84-.64,4.84-2.43v-4.36a2.52,2.52,0,0,0-.65-1.88l-.08-.1s0,0,0,0l-.28-.24-.39-.32c-.45-.37-1-.83-1.43-1.24l1.23-.49.23-.09c4.95-2,9.08-4.6,11-7.07C46.41,98.23,45.8,95.75,45.21,94.54ZM.61,65.31H45.12v5c0,22.49-20.87,35.25-22.25,36.08C21.48,105.59.61,92.83.61,70.34Zm41.7,25.4a3.9,3.9,0,0,1,0,3.55,5.59,5.59,0,0,1-.36.68l-1.6-2.32a.25.25,0,0,0-.26-.11.25.25,0,0,0-.21.18,1.62,1.62,0,0,1-1,1,2.11,2.11,0,0,1-1.5.06,42.58,42.58,0,0,0,2.82-4.23l.26,0h0A2.37,2.37,0,0,1,42.31,90.71ZM28,113.11l.28.28H17.43l.28-.28a2.9,2.9,0,0,0,1.18-2.47v-3.1c0-3-2.61-4.22-5.62-5.6-1-.48-2.14-1-3.22-1.59a25.81,25.81,0,0,1-3.64-2.52l2.38-3.45A54.06,54.06,0,0,0,22.73,107a.26.26,0,0,0,.27,0A54,54,0,0,0,36.94,94.37l2.39,3.46a26.68,26.68,0,0,1-3.64,2.52c-1.08.61-2.17,1.11-3.22,1.59-3,1.38-5.62,2.57-5.62,5.6v3.1A2.9,2.9,0,0,0,28,113.11ZM6,97.48a12.52,12.52,0,0,1-1.95-2.07l1.5-2.17a2.17,2.17,0,0,0,1,.91,2.78,2.78,0,0,0,1.6.15ZM37.54,94.3a2.78,2.78,0,0,0,1.6-.15,2.17,2.17,0,0,0,1-.91l1.5,2.17a12.52,12.52,0,0,1-2,2.07ZM.61,47.84H45.12v17H.61ZM3.43,90.71A2.37,2.37,0,0,1,5.2,89.52h0l.25,0a45.88,45.88,0,0,0,2.82,4.24,2.14,2.14,0,0,1-1.49-.07,1.62,1.62,0,0,1-1-1,.25.25,0,0,0-.21-.18.25.25,0,0,0-.26.11l-1.6,2.32a5.59,5.59,0,0,1-.36-.68A3.9,3.9,0,0,1,3.43,90.71Zm9.79,17.23-.23-.09c-4.88-1.93-8.93-4.51-10.83-6.9C0,98.27.36,96.11,1,94.77l.66-1.4.88-1.85,0,0a4.84,4.84,0,0,0,.35,3c1,2.36,4.32,4.89,6.88,6.34,1.1.62,2.2,1.12,3.26,1.61,3,1.36,5.31,2.43,5.31,5.12v3.1a2.78,2.78,0,0,1-.09.76,2.05,2.05,0,0,0-.46-.92C16.81,109.36,15.15,108.71,13.22,107.94Zm-.88,3.36,0,0s0,0,0,0l.37-.34.39-.32a17.45,17.45,0,0,0,1.61-1.41,7.75,7.75,0,0,1,2.65,1.68,1.37,1.37,0,0,1,.17,1.66h0l-.24.23-.66.67h-.46c-2.17,0-3.62-.73-3.93-1.48A.66.66,0,0,1,12.34,111.3Zm21.46,1c0,.12,0,.25,0,.39v4.36c0,1.41-2.32,1.9-4.31,1.9H16.23c-2,0-4.31-.49-4.31-1.9v-4.36c0-.14,0-.27,0-.39.52.82,2,1.61,4.29,1.59H29.51C31.81,113.94,33.28,113.15,33.8,112.33Zm-1.21-1.76.39.31c.13.12.25.23.36.35l0,0,0,0a.66.66,0,0,1,0,.61c-.31.75-1.76,1.5-3.93,1.48h-.46l-.66-.67-.24-.23h0a1.37,1.37,0,0,1,.17-1.66A7.75,7.75,0,0,1,31,109.15,19.33,19.33,0,0,0,32.59,110.57Zm11-9.62c-1.9,2.39-5.95,5-10.83,6.9l-.22.09c-1.93.76-3.6,1.42-4.6,2.54a2.05,2.05,0,0,0-.46.92,2.78,2.78,0,0,1-.09-.76v-3.1c0-2.69,2.34-3.76,5.31-5.12,1.06-.49,2.16-1,3.26-1.61,2.56-1.45,5.89-4,6.88-6.34a4.77,4.77,0,0,0,.35-3l0,0,.88,1.85.66,1.4C45.39,96.11,45.71,98.27,43.58,101Z"/><path id="Text" class="cls-2" d="M8.44,101.38l.16-.29c-.37-.23-.73-.46-1.09-.72l-.16.31.27.18c-.38.79-.73,1.54-1.11,2.32L6.24,103l-.15.29c.6.42,1.21.78,1.83,1.13.18-.23.34-.45.52-.67l0,0-.27-.25a2,2,0,0,1-.46.43,2.18,2.18,0,0,1-.71-.43c0-.19.82-1.75,1.08-2.3a1.16,1.16,0,0,1,.34.19Zm-2.84.2.43-.8-.23-.2-.14.21s-.41-.29-.49-.35l.51-1c.16.13.52.38.59.54s-.1.37-.12.52.2.14.27.19c.12-.26.26-.54.37-.81-.55-.42-1.09-.86-1.62-1.3L5,98.87l.24.22c-.41.8-.73,1.45-1.15,2.25l-.24-.18-.15.27a17.92,17.92,0,0,0,1.64,1.36l.47-.69,0,0-.26-.26c-.05.08-.31.42-.37.42s-.56-.41-.65-.54a5.18,5.18,0,0,1,.48-1,2.52,2.52,0,0,1,.45.4,1.15,1.15,0,0,1-.11.29l.23.18Zm9.61,2.86c-.79-.44-1.64-.79-2.45-1.18l-.42.79.33.19.32-.44a1.54,1.54,0,0,1,.6.19l-1.08,2.37-.36-.14c-.05.09-.1.19-.14.28l1.27.56c.05-.09.09-.19.13-.28l-.36-.18,1.09-2.37a1.09,1.09,0,0,1,.49.35c-.06.16-.12.32-.17.48s.27.13.35.17c.13-.26.27-.52.4-.79Zm-2.84-1.34-1-.52-.14.27.35.2c-.37.79-.94,2.56-1.74,2-.57-.38-.36-.83,0-1.5l.56-1.16.36.17.13-.28c-.38-.2-.76-.41-1.14-.6l-.14.28.24.13a3.13,3.13,0,0,1-.35.78c-.38.8-.76,1.43-.4,2a1.62,1.62,0,0,0,.37.37,1.55,1.55,0,0,0,.7.26c.93.08,1.36-1.18,1.88-2.28l.25.12.14-.28ZM4.53,98.45l.2.18c0-.11.09-.21.13-.31l-.81-.78a2.19,2.19,0,0,1-.16.3l.29.27c-.26.3-1.25,1.38-1.33,1.46h0c0-.07.35-2.3.41-2.5.09.1.18.21.27.3a2.61,2.61,0,0,0,.17-.28A11.13,11.13,0,0,1,2.88,96c-.07.09-.14.17-.2.26l.15.26c-.08.28-.51,3.08-.54,3.38.09.13.19.25.28.37a25.61,25.61,0,0,0,2-1.82Zm28.93,6.31h0c0-.48.08-.91.14-1.39l0,0c.19.4.33.72.53,1.11l-.67.32Zm2.55-.33c0,.12.12.39.07.49a2.72,2.72,0,0,1-.9.49c-.16-.29-.27-.64-.42-.93a3.86,3.86,0,0,1,.75-.34c0,.08.09.16.14.24l.3-.15-.39-.89-.3.15c0,.09.05.18.08.28a3.52,3.52,0,0,1-.72.43c-.19-.39-.34-.75-.52-1.13a4.83,4.83,0,0,1,.87-.41,1.37,1.37,0,0,1,.31.39l.28-.17a5.41,5.41,0,0,0-.36-.73c-.6.32-1.34.7-1.94,1-.08,1.11-.19,2.23-.29,3.32l-.25.15.12.29c.34-.14.67-.31,1-.45l-.12-.29-.33.14c0-.36,0-.81,0-1.17l.83-.39c.14.29.27.68.43,1-.1.06-.21.1-.32.16.05.09.1.19.14.28.66-.3,1.44-.69,2.08-1l-.24-.78-.34.1Zm2.38-3.79.22-.17a2.44,2.44,0,0,1-.14-.28l-1,.65c0,.09.09.19.14.28l.32-.2c.1.45.23,1.79.25,2.1,0,.13,0,.25,0,.37v0c-.07,0-.32-.32-.39-.39l-.79-.91c-.12-.14-.26-.27-.37-.41l.36-.23c0-.09-.07-.19-.11-.29l-1.21.68.11.3.26-.13c.15.18.34.36.5.54l1.11,1.15.48.48.41-.23c0-.77-.1-1.55-.15-2.31,0-.32,0-.71-.08-1Zm-9,15.81c0-.43,0-.85,0-1.27a1.09,1.09,0,0,1,.51,0,.67.67,0,0,1,.26,1c-.15.21-.43.25-.78.24Zm1.45,1c-.13-.24-.33-.77-.59-.85v0a.86.86,0,0,0,.37-1.44,3.83,3.83,0,0,0-2.08-.25c0,.1,0,.2,0,.3h.31v2.53l-.3,0c0,.1,0,.2,0,.29h1.21c0-.1,0-.2,0-.3l-.35,0c0-.32,0-.65,0-1a1.31,1.31,0,0,1,.4,0c.3.13.47,1,.73,1.26a3.4,3.4,0,0,0,.79,0v-.31l-.3,0c-.1,0-.13-.18-.18-.27Zm-7.38-.13c-.06.27-.28.38-.58.44-.14,0-.36,0-.41-.08s0-.17,0-.26a6,6,0,0,1,0-.86c.55,0,1.16.16,1,.76Zm-1-2.15c.36,0,.63,0,.78.22a.54.54,0,0,1,.09.37c-.08.4-.4.53-.87.5v-1.09Zm.88,1.18h0v0c.55-.22.84-1,.2-1.31a5,5,0,0,0-2-.14v.31h.33v2.55l-.33,0v.29a4.71,4.71,0,0,0,2.08-.18.82.82,0,0,0,.32-1.15c-.17-.24-.34-.25-.62-.37Zm-4.15.1c0-.43,0-.85,0-1.27a1.08,1.08,0,0,1,.51,0,.67.67,0,0,1,.26,1c-.15.21-.43.25-.78.24Zm1.45,1c-.13-.24-.33-.77-.59-.85v0a.86.86,0,0,0,.37-1.44,3.82,3.82,0,0,0-2.08-.25c0,.1,0,.2,0,.3h.32v2.53l-.31,0a2.71,2.71,0,0,1,0,.29h1.22v-.3l-.35,0c0-.32,0-.65,0-1a1.31,1.31,0,0,1,.4,0c.3.13.48,1,.73,1.26a3.41,3.41,0,0,0,.79,0v-.31l-.3,0c-.1,0-.13-.18-.18-.27Zm-4.91-.61c.14-.44.29-.87.44-1.31h0l.42,1.3Zm.77-2a1.13,1.13,0,0,0-.45,0l-1.08,2.88a.89.89,0,0,1-.29,0v.3h1.12v-.31h-.36l.18-.56,1.08,0a1.9,1.9,0,0,1,.2.58l-.33,0v.3h1.22v-.31h-.28l-1-2.9ZM41.3,101.72c-.66.55-1.39-.3-1.57-1.12a1.35,1.35,0,0,1,.13-1.07l.19-.18a.8.8,0,0,1,.46-.16c.81,0,1.59,1.86.79,2.53Zm.27-2.62a1.21,1.21,0,0,0-1.64,0l-.32.28a1.82,1.82,0,0,0-.45,1.12,1.91,1.91,0,0,0,.05.53,2.2,2.2,0,0,0,.29.69,1.22,1.22,0,0,0,1.65.51,1.93,1.93,0,0,0,.42-3.08ZM26.36,117.78c-.83.14-1.16-.93-1-1.72a1.12,1.12,0,0,1,.56-.86l.25-.06a1,1,0,0,1,.49.09c.73.44.7,2.38-.31,2.55Zm-.17-3-.41.08a1.51,1.51,0,0,0-.87.73,1.83,1.83,0,0,0-.18.48,2.12,2.12,0,0,0,0,.71A1.41,1.41,0,0,0,26,118.1a1.7,1.7,0,0,0,1.65-2.4,1.39,1.39,0,0,0-1.49-.88Z"/><path class="cls-1" d="M.46,65l44.89,0v5c0,22.5-21.11,35.72-22.49,36.54C21.47,105.81.41,92.92.41,70.43ZM31.38,84.2c-4.11-5-10-2.49-10-2.47a10,10,0,0,0-2.67,1l-.54.26-.72.09-1.24.15a11.22,11.22,0,0,0-2.54,1.19l-.76.41c-1.24.67-1.53,1.22-1.6,1.38a.89.89,0,0,0-.49.59.57.57,0,0,0,0,.13.82.82,0,0,0,.24.57.8.8,0,0,0,.9.59l.23-.06a.59.59,0,0,1,.78.41v.09a1,1,0,0,1-.42.35c-.08,0-.15.08-.13.17.18.62,1,.39,1.42.35h.1l.36-.06a6.46,6.46,0,0,1,1.81,0,3.1,3.1,0,0,1,.88.4c-.06.1-.07.3-.18.34l-.35.08c-.55.09-1.45.11-1.75.85a1.91,1.91,0,0,0,0,1.46l.22.27c.14.06.44-.18.7-.33.6-.35.49-.51.5-.59a.34.34,0,0,1,.21-.3.67.67,0,0,0,.12.06,2.54,2.54,0,0,0,1.73.16c0,.17-.17.71-.48.87a1.63,1.63,0,0,1-.82.12.92.92,0,0,0-.6.11,4.9,4.9,0,0,0-.65.84.19.19,0,0,0,0,.18l.06.1a.19.19,0,0,0,.16.09h1.91a2.23,2.23,0,0,0,1.42-.34l.25-.21.87-.69.83-.73.4-.32a1,1,0,0,0,.19-.35,15.74,15.74,0,0,0,1.5.81,3.15,3.15,0,0,0-1.05.22,2.62,2.62,0,0,0-1.19,1s0,.15-.05.13-.05,0,0,.1a2.53,2.53,0,0,0,1.08.67,1.85,1.85,0,0,0,.77-.1l.48-.11c.17,0,2.25-.07,3.65-.06l-.77.73A32.18,32.18,0,0,0,22.94,97c-1.34,1.1-2.33,2.57-2.33,3.6,0,.13-.16.32-.13.43a.89.89,0,0,0,.83.65c2.68.29,4.23-1.37,5.52-2.76l.33-.35a15.51,15.51,0,0,0,2-2.85,5.45,5.45,0,0,1,.45-.7,9,9,0,0,0,3.15-5.72A6.44,6.44,0,0,0,31.38,84.2ZM41.73,68.43h-1l-1-.63h0a.25.25,0,0,0-.16-.06H38.34a1.36,1.36,0,0,1-.75-.36,3.28,3.28,0,0,0-2.1-.74,2.44,2.44,0,0,0-2.09.84,2.42,2.42,0,0,0-2.08-.84,3.28,3.28,0,0,0-2.1.74,1.33,1.33,0,0,1-.74.36H27.2a.23.23,0,0,0-.16.06l-1,.63h-1a.26.26,0,0,0-.26.25v8.76a.26.26,0,0,0,.26.25h6.81a2.05,2.05,0,0,0,1.06.52,2.94,2.94,0,0,0,.94,0,2,2,0,0,0,1-.51h6.81a.25.25,0,0,0,.26-.25V68.68A.25.25,0,0,0,41.73,68.43Zm-21.25,0h-1l-1-.63a.24.24,0,0,0-.17-.06H17.08a1.33,1.33,0,0,1-.74-.36,3.28,3.28,0,0,0-2.1-.74,2.44,2.44,0,0,0-2.09.84,2.4,2.4,0,0,0-2.08-.84,3.3,3.3,0,0,0-2.1.74,1.3,1.3,0,0,1-.74.36H6a.29.29,0,0,0-.18.07l-1,.62h-1a.26.26,0,0,0-.26.25v8.76a.26.26,0,0,0,.26.25h6.8a2.18,2.18,0,0,0,1.06.52,3.27,3.27,0,0,0,.94,0,2.15,2.15,0,0,0,1-.51h6.8a.25.25,0,0,0,.25-.25V68.65A.25.25,0,0,0,20.48,68.4Z"/><g id="Beaver"><path class="cls-1" d="M31.49,84.11c-4.17-5-10.13-2.53-10.19-2.51a10.32,10.32,0,0,0-2.71,1.06l-.54.26-.74.09-1.26.15a11.7,11.7,0,0,0-2.59,1.2l-.76.42c-1.26.68-1.56,1.24-1.63,1.4a.87.87,0,0,0-.49.6.59.59,0,0,0,0,.13.83.83,0,0,0,.25.58,1.15,1.15,0,0,0,1,.8l.25-.05c.32-.11.53-.14.68.27v.09a.89.89,0,0,1-.44.3.19.19,0,0,0-.11.23c.18.63,1.07.53,1.45.48h.11l.36,0a6.33,6.33,0,0,1,1.82-.16,3.41,3.41,0,0,1,.9.41.47.47,0,0,1-.26.22l-.36.08c-.56.09-1.4.24-1.7,1a1.9,1.9,0,0,0,0,1.48l.26.34c.15.06.5-.12.76-.27.6-.36.63-.58.64-.65a.38.38,0,0,1,.21-.31l.13.06c.36.16,1.07.46,1.55.2a.76.76,0,0,1-.43.58,1.68,1.68,0,0,1-.83.12.93.93,0,0,0-.61.11,6.08,6.08,0,0,0-.74,1,.21.21,0,0,0,0,.19l.06.1a.19.19,0,0,0,.16.09h2a2.4,2.4,0,0,0,1.48-.26l.26-.21.91-.75.91-.74.41-.32a.69.69,0,0,0,.18-.32,7.73,7.73,0,0,0,1.09.59,2.1,2.1,0,0,0-.87.2,2.22,2.22,0,0,0-1.17,1.15.14.14,0,0,0,0,.11.16.16,0,0,0,0,.15,2.62,2.62,0,0,0,1.1.68,1.9,1.9,0,0,0,.78-.11l.49-.11c.17,0,2,0,3.44,0l-.78.56a37.43,37.43,0,0,0-3.14,2.31,6,6,0,0,0-2.33,3.78,1.52,1.52,0,0,0,.05.38.91.91,0,0,0,.84.65c2.73.3,4.35-1.45,5.66-2.86l.33-.35a16.29,16.29,0,0,0,2-2.89,5.09,5.09,0,0,1,.45-.71,9.15,9.15,0,0,0,3.21-5.8A6.5,6.5,0,0,0,31.49,84.11ZM17.94,91.55c-.3.3-1,0-1.34-.14l-.27-.09a.68.68,0,0,0-.57.62c0,.06-.12.16-.26.25a.81.81,0,0,1-.11-.31c0-.24,0-.55-.06-.58s-.41.54-.21,1.12a1.23,1.23,0,0,1-.26.11,1.16,1.16,0,0,1-.18-.67,1.59,1.59,0,0,1,.13-.64c.22-.56.92-.68,1.42-.76l.43-.1A.82.82,0,0,0,17.1,90a1.9,1.9,0,0,1,.45.4A5.41,5.41,0,0,1,18,91.54Zm5.15,2.31-.54.12a1.73,1.73,0,0,1-.61.1l-.06,0a1.6,1.6,0,0,1,.44-.51c.39-.27.91-.42.79-.48a1.62,1.62,0,0,0-.95.08,1.54,1.54,0,0,0-.75.68,1.84,1.84,0,0,1-.29-.21,1.85,1.85,0,0,1,1-.93c.58-.23.77-.17.77-.17.22,0,1.76.31,2.1.31h0a2.12,2.12,0,0,0,.2.12,5.47,5.47,0,0,0,1.88.5,1.86,1.86,0,0,1-.16.42C26.19,93.85,23.34,93.83,23.09,93.86Zm9.45-4.62a8.9,8.9,0,0,1-3.06,5.55,3.32,3.32,0,0,0-.56.82,15.73,15.73,0,0,1-2,2.83l-.34.36c-1.32,1.41-2.81,3-5.35,2.74a.54.54,0,0,1-.53-.4c-.23-.75.61-2.48,2.16-3.77A37.29,37.29,0,0,1,26,95.08l.93-.67a2.11,2.11,0,0,0,.19-.23l0-.06a2.29,2.29,0,0,0,.29-.82.18.18,0,0,0,0-.14.21.21,0,0,0-.13-.07,5.33,5.33,0,0,1-2-.48A2.76,2.76,0,0,1,24,90.91a2.62,2.62,0,0,1,.79-2.68,2.33,2.33,0,0,0,.78-1.75.17.17,0,0,0-.2-.15.18.18,0,0,0-.16.17v0a.62.62,0,0,1,0,.13A2.44,2.44,0,0,1,24.47,88a3.56,3.56,0,0,0-1,2.18,2.67,2.67,0,0,0,.15.84,3.56,3.56,0,0,0,.72,1.26,8.42,8.42,0,0,1-2.42-1,.23.23,0,0,0-.11,0A10.2,10.2,0,0,0,21.74,89a.18.18,0,0,0-.2-.16.19.19,0,0,0-.16.21,5.43,5.43,0,0,1-.08,2.61l-.39.31-.93.75-.9.74-.27.22c-.22.2-.85.17-1.23.16h-.85c.09-.2.15-.39.08-.45s-.44.25-.62.45h-.36a4.67,4.67,0,0,1,.54-.76l.38,0a2.12,2.12,0,0,0,1-.16,1.2,1.2,0,0,0,.64-.94,5.39,5.39,0,0,0-.53-1.71A4.08,4.08,0,0,0,16,89a6,6,0,0,0-2,.15l-.3,0h-.14a1.48,1.48,0,0,1-.94-.12.88.88,0,0,0,.41-.38v-.37a.8.8,0,0,0-1.14-.49l-.13,0a.91.91,0,0,1-.61-.52l.34-.2a.18.18,0,0,0,.08-.24.19.19,0,0,0-.25-.08l-.36.2a.44.44,0,0,1,.32-.62.21.21,0,0,0,.1-.11s.21-.57,1.48-1.26l.77-.42a11.77,11.77,0,0,1,2.49-1.16l2-.25.62-.29a9.88,9.88,0,0,1,2.65-1c.1,0,5.81-2.44,9.8,2.39A6.19,6.19,0,0,1,32.54,89.24Z"/><path class="cls-1" d="M15.86,84.23a.71.71,0,0,0-.57,0c-.36.13-.47.52-.27.62s.31-.11.38-.14a.27.27,0,0,1,.23,0,.2.2,0,0,1,.13.16s0,.23.17.27S16.44,84.51,15.86,84.23Z"/><path class="cls-1" d="M12.74,86.63c-.25.52.41,1.19.63,1.08s-.3-.56-.15-.86,1.27-.8,1.25-1S13,86.14,12.74,86.63Z"/><path class="cls-1" d="M26.16,96.37c-.51,0-1-.09-1,.15s.5.31,1,.33c.37,0,1-.07,1-.28S26.51,96.38,26.16,96.37Z"/><path class="cls-1" d="M24.9,97.55c-.63,0-1.22-.09-1.26.15s.61.3,1.26.32c.44,0,1.22-.06,1.17-.27S25.31,97.56,24.9,97.55Z"/><path class="cls-1" d="M23.79,98.75c-.59,0-1.14-.08-1.18.15s.57.29,1.18.31c.41,0,1.15-.07,1.1-.27S24.18,98.76,23.79,98.75Z"/><path class="cls-1" d="M22.76,100c-.43,0-.84-.07-.87.13s.42.25.87.27.86-.06.82-.23S23.05,100,22.76,100Z"/><path class="cls-1" d="M13.07,86l.14,0a.27.27,0,0,0,.17-.33.26.26,0,0,0-.33-.17l-.14,0a.25.25,0,0,0-.17.33A.26.26,0,0,0,13.07,86Z"/><path class="cls-1" d="M21.18,83.19a.18.18,0,0,0-.21-.07l-1.45.49a.29.29,0,0,0-.11.38.31.31,0,0,0,.37.18l1.35-.76A.16.16,0,0,0,21.18,83.19Z"/><path class="cls-1" d="M21.31,84.69a.17.17,0,0,0,.09-.21.21.21,0,0,0-.21-.11l-1.12.17a.28.28,0,0,0-.17.35.32.32,0,0,0,.33.25Z"/><path class="cls-1" d="M21.25,85.73l-.89,0a.26.26,0,0,0-.2.29.28.28,0,0,0,.26.26l.89-.18a.18.18,0,0,0,.12-.2A.19.19,0,0,0,21.25,85.73Z"/><path class="cls-1" d="M21.07,87l-.66-.15a.25.25,0,0,0-.22.24c0,.11.08.26.2.26l.7,0c.06,0,.13-.09.13-.17A.19.19,0,0,0,21.07,87Z"/><path class="cls-1" d="M27.09,82.41a.27.27,0,0,0-.32.19.27.27,0,0,0,.2.32s.76.23,1.35.48a.23.23,0,0,0,.29-.09.23.23,0,0,0-.09-.29A12.64,12.64,0,0,0,27.09,82.41Z"/><path class="cls-1" d="M27.38,83.65a.23.23,0,0,0-.28.17.24.24,0,0,0,.17.29,8.34,8.34,0,0,1,1,.34.2.2,0,0,0,.26-.08.19.19,0,0,0-.08-.26A5.77,5.77,0,0,0,27.38,83.65Z"/><path class="cls-1" d="M27.44,84.8a.19.19,0,0,0-.23.14.19.19,0,0,0,.14.23s.53.16.71.24a.18.18,0,0,0,.23-.08.16.16,0,0,0-.07-.23A1.93,1.93,0,0,0,27.44,84.8Z"/><path class="cls-1" d="M27.38,85.81c-.08,0-.19,0-.21.13a.18.18,0,0,0,.13.21s.32.07.46.12A.16.16,0,0,0,28,86.2.15.15,0,0,0,27.9,86,1.69,1.69,0,0,0,27.38,85.81Z"/><path class="cls-1" d="M30.86,85.13a4.87,4.87,0,0,0-.83-.7.25.25,0,0,0-.36.09.27.27,0,0,0,.09.36,4.21,4.21,0,0,1,.8.55.21.21,0,0,0,.3,0A.22.22,0,0,0,30.86,85.13Z"/><path class="cls-1" d="M29.81,85.64a.24.24,0,1,0-.22.42,2.6,2.6,0,0,1,.56.35.19.19,0,1,0,.26-.28A2.84,2.84,0,0,0,29.81,85.64Z"/><path class="cls-1" d="M29.47,86.63a.2.2,0,0,0-.26.07.18.18,0,0,0,.07.26s.19.12.35.25a.17.17,0,0,0,.24-.25A2.6,2.6,0,0,0,29.47,86.63Z"/><path class="cls-1" d="M29.08,87.44c-.07,0-.19,0-.24,0a.16.16,0,0,0,0,.24s.06,0,.18.13a.16.16,0,0,0,.22,0,.17.17,0,0,0,0-.22C29.18,87.51,29.15,87.47,29.08,87.44Z"/><path class="cls-1" d="M31.54,87.64a.18.18,0,0,0,.24.06.16.16,0,0,0,.06-.23,1.36,1.36,0,0,0-.24-.35.21.21,0,0,0-.27,0,.2.2,0,0,0,0,.27A1.49,1.49,0,0,1,31.54,87.64Z"/><path class="cls-1" d="M31,87.84a.21.21,0,0,0-.25,0,.18.18,0,0,0,0,.24l.12.11c.08.07.14.1.22.06a.17.17,0,0,0,.05-.22A.55.55,0,0,0,31,87.84Z"/></g><g id="Right_Book" data-name="Right Book"><path class="cls-1" d="M42,68.25H41l-1-.65h0a.25.25,0,0,0-.16-.06H38.48a1.37,1.37,0,0,1-.76-.37,3.33,3.33,0,0,0-2.16-.78,2.48,2.48,0,0,0-2.14.88,2.49,2.49,0,0,0-2.14-.88,3.33,3.33,0,0,0-2.16.78,1.37,1.37,0,0,1-.76.37h-1.3a.28.28,0,0,0-.18.06l-1,.65h-1a.26.26,0,0,0-.26.26v9.08a.26.26,0,0,0,.26.26h7a2.17,2.17,0,0,0,1.09.54,3.14,3.14,0,0,0,1,0A2.09,2.09,0,0,0,35,77.85h7a.25.25,0,0,0,.26-.26V68.51A.26.26,0,0,0,42,68.25Zm-8.28-.45s.28-.88,1.87-.88a2.83,2.83,0,0,1,1.85.67,1.8,1.8,0,0,0,1.07.47h1v7.39H38.46a3.19,3.19,0,0,1-1.17-.35,4.59,4.59,0,0,0-1.89-.51,2.6,2.6,0,0,0-1.71.74Zm-6.37.26h1a1.8,1.8,0,0,0,1.07-.47,2.83,2.83,0,0,1,1.85-.67c1.59,0,1.88.91,1.89,1s0,6.78,0,7.46a2.63,2.63,0,0,0-1.72-.74,4.63,4.63,0,0,0-1.89.51,3.13,3.13,0,0,1-1.17.35H27.32Zm-1.12.61.59-.38v7.42a.27.27,0,0,0,.27.27h1.32a3.67,3.67,0,0,0,1.38-.4,4.12,4.12,0,0,1,1.68-.46,2.26,2.26,0,0,1,1.52.76.25.25,0,0,0,.2.09h.52a.25.25,0,0,0,.2-.09,2.26,2.26,0,0,1,1.52-.76,4.12,4.12,0,0,1,1.68.46,3.67,3.67,0,0,0,1.38.4h1.33a.27.27,0,0,0,.26-.27V68.29l.59.38v7.54H34.73a.27.27,0,0,0-.19.08,1.87,1.87,0,0,1-1,.48h-.25a1.9,1.9,0,0,1-1-.48.24.24,0,0,0-.19-.08H26.2Zm15.51,8.66H34.87a.25.25,0,0,0-.2.09,1.55,1.55,0,0,1-.85.45,2.83,2.83,0,0,1-.77,0,1.67,1.67,0,0,1-.88-.45.25.25,0,0,0-.2-.09H25.14V68.78h.54v7.69a.26.26,0,0,0,.26.27H32a2.38,2.38,0,0,0,1.25.56h.37a2.26,2.26,0,0,0,1.2-.55H40.9a.27.27,0,0,0,.27-.27V68.78h.54Z"/><path class="cls-1" d="M28.46,69.39a3.2,3.2,0,0,0,1.18-.3l.43-.2.82-.33a2.77,2.77,0,0,1,1.14,0,.11.11,0,0,1-.09-.14.1.1,0,0,1,.13-.09,3.06,3.06,0,0,0-1.24,0l-.86.35-.43.2a3.25,3.25,0,0,1-1.09.28.11.11,0,0,0-.11.12A.1.1,0,0,0,28.46,69.39Z"/><path class="cls-1" d="M28.46,71a3.2,3.2,0,0,0,1.18-.3l.44-.2.81-.33a2.76,2.76,0,0,1,1.14,0,.11.11,0,0,0,.13-.09.11.11,0,0,0-.09-.14,3.06,3.06,0,0,0-1.24,0l-.86.35-.43.2a3,3,0,0,1-1.09.28.11.11,0,0,0-.11.12A.1.1,0,0,0,28.46,71Z"/><path class="cls-1" d="M28.46,72.52a3.44,3.44,0,0,0,1.18-.3l.43-.21.82-.33a3,3,0,0,1,1.14,0,.13.13,0,0,0,.14-.09.12.12,0,0,0-.1-.14,3.18,3.18,0,0,0-1.24,0L30,71.8l-.43.2a2.8,2.8,0,0,1-1.09.28.11.11,0,0,0-.11.12A.12.12,0,0,0,28.46,72.52Z"/><path class="cls-1" d="M29.64,73.78l.43-.21.82-.33a3,3,0,0,1,1.14,0,.11.11,0,0,1-.09-.14.11.11,0,0,1,.13-.09,3.18,3.18,0,0,0-1.24,0l-.86.34-.43.2a2.8,2.8,0,0,1-1.09.28.11.11,0,0,0-.11.12.12.12,0,0,0,.12.12A3.44,3.44,0,0,0,29.64,73.78Z"/><path class="cls-1" d="M34.77,68.53a2.71,2.71,0,0,1,1.13,0l.82.33.43.2a3.24,3.24,0,0,0,1.18.3.12.12,0,0,0,.13-.11.12.12,0,0,0-.12-.12,3.25,3.25,0,0,1-1.09-.28l-.43-.2L36,68.33a3.07,3.07,0,0,0-1.24,0,.1.1,0,0,0-.09.13A.12.12,0,0,0,34.77,68.53Z"/><path class="cls-1" d="M34.77,70.09a2.71,2.71,0,0,1,1.13,0l.82.33.43.2a3.2,3.2,0,0,0,1.18.3.12.12,0,0,0,.13-.11.12.12,0,0,0-.12-.12,3,3,0,0,1-1.09-.28l-.43-.2L36,69.89a3.06,3.06,0,0,0-1.24,0,.11.11,0,0,0-.09.14A.12.12,0,0,0,34.77,70.09Z"/><path class="cls-1" d="M34.77,71.65a2.9,2.9,0,0,1,1.13,0l.82.33.43.21a3.44,3.44,0,0,0,1.18.3.13.13,0,0,0,.13-.12.12.12,0,0,0-.12-.12A2.8,2.8,0,0,1,37.25,72l-.43-.2L36,71.46a3.13,3.13,0,0,0-1.24,0,.11.11,0,0,0-.09.14A.12.12,0,0,0,34.77,71.65Z"/><path class="cls-1" d="M36.72,73.57l.43.21a3.44,3.44,0,0,0,1.18.3.13.13,0,0,0,.13-.12.12.12,0,0,0-.12-.12,2.8,2.8,0,0,1-1.09-.28l-.43-.2L36,73a3.13,3.13,0,0,0-1.24,0,.12.12,0,0,0-.09.14.12.12,0,0,0,.14.09,2.9,2.9,0,0,1,1.13,0Z"/></g><g id="Left_Book" data-name="Left Book"><path class="cls-1" d="M7.26,69.39a3.2,3.2,0,0,0,1.18-.3l.44-.2.81-.33a2.76,2.76,0,0,1,1.14,0,.12.12,0,0,1-.09-.14.11.11,0,0,1,.14-.09,3.13,3.13,0,0,0-1.25,0l-.86.35-.42.2a3.34,3.34,0,0,1-1.1.28.12.12,0,0,0-.11.12A.11.11,0,0,0,7.26,69.39Z"/><path class="cls-1" d="M7.26,71a3.2,3.2,0,0,0,1.18-.3l.44-.2.81-.33a2.76,2.76,0,0,1,1.14,0A.13.13,0,0,0,11,70a.12.12,0,0,0-.09-.14,3.13,3.13,0,0,0-1.25,0l-.86.35-.42.2a3.09,3.09,0,0,1-1.1.28.12.12,0,0,0-.11.12A.11.11,0,0,0,7.26,71Z"/><path class="cls-1" d="M7.26,72.52a3.44,3.44,0,0,0,1.18-.3L8.87,72l.82-.33a3,3,0,0,1,1.14,0,.13.13,0,0,0,.14-.09.12.12,0,0,0-.09-.14,3.23,3.23,0,0,0-1.25,0l-.86.34-.42.2a2.87,2.87,0,0,1-1.1.28.12.12,0,0,0-.11.12A.12.12,0,0,0,7.26,72.52Z"/><path class="cls-1" d="M7.26,74.08a3.44,3.44,0,0,0,1.18-.3l.44-.21.81-.33a3,3,0,0,1,1.14,0,.12.12,0,0,1-.09-.14.12.12,0,0,1,.14-.09,3.23,3.23,0,0,0-1.25,0l-.86.34-.42.2a2.83,2.83,0,0,1-1.1.28.12.12,0,0,0-.11.12A.12.12,0,0,0,7.26,74.08Z"/><path class="cls-1" d="M13.66,68.39a.13.13,0,0,1-.09.14,2.76,2.76,0,0,1,1.14,0l.81.33.43.2a3.28,3.28,0,0,0,1.19.3.11.11,0,0,0,.12-.11.12.12,0,0,0-.11-.12,3.34,3.34,0,0,1-1.1-.28l-.42-.2-.87-.35a3.08,3.08,0,0,0-1.24,0A.11.11,0,0,1,13.66,68.39Z"/><path class="cls-1" d="M13.57,70.09a2.76,2.76,0,0,1,1.14,0l.81.33.43.2a3.28,3.28,0,0,0,1.19.3.11.11,0,0,0,.12-.11.12.12,0,0,0-.11-.12,3,3,0,0,1-1.1-.28l-.43-.2-.86-.35a3.08,3.08,0,0,0-1.24,0,.12.12,0,0,0-.09.14A.12.12,0,0,0,13.57,70.09Z"/><path class="cls-1" d="M14.71,71.68l.81.33.43.21a3.52,3.52,0,0,0,1.19.3.12.12,0,0,0,.12-.12.12.12,0,0,0-.11-.12,2.83,2.83,0,0,1-1.1-.28l-.42-.2-.87-.34a3.19,3.19,0,0,0-1.24,0,.12.12,0,0,0,.05.23A3,3,0,0,1,14.71,71.68Z"/><path class="cls-1" d="M15.52,73.57l.43.21a3.52,3.52,0,0,0,1.19.3.12.12,0,0,0,.12-.12.12.12,0,0,0-.11-.12,2.83,2.83,0,0,1-1.1-.28l-.43-.2L14.76,73a3.19,3.19,0,0,0-1.24,0,.12.12,0,1,1,.05.23,3,3,0,0,1,1.14,0Z"/><path class="cls-1" d="M20.74,68.27h-1l-1-.65a.29.29,0,0,0-.18-.07h-1.3a1.35,1.35,0,0,1-.76-.36,3.33,3.33,0,0,0-2.16-.78,2.51,2.51,0,0,0-2.15.88A2.49,2.49,0,0,0,10,66.41a3.32,3.32,0,0,0-2.15.78,1.38,1.38,0,0,1-.76.36H5.82a.25.25,0,0,0-.18.08l-1,.64h-1a.26.26,0,0,0-.26.26v9.08a.26.26,0,0,0,.26.26h7a2.17,2.17,0,0,0,1.09.54,3.14,3.14,0,0,0,1,0,2.14,2.14,0,0,0,1.06-.53h7a.26.26,0,0,0,.26-.26V68.53A.26.26,0,0,0,20.74,68.27Zm-8.29-.45s.29-.88,1.88-.88a2.83,2.83,0,0,1,1.85.67,1.8,1.8,0,0,0,1.07.47h1v7.39H17.23a3.13,3.13,0,0,1-1.17-.35,4.63,4.63,0,0,0-1.89-.51,2.63,2.63,0,0,0-1.72.74Zm-6.36.26h1a1.8,1.8,0,0,0,1.07-.47A2.82,2.82,0,0,1,10,66.94c1.6,0,1.88.91,1.89,1s0,6.78,0,7.46a2.63,2.63,0,0,0-1.71-.74,4.59,4.59,0,0,0-1.89.51,3.19,3.19,0,0,1-1.17.35H6.09ZM5,68.69l.59-.38v7.42a.27.27,0,0,0,.26.27H7.15a3.67,3.67,0,0,0,1.38-.4,4.12,4.12,0,0,1,1.68-.46,2.26,2.26,0,0,1,1.52.76.25.25,0,0,0,.19.09h.53a.25.25,0,0,0,.2-.09,2.26,2.26,0,0,1,1.52-.76,4.12,4.12,0,0,1,1.68.46,3.62,3.62,0,0,0,1.38.4h1.32a.27.27,0,0,0,.27-.27V68.31l.59.38v7.54H13.49a.27.27,0,0,0-.19.08,1.81,1.81,0,0,1-1,.48h-.26a1.89,1.89,0,0,1-1-.48.27.27,0,0,0-.19-.08H5Zm15.5,8.66H13.64a.25.25,0,0,0-.2.09,1.69,1.69,0,0,1-.85.45,2.91,2.91,0,0,1-.78,0,1.61,1.61,0,0,1-.87-.45.25.25,0,0,0-.2-.09H3.9V68.8h.54v7.69a.26.26,0,0,0,.27.26h6.07a2.26,2.26,0,0,0,1.24.57h.38a2.18,2.18,0,0,0,1.2-.56h6.07a.26.26,0,0,0,.26-.26V68.8h.54Z"/></g><g id="Crown"><path class="cls-1" d="M22.79,59.8c-3.34,0-6.89.8-6.89,2.28,0,.69.75,1.22,1.88,1.6.11,0,.45.14.48.08a3.17,3.17,0,0,0-.41-.21c-1-.46-1.42-1-1.42-1.47,0-.83,2.72-1.76,6.36-1.76s6.37.93,6.37,1.76c0,.43-.36,1-1.36,1.47a3.61,3.61,0,0,0-.41.19c0,.07.44-.06.44-.06,1.12-.38,1.85-.92,1.85-1.6C29.68,60.6,26.13,59.8,22.79,59.8Z"/><path class="cls-1" d="M30.7,57.23a7.89,7.89,0,0,0-1,1.88v0h0a8.22,8.22,0,0,0-1.09-.51,17.21,17.21,0,0,0-5.68-.85h0a17.21,17.21,0,0,0-5.68.85,8.22,8.22,0,0,0-1.09.51h0v0a7.89,7.89,0,0,0-1-1.88c-.09-.12-.21,0-.16.1a7.12,7.12,0,0,1,.74,2.14c0,.16,0,.28.18.34a.31.31,0,0,0,.25,0,6.87,6.87,0,0,1,1.35-.68,16.59,16.59,0,0,1,5.49-.82h0a16.59,16.59,0,0,1,5.49.82,7.18,7.18,0,0,1,1.35.68.31.31,0,0,0,.25,0c.14-.06.16-.18.18-.34a7.12,7.12,0,0,1,.74-2.14C30.91,57.23,30.79,57.11,30.7,57.23Z"/><path class="cls-1" d="M23.3,59a.47.47,0,1,0-.94,0,.47.47,0,0,0,.94,0Z"/><path class="cls-1" d="M20,59.3a.47.47,0,1,0-.47.47A.47.47,0,0,0,20,59.3Z"/><path class="cls-1" d="M16.61,60.74a.46.46,0,0,0-.45-.81.46.46,0,1,0,.45.81Z"/><path class="cls-1" d="M18.16,59.68a.25.25,0,1,0-.49,0,.24.24,0,0,0,.25.24A.24.24,0,0,0,18.16,59.68Z"/><path class="cls-1" d="M21.41,59.12a.25.25,0,1,0-.24.24A.25.25,0,0,0,21.41,59.12Z"/><path class="cls-1" d="M26.61,59.3a.47.47,0,1,0-.47.47A.47.47,0,0,0,26.61,59.3Z"/><path class="cls-1" d="M29.5,59.93a.46.46,0,1,0-.45.81.46.46,0,1,0,.45-.81Z"/><path class="cls-1" d="M28,59.68a.25.25,0,1,0-.49,0,.24.24,0,0,0,.24.24A.24.24,0,0,0,28,59.68Z"/><path class="cls-1" d="M24.73,59.12a.24.24,0,1,0-.48,0,.24.24,0,0,0,.48,0Z"/><path class="cls-1" d="M22.82,53.31a.48.48,0,1,0,.48.48A.48.48,0,0,0,22.82,53.31Z"/><path class="cls-1" d="M22.82,52a.48.48,0,1,0,.48.48A.48.48,0,0,0,22.82,52Z"/><path class="cls-1" d="M22.82,50.65a.48.48,0,1,0,.48.47A.48.48,0,0,0,22.82,50.65Z"/><path class="cls-1" d="M20.52,51.72a.48.48,0,1,0-.48-.48A.48.48,0,0,0,20.52,51.72Z"/><path class="cls-1" d="M19,51.21a.49.49,0,0,0,.48-.48.48.48,0,0,0-1,0A.49.49,0,0,0,19,51.21Z"/><path class="cls-1" d="M17.35,50.85a.47.47,0,0,0,.47-.47.48.48,0,0,0-.47-.48.49.49,0,0,0-.48.48A.48.48,0,0,0,17.35,50.85Z"/><path class="cls-1" d="M15.71,51.08a.48.48,0,1,0,0-.95.48.48,0,0,0,0,.95Z"/><path class="cls-1" d="M14.29,52a.48.48,0,1,0-.47-.48A.47.47,0,0,0,14.29,52Z"/><path class="cls-1" d="M13.47,53.41a.48.48,0,1,0,0-.95.48.48,0,0,0,0,.95Z"/><path class="cls-1" d="M14,54.61a.48.48,0,1,0-.47.48A.48.48,0,0,0,14,54.61Z"/><path class="cls-1" d="M14.08,55.68a.48.48,0,1,0,.47.48A.47.47,0,0,0,14.08,55.68Z"/><path class="cls-1" d="M28.31,62.52c0-1.16-3.61-1.46-5.52-1.46s-5.51.3-5.51,1.46S20.89,64,22.79,64,28.31,63.67,28.31,62.52Zm-5.52.93c-3.29,0-5-.65-5-.93s1.69-.93,5-.93,5,.65,5,.93S26.08,63.45,22.79,63.45Z"/><path class="cls-1" d="M22.07,49.65h.5v.52a.27.27,0,0,0,.53,0v-.52h.5a.27.27,0,0,0,0-.53h-.5v-.49a.27.27,0,0,0-.53,0v.49h-.5a.27.27,0,0,0,0,.53Z"/><path class="cls-1" d="M15.85,57.43h0v0h0a1.29,1.29,0,0,0,1.58.61c.39-.13.79-.2,1-.65a.74.74,0,0,0,0-.87c-.07-.08-.26-.19-.35-.14a.2.2,0,0,0,0,.28.36.36,0,0,1-.15.52.26.26,0,0,1-.34-.06s.28-.22,0-.43-.71-.65,0-1c.54-.26,1,.47,1,.58s.11.06.09,0c-.11-.52-.55-.69-.67-1.27a1.07,1.07,0,0,1,.38-.93.24.24,0,0,1,.25,0,1,1,0,0,1,.68.7c.12.58-.22.9-.12,1.43,0,.1.09.12.1,0s.11-1,.71-.92c.76,0,.49.68.37.9s.17.35.18.37-.1.21-.28.2a.36.36,0,0,1-.34-.42.19.19,0,0,0-.15-.24c-.1,0-.24.16-.26.26a.74.74,0,0,0,.29.82,1.82,1.82,0,0,0,1.3.25c1.07-.11,1.14-.76,1.14-.76l-.72.27h-.06a.17.17,0,0,1-.16-.17v-1a.17.17,0,0,1,.16-.17l.07,0,.73.29-.21-.59s0,0,0-.07a.17.17,0,0,1,.17-.16h1.23a.17.17,0,0,1,.17.16.14.14,0,0,1,0,.07l-.2.59.73-.29.07,0a.17.17,0,0,1,.16.17v1a.17.17,0,0,1-.16.17h-.06l-.72-.27s.07.65,1.14.76a1.81,1.81,0,0,0,1.3-.25.74.74,0,0,0,.29-.82c0-.1-.16-.27-.26-.26a.19.19,0,0,0-.15.24.36.36,0,0,1-.34.42c-.18,0-.31-.14-.28-.2s.34-.08.19-.37-.4-.87.36-.9c.6,0,.7.81.71.92s.08.1.1,0c.1-.53-.24-.85-.12-1.43a1,1,0,0,1,.68-.7.24.24,0,0,1,.25,0,1.07,1.07,0,0,1,.38.93c-.12.58-.56.75-.67,1.27,0,.11,0,.15.09,0s.47-.84,1-.58c.7.32.19.82,0,1s0,.4,0,.43a.26.26,0,0,1-.34.06.36.36,0,0,1-.15-.52.2.2,0,0,0,0-.28c-.09,0-.28.06-.35.14a.74.74,0,0,0,0,.87c.23.45.63.52,1,.65a1.29,1.29,0,0,0,1.58-.61h0v0h0a7.3,7.3,0,0,0,1.67-3.74,2.69,2.69,0,0,0-2.94-2.52,6.27,6.27,0,0,0-2.1.5,5,5,0,0,1-2.15.44V50.63a.27.27,0,0,0-.53,0v3.88H21.9V50.63a.27.27,0,0,0-.53,0v1.48a5,5,0,0,1-2.15-.44,6.27,6.27,0,0,0-2.1-.5,2.69,2.69,0,0,0-2.94,2.52A7.3,7.3,0,0,0,15.85,57.43Zm10.78-5.26a5.51,5.51,0,0,1,1.92-.47,2.19,2.19,0,0,1,2.42,2,3.34,3.34,0,0,1-.26,1.17,2,2,0,0,0-.36-.79,2.51,2.51,0,0,0-2.13-.85,3.25,3.25,0,0,0-2.17-.8l-.22,0C26.1,52.36,26.37,52.26,26.63,52.17Zm-2.33.48h.49a2.12,2.12,0,0,0-.49.27Zm0,1A2.16,2.16,0,0,1,26,53a2.63,2.63,0,0,1,1.88.7.26.26,0,0,0,.22.1,2,2,0,0,1,1.79.64,1.83,1.83,0,0,1,.27,1.51v0l-.25.4a1.93,1.93,0,0,0-1.15-1.89s-.18-.09-.25,0,1.13,1.07.81,2.18a1.31,1.31,0,0,1-.83,1h-.1a.59.59,0,0,0,.22-.45.78.78,0,0,0,0-.14l0,0a1.18,1.18,0,0,0,.37-.8v-.09a1,1,0,0,0-.65-.8l-.17-.06,0-.1a2,2,0,0,0,0-.25,1.7,1.7,0,0,0-.71-1.29.53.53,0,0,0-.43-.08,1.69,1.69,0,0,0-1.23,1.15s0,.07,0,.11l-.18,0a1.08,1.08,0,0,0-.76.3c0-.13-.14-.23-.36-.19a3.22,3.22,0,0,1,.64-.65c.36-.28.77-.44.77-.5s-.16-.12-.33-.1a1.73,1.73,0,0,0-.54.14,2.93,2.93,0,0,0-.77.58v-.68S24.31,53.62,24.32,53.62ZM20.78,55a1.08,1.08,0,0,0-.76-.3l-.18,0s0-.07,0-.11a1.69,1.69,0,0,0-1.22-1.15.54.54,0,0,0-.44.08,1.73,1.73,0,0,0-.71,1.29,2,2,0,0,0,0,.25l0,.1-.17.06a1,1,0,0,0-.65.8v.09a1.18,1.18,0,0,0,.37.8s0,0,0,0a.78.78,0,0,0,0,.14.59.59,0,0,0,.22.45h-.1a1.31,1.31,0,0,1-.83-1c-.32-1.11.94-2,.81-2.18s-.25,0-.25,0a1.93,1.93,0,0,0-1.15,1.89l-.25-.4v0a1.87,1.87,0,0,1,.27-1.51,2,2,0,0,1,1.79-.64.26.26,0,0,0,.22-.1,2.63,2.63,0,0,1,1.88-.7,2.16,2.16,0,0,1,1.72.67s0,0,0,0v.68a2.93,2.93,0,0,0-.77-.58,1.73,1.73,0,0,0-.53-.14c-.18,0-.34,0-.34.1s.41.22.77.5a3.61,3.61,0,0,1,.65.65C20.92,54.8,20.78,54.9,20.78,55Zm.59-2.38v.27a2.27,2.27,0,0,0-.48-.27Zm-4.25-.95a5.74,5.74,0,0,1,1.92.47c.26.09.53.19.8.27l-.23,0a3.24,3.24,0,0,0-2.16.8,2.51,2.51,0,0,0-2.13.85,2,2,0,0,0-.36.79,3.34,3.34,0,0,1-.26-1.17A2.19,2.19,0,0,1,17.12,51.7Z"/><path class="cls-1" d="M25.15,51.72a.48.48,0,1,0-.48-.48A.48.48,0,0,0,25.15,51.72Z"/><path class="cls-1" d="M26.71,51.21a.49.49,0,0,0,.48-.48.48.48,0,0,0-1,0A.49.49,0,0,0,26.71,51.21Z"/><path class="cls-1" d="M28.32,50.85a.48.48,0,0,0,.48-.47.49.49,0,0,0-.48-.48.48.48,0,0,0-.47.48A.47.47,0,0,0,28.32,50.85Z"/><path class="cls-1" d="M30,51.08a.48.48,0,1,0-.48-.47A.48.48,0,0,0,30,51.08Z"/><path class="cls-1" d="M31.38,52a.48.48,0,1,0-.48-.48A.47.47,0,0,0,31.38,52Z"/><path class="cls-1" d="M32.2,53.41a.48.48,0,1,0-.48-.47A.48.48,0,0,0,32.2,53.41Z"/><path class="cls-1" d="M32.18,54.13a.48.48,0,1,0,.48.48A.48.48,0,0,0,32.18,54.13Z"/><path class="cls-1" d="M31.59,55.68a.48.48,0,1,0,.48.48A.47.47,0,0,0,31.59,55.68Z"/></g><path id="Tree" class="cls-1" d="M38.24,27.69a.66.66,0,0,0,.07-.26A.9.9,0,0,0,38,26.8c-.55-.57-1.43,0-1.87.26a1,1,0,0,0-.25-.41.51.51,0,0,0,0-.25c0-.34-.38-.49-.56-.57l0,0c.4,0,1,0,1.21-.55l0-.33c-.06,0,.41,0,.41,0,.59.13,1.49.33,1.81-.3a.65.65,0,0,0,.06-.26,1.09,1.09,0,0,0-.22-.56l0-.08c.26-.13.94-.48.94-1.18a1.45,1.45,0,0,0-.13-.56c-.32-.7-1-.49-1.42-.38l-.13,0v0a1.64,1.64,0,0,0,0-.23.78.78,0,0,0-.17-.5.8.8,0,0,0-.38-.24,1.08,1.08,0,0,0,.29-.7,1.12,1.12,0,0,0-.1-.45.81.81,0,0,0-.45-.46,1.87,1.87,0,0,0-1.39.22c0-.06-.06-.13-.09-.2a.94.94,0,0,0,.06-.29,1.39,1.39,0,0,0-.12-.54,1.56,1.56,0,0,0,.7-.86.77.77,0,0,0,0-.15.76.76,0,0,0-.2-.5,1.33,1.33,0,0,0-1.58-.24l0,0a.93.93,0,0,0-.66-.55c-.46-.11-.92.3-1.26.6l-.15.12-.06-.05-.51-.33c-.46-.1-1,.65-1.1.85h0a1,1,0,0,0-.27-.28l.06-.07a1.57,1.57,0,0,0,.65-1v0a1,1,0,0,0-.31-.67,1.18,1.18,0,0,0-.84-.39,1.87,1.87,0,0,0-1.22.75l0,0a1.59,1.59,0,0,0-.12-.27.92.92,0,0,0,0-.29.93.93,0,0,0-.06-.34.91.91,0,0,0-.13-.19,1.59,1.59,0,0,0,.68-1.06A.64.64,0,0,0,29,13a1.09,1.09,0,0,0-.82-.61v0a3.67,3.67,0,0,0,0-.4.91.91,0,0,0-.68-1c-.69-.17-1.14.43-1.38.75l-.07.08a1,1,0,0,0-.79-.33,1.08,1.08,0,0,0-.79-.51c-.66-.08-.91.7-1.08,1.22l-.09.26-.1,0a.92.92,0,0,0-.74,0,.71.71,0,0,0-.36.64,3,3,0,0,0,.43,1.23l.08.16a1.06,1.06,0,0,0-.69.37.69.69,0,0,0-.14.33l-.12-.13c.09-.45.29-1.85,0-2.25a.5.5,0,0,0-.38-.19c-.07,0-.11,0-.17.06,0-.52-.11-1.24-.65-1.41a.7.7,0,0,0-.77.12c-.33-.41-1-1.16-1.67-.83a.75.75,0,0,0-.43.73,3.16,3.16,0,0,0,.27,1.06l0,.05a.74.74,0,0,0-.75.57.71.71,0,0,0,0,.2v.05a1.2,1.2,0,0,0-1.52-.06.88.88,0,0,0-.4.78,2.78,2.78,0,0,0,.41,1.22.9.9,0,0,0-.61.73A.57.57,0,0,0,15,16c0,.83.91,1.1,1.41,1.24l.09,0,0,0a.81.81,0,0,1-.42.22s-.17-.12-.17-.12a1.49,1.49,0,0,0-2,0,.78.78,0,0,0-.23.55,1.68,1.68,0,0,0,.5,1l.16.2s-.09.16-.09.16l-.16.53a.52.52,0,0,0,0,.14l-.12.08,0-.25c0-.48-.07-1.14-.6-1.31a.62.62,0,0,0-.68.26v0c-.08-.52-.22-1.4-.88-1.41-.36,0-.54.34-.67.59L11,18l0-.06c-.21-.25-.59-.72-1.11-.49a1,1,0,0,0-.57,1,3.84,3.84,0,0,0,.08.67l0,.13-.06,0a1,1,0,0,0-.61.53.79.79,0,0,0-.05.24c0,.54.65,1,1.15,1.2a1.26,1.26,0,0,0-.32.28,1.21,1.21,0,0,0-1-.11.72.72,0,0,0-.45.74.41.41,0,0,0,0,.11.92.92,0,0,0-1.19.5,1.18,1.18,0,0,0-.13.54.93.93,0,0,0,.11.45,1.73,1.73,0,0,0,1.06.74.8.8,0,0,0-.18.37l.18.57c.35.41.86.21,1.23.05s.58-.2.68-.07a1,1,0,0,1-.25.38.66.66,0,0,0-.28,0,.67.67,0,0,0-.56.51c-.32-.27-.83-.71-1.38-.59a.63.63,0,0,0-.52.69,2.5,2.5,0,0,0,0,.33v0H6.83a1.43,1.43,0,0,0-1.09.05.84.84,0,0,0-.34.59.71.71,0,0,0,0,.2c0,.73.77,1,1.17,1.08a.88.88,0,0,0-.21.53.64.64,0,0,0,.24.49,1.17,1.17,0,0,0,1.58-.05l0,0a2.68,2.68,0,0,0,.05.3s0,.1,0,.17l-.13,0a1.12,1.12,0,0,0-.77.48.72.72,0,0,0-.08.32,1.05,1.05,0,0,0,.06.33c.25.71,1,.67,1.34.65h.1v.06a1,1,0,0,0,.31.72c.64.58,1.52-.14,1.9-.45h0l.21.15a1.25,1.25,0,0,0,.21.37h0l-.07.07a1.79,1.79,0,0,0-.69,1.17,1,1,0,0,0,.19.57c.32.48,1,.13,1.6-.14l.39-.17h0a.2.2,0,0,0,0,.07.67.67,0,0,0,.89.55A1.66,1.66,0,0,0,15,33.54a3,3,0,0,1,.16-.35l.31.34.36-.05c.49-.3.84-1.42,1-1.83a5.74,5.74,0,0,1,2.1,2.3,17,17,0,0,0,1,1.74c.32.52.72,1.15.8,1.33a3.88,3.88,0,0,1-1.89,3l-.42.21a18.66,18.66,0,0,0-3,1.72l-.22,0a1.88,1.88,0,0,0-1,.27,2.85,2.85,0,0,0-1.14-.3,1.76,1.76,0,0,0-1.7.9A1.79,1.79,0,0,0,13,45.51a1.66,1.66,0,0,0,1-.26,2.23,2.23,0,0,0,1,.24,2,2,0,0,0,1.08-.26,1.94,1.94,0,0,0,1,.28,1.5,1.5,0,0,0,.92-.26,1.86,1.86,0,0,0,.95.24,1.82,1.82,0,0,0,1-.25,2,2,0,0,0,1,.27,1.54,1.54,0,0,0,.93-.26,1.84,1.84,0,0,0,.94.24,2,2,0,0,0,1-.24,2,2,0,0,0,.95.26,1.54,1.54,0,0,0,.93-.26,1.84,1.84,0,0,0,.94.24,1.82,1.82,0,0,0,1-.25,2,2,0,0,0,1,.27,1.54,1.54,0,0,0,.93-.26,2.06,2.06,0,0,0,2,0,2.67,2.67,0,0,0,1.16.3,1.78,1.78,0,0,0,1.73-.93,1.92,1.92,0,0,0-.07-1.84,2,2,0,0,0-1.68-.81,1.68,1.68,0,0,0-1,.27A2.11,2.11,0,0,0,30.9,42c-.3-.61-.77-.81-2.37-1.48l-.22-.09a4.09,4.09,0,0,1-2.41-2l0-.08c-.28-.49-.87-3.52.35-5.38a4.49,4.49,0,0,1,2-1.74,3.36,3.36,0,0,0,.5,1.5l.42.22.23-.12.07.15c.21.52.5,1.22,1.07,1.3a.72.72,0,0,0,.76-.29,1.49,1.49,0,0,0,1,.58,1,1,0,0,0,.73-.41,1,1,0,0,0,1.29-.27.77.77,0,0,0,.15-.43,1,1,0,0,0-.46-.71l0,0a.72.72,0,0,0,.24-.44.82.82,0,0,0,.47-.13.63.63,0,0,0,.3-.54h0c.26,0,.79.1,1-.41a1.11,1.11,0,0,0,.09-.32.7.7,0,0,0,.39-.45h0c.34.15.82.37,1.17.2a.93.93,0,0,0,.45-.85h0a1.52,1.52,0,0,0,1.15-.1,1,1,0,0,0,.38-.68,1.21,1.21,0,0,0,0-.19C39.69,28,38.67,27.76,38.24,27.69Zm-2.44-.87a.27.27,0,0,1-.21.19A1.71,1.71,0,0,0,35.8,26.82Zm-.37-.36a1.92,1.92,0,0,0-.17.13L35,26.8l-.1.22c-.1.31-.31,1-1.5,1.18l-.07-.11a2.48,2.48,0,0,1-.42-1A3.62,3.62,0,0,1,33,25.76c1-.1,1.63,0,1.88.37,0,0,.28.18.28.18A.87.87,0,0,1,35.43,26.46Zm-5.58,0,.16.38.07.1c-.35.26-.89.11-1.25,0l-.47,0a.48.48,0,0,0-.25.42l0,.14a4.12,4.12,0,0,1-1.43-.35,2.53,2.53,0,0,1,.64-.66s0,0,0,0a7.74,7.74,0,0,1,.88-.37c.64-.21,1.49-.59,1.43-.75s-.94,0-1.6.25-1.29.47-1.64.61c.19-.61.54-1.35.82-1.39a.35.35,0,0,0,.32.22l.48-.35c.65-.61.87-.69.94-.66l.07.09.25.25c.19.08.36,0,.57-.18s.41-.27.5-.23a.27.27,0,0,1,.19.2l.21.28h.54c.21,0,.71-.15.77,0,.15.36,0,.49-.41.68-.19.1-.38.2-.38.42l.09.34,0,.22c0,.1-.12.15-.24.18a.19.19,0,0,0-.13,0,2.89,2.89,0,0,1-.55,0l-.49,0c-.08,0-.1,0-.15,0S29.82,26.42,29.85,26.5ZM26.3,29.85c-.24.27-.47.54-.66.78,0-.08,0-.14,0-.23a6.32,6.32,0,0,1,.26-1.8,7.15,7.15,0,0,1,.47-1,2.45,2.45,0,0,0,.65.26c0,.17-.08.2-.23.27l-.47.35A1.22,1.22,0,0,0,26.3,29.85Zm-1.13-4.54a7,7,0,0,1,.2-.79c.13-.46,1.06-2.06.84-2.15s-1.11,1.48-1.27,2c0,.16-.09.31-.13.46a3.21,3.21,0,0,1-.39-1.26.62.62,0,0,1,.12-.4.22.22,0,0,1,.21-.08L25,23a.23.23,0,0,0,.15-.23,1.09,1.09,0,0,0-.09-.33,2.87,2.87,0,0,1-.27-1,.73.73,0,0,1,.05-.3.54.54,0,0,1,.34-.28s.09.06.09.06c.19.13.34.13.45,0l.11-.32c0-.25.15-1,.47-1l.13.05a.34.34,0,0,0,.35,0l.14-.1c.54-.48.68-.44.7-.43s.11.37.12.52,0,.44.21.54l.37.09.19,0c.2.47-.18.86-.58,1.17-.1.08-.23.18-.19.36l.23.23.16.11c.06.24-.64.62-.88.75l-.38.32c-.06.06-.11,0-.1.13s.06,0,.14.09l.31.16.1,0C27.4,24.25,25.85,25.05,25.17,25.31Zm.91.16a6.72,6.72,0,0,0-.32,1l-.33.15-.15.08v-.05a5.1,5.1,0,0,0-.09-.82A6.55,6.55,0,0,0,26.08,25.47Zm-1.46-.24a.34.34,0,0,1,.06-.06h0l0,.12Zm.29.73h0s0,.05,0,.05Zm-.53-.82a1.27,1.27,0,0,0-.36,0h0a2.75,2.75,0,0,0-.61-1.5c-.34-.29-.76,0-1,.14-.22-.46-.67-1.1-1.17-1.22l-.08-.08a.77.77,0,0,1-.38-.72c0-.15.19-.24.35-.29s.25-.34.23-.63c-.05-.63,0-1,.33-1.11s.8.34,1.14.79l.38.37c.24.07.4-.12.51-.25s.2-.2.24-.18a.76.76,0,0,1,.34.5,1.27,1.27,0,0,0-.09.47,3.13,3.13,0,0,0,.28,1.14.66.66,0,0,0-.34.22,1.12,1.12,0,0,0-.25.75A3.71,3.71,0,0,0,24.38,25.14Zm-.68,3.24a5.75,5.75,0,0,1,.12,1.18c0,.13,0,.25,0,.35a10,10,0,0,1-.35,1.57l-.85-1.42a3.82,3.82,0,0,1-.54-1.8h0a2.15,2.15,0,0,0,1.47.13ZM24,27.22a2,2,0,0,1-.35-.36,3.67,3.67,0,0,0-.66-.63c-.6-.45-1.41-.91-1.49-.77s.65.64,1.16,1.09a3.31,3.31,0,0,1,.73,1,.36.36,0,0,1,0,.09,2.6,2.6,0,0,1,.1.25l-.06,0a1.67,1.67,0,0,1-1.19-.11l-.21-.12a3.29,3.29,0,0,0,0-.38c0-.08,0-.1,0-.15s-.08,0-.16,0l-.48.1c-.26.11-.69.3-.93.19,0,0-.12-.05-.19-.24-.14-.39,0-.52.11-.63a.44.44,0,0,0,.17-.39c0-.23-.27-.27-.54-.32-.5-.09-.79-.19-.79-.42s.21-.37.36-.47a.27.27,0,0,0,.1-.17.28.28,0,0,0,0-.2s-.44-.61,0-.91.61-.06.67,0a.27.27,0,0,0,.47-.16s0-.37.26-.43.79.61,1,1.13a.31.31,0,0,0,.18.19c.17.06.3,0,.47-.15s.32-.21.39-.19a2.66,2.66,0,0,1,.44,1.29.45.45,0,0,0,.12.27.6.6,0,0,0,.49.06l.22,0A9,9,0,0,1,24,27.22Zm-4.21,0v.2c0,.34-.52.72-.74.87a1.58,1.58,0,0,0-.32-.21,10.15,10.15,0,0,1-.32-1.34c-.19-1.2-.25-1.64-.4-1.59s-.23.43-.09,1.59a5.87,5.87,0,0,0,.13.72l-.13-.1-.39,0-.08.05a2.39,2.39,0,0,0-.58-1.26.23.23,0,0,0,0-.11.7.7,0,0,1,0-.32,3.87,3.87,0,0,0,.34-.41c0-.18-.08-.3-.22-.44s-.46-.48-.38-.73c0,0,0-.06.16-.1l.22-.12c.13-.11.12-.27.11-.48,0-.47,0-1,.42-1.14h.12a1.83,1.83,0,0,1,.58.87.21.21,0,0,0,.08.11.38.38,0,0,0,.42,0c.24-.1.43-.15.61,0A.92.92,0,0,0,19,24a1.49,1.49,0,0,0,.19.67,1.08,1.08,0,0,0-.39.74c0,.7.73.85,1.17.93a.82.82,0,0,0-.18.53A1.42,1.42,0,0,0,19.8,27.26Zm-.29,1.86h.06c.52.16,1.62.47,2,2.53a11.13,11.13,0,0,1,.2,1.9,2.68,2.68,0,0,1,0,.52,4.73,4.73,0,0,1-2-3.34s0-.21,0-.27A3.9,3.9,0,0,0,19.51,29.12ZM16.3,26a.74.74,0,0,0-.27.26,1.35,1.35,0,0,0-.92-.82c-.32-.08-.48.21-.57.41a1.56,1.56,0,0,0-1.12-.35.7.7,0,0,0-.23.11,1.66,1.66,0,0,0-1-.1,1,1,0,0,0,0-.19s-.28-.31-.28-.31c-.27-.17-.49-.34-.42-.63s.24-.31.49-.37h0a.28.28,0,0,0,.22,0l.44-.21.09-.23c.05-.17.08-.24.15-.27a1.92,1.92,0,0,0,.74.81,1,1,0,0,0,.63.83,2.8,2.8,0,0,0,2-.13,2,2,0,0,0,.41.51h0s-.18.18-.18.18a.69.69,0,0,0-.11.43S16.3,25.93,16.3,26Zm-5.23,1.42L11,27.1a.3.3,0,0,0,0-.1c-.08-.15-.13-.28,0-.42s.24-.15.42-.15l.2,0,.17-.12A1.2,1.2,0,0,1,12.83,26a.92.92,0,0,0-.09.38,1.06,1.06,0,0,0,.33.72l-1,1.63a2.18,2.18,0,0,1-.81-.73Zm3.15-4c-.2.2-.29.21-.3.21h0a1.74,1.74,0,0,1-.83-1.56v0L13,21.7l0-.08s.12,0,.12,0l.24,0,.22,0a3,3,0,0,1,1.64.06A4.58,4.58,0,0,1,14.22,23.42Zm4.39-.6h0c.06,0,0,.1.07.17ZM18,18.19a1.27,1.27,0,0,1,0-.38c.11,0,.32.13.4.21s0,.05.08.06l.3.07a1.48,1.48,0,0,1,1.34.93,6.52,6.52,0,0,0-1.22.52,6.93,6.93,0,0,0-.87.57,1.36,1.36,0,0,1-.07-1.49l.08-.19ZM18,21v0Zm7.2-3.5.17-.09a.59.59,0,0,1,.4-.15c.14,0,.17.13.21.28l0,.14a2.33,2.33,0,0,1,.23,1.4l0,0A8.59,8.59,0,0,0,24,18.53,2,2,0,0,1,25.21,17.5ZM23.73,18h0l0-.05Zm5.2,2.23a1.36,1.36,0,0,0,.62-.69.77.77,0,0,0,0-.25.83.83,0,0,0-.12-.41l.36-.19a2,2,0,0,1,.36.51,1.57,1.57,0,0,0,.26.26c.21.06.41-.06.65-.2s.69-.37.94-.17.26.34.25.42a2.19,2.19,0,0,0-.74.88,2.34,2.34,0,0,0-1.44.29,1.55,1.55,0,0,0-1.34.78,1.74,1.74,0,0,0-.21.62l-.24-.25a1.65,1.65,0,0,0,.7-1.18A1.27,1.27,0,0,0,28.93,20.21Zm3.46.84-.07.24v.15c0,.07,0,.15,0,.25a1.62,1.62,0,0,1-.6,1.29,2.34,2.34,0,0,1-1.16-.81l-.2-.43a2.65,2.65,0,0,1-.07-.59,1.88,1.88,0,0,1,1.55-.2s0,0,.08,0l.35-.07a1.27,1.27,0,0,0,.18-.06A1.11,1.11,0,0,0,32.39,21.05ZM29.79,21a.17.17,0,0,1,0-.07.17.17,0,0,0,0,.07Zm-.57.75h0a1.1,1.1,0,0,1,.38-.37Zm.15,1.64-.08-.09a1.55,1.55,0,0,1-.2-.63Zm-1.57.25a.46.46,0,0,0-.19-.27,2.2,2.2,0,0,0,.93-.8,2,2,0,0,0,.3,1,2.62,2.62,0,0,0-1.21.8l0,0,.05-.06a1,1,0,0,0,.18-.54A.88.88,0,0,0,27.8,23.61Zm4,1.94c0,.06,0,.08,0,.09h0Zm0,.12,0,0,.07,0h0l-.06.12Zm5.53-4.09,0,.43c.14.33.51.22.78.15.47-.14.68-.16.79.09.24.52,0,.77-.57,1.05l-.3.25c-.1.22,0,.42.14.59s.16.24.14.29c-.14.26-.79.12-1.22,0s-.68-.15-.86,0a.55.55,0,0,0-.2.52v.14c-.06.21-.35.22-.79.17-.21,0-.4,0-.51.11a3.6,3.6,0,0,0-1.7-.17L33,25.13a.81.81,0,0,0-.43-.18.76.76,0,0,0,0-.27s0-.09,0-.13c.7,0,2.14.08,2.5-.77a.52.52,0,0,0,0-.24.89.89,0,0,0-.16-.49c.73,0,1.86,0,1.91-.78a.34.34,0,0,0,0-.1.84.84,0,0,0-.47-.79l.19-.13.21-.14a.82.82,0,0,1,.47.14C37.36,21.31,37.35,21.42,37.34,21.58Zm-1.5-1.8c.22-.1.75-.34,1-.23a.27.27,0,0,1,.17.17c.14.36,0,.61-.38.87a.21.21,0,0,0-.11.08l-.21.14a1.4,1.4,0,0,0-.59.56c0,.11-.08.15,0,.22l.26.18c.22.07.38.15.36.46,0,.11-.22.3-1.54.29-.33,0-.48,0-.55.18s0,.27.12.4.25.36.21.47c-.23.54-1.62.47-2.08.45h-.19a.73.73,0,0,0-.35-.15,1.08,1.08,0,0,0,.1-.51,2.1,2.1,0,0,0,.46-.55h0a3,3,0,0,1,.4-.25c.78-.48,1.58-1.37,1.43-1.45a6.71,6.71,0,0,0-1.56.91,3.53,3.53,0,0,0,0-.62.47.47,0,0,1,0-.16.7.7,0,0,0-.05-.78.58.58,0,0,0-.69-.06c.14-.22.32-.45.5-.49s.3,0,.48.17l.34.19c.25.07.42-.14.62-.39s.59-.67,1-.61c.1,0,.14.1.2.28a.37.37,0,0,0,.28.32Zm-1.46-3.25-.06,0Zm-2.07.19,0,0Zm-1.54.93h.14l.22-.22c.07-.13.44-.56.58-.59a1.68,1.68,0,0,0,.21.18l.4.25.53-.3c.21-.18.59-.53.79-.48a.43.43,0,0,1,.33.29l.25.28.42-.05c.39-.13.76-.23,1,.07a.27.27,0,0,1,.07.21c0,.25-.46.53-.64.63a.23.23,0,0,0-.13.16.24.24,0,0,0,0,.2,1.33,1.33,0,0,1,.14.48c-.69-.11-1.15.46-1.43.8a1.79,1.79,0,0,0-.15.17l-.09-.06a1.19,1.19,0,0,0-.63-.29,1,1,0,0,0-.31-.59l.39-.25c.46-.27,1-.61.88-.71s-.66.12-1.15.34a2.42,2.42,0,0,0-.56.33,1.58,1.58,0,0,0-1.23.3l-.21.1a2.73,2.73,0,0,0-.34-.52A1.19,1.19,0,0,0,30.77,17.65ZM30.3,17l.05,0h0S30.34,16.93,30.3,17Zm-1.66-.81.49-.33c.21-.23.53-.58.84-.58a.65.65,0,0,1,.46.23.47.47,0,0,1,.15.3c0,.23-.29.48-.47.64l-.32.46a.5.5,0,0,0,.27.4c.13.09.2.13.18.33s-.15.3-.48.52a.24.24,0,0,0-.09.06,4.86,4.86,0,0,1-.61.31.37.37,0,0,0-.2.21A.36.36,0,0,0,29,19c.08.11.13.19.09.31s-.36.4-.51.49l-.23,0h-.08v-.14c0-.32-.06-.76-.4-.95a.64.64,0,0,0-.49,0c.1-.14.23-.3.36-.45.41-.46.87-.91.79-1s-.71.25-1.19.72a4.83,4.83,0,0,0-.49.57,2.67,2.67,0,0,0-.27-1,.27.27,0,0,1,0-.08,1.18,1.18,0,0,0-.19-.4.38.38,0,0,1,.45-.1l.16,0c.22,0,.28-.19.37-.45s.32-.88.66-1l.13,0c.06,0,.11.18.14.27S28.37,16.16,28.64,16.16Zm-2.9-4,.32.21c.23,0,.37-.14.53-.35.26-.36.51-.64.83-.56s.31.35.26.84c0,.2-.05.36.08.48l.27.1a.62.62,0,0,1,.53.37c.14.25-.41.73-.74.94a.27.27,0,0,0-.11.29.27.27,0,0,0,.24.2.13.13,0,0,1,.11,0,.41.41,0,0,1,0,.22h-.33c-.57.22-.81.92-1,1.33l0,.07a.87.87,0,0,0-.56.05,2.44,2.44,0,0,0,.25-.9.78.78,0,0,0,0-.22.66.66,0,0,0-.53-.4,2,2,0,0,0,.5-1.22,1.56,1.56,0,0,0-.27-.84.51.51,0,0,0-.62-.19,1.75,1.75,0,0,0,0-.24,1.81,1.81,0,0,0,0-.4A.82.82,0,0,1,25.74,12.19Zm-.27.74v0a.47.47,0,0,1,0,.17A1.81,1.81,0,0,1,25.47,12.93ZM22.4,15.17A.79.79,0,0,1,23,15a.32.32,0,0,0,.25-.15c.11-.18,0-.37-.17-.72s-.54-1-.27-1.16c.09,0,.18,0,.34,0h.51c.15-.09.21-.27.31-.58s.29-.88.51-.86a.55.55,0,0,1,.42.28,1.58,1.58,0,0,1,.07,1.16.33.33,0,0,0,.07.33.34.34,0,0,0,.42,0c.05,0,.21-.11.26-.1.4.6,0,1.18-.35,1.66-.12.14-.23.27-.14.44a.4.4,0,0,0,.4.17c.2,0,.31,0,.34.09a3,3,0,0,1-.54,1.3,2.59,2.59,0,0,0-.3.16,3.6,3.6,0,0,0-1,.6,16.85,16.85,0,0,0,.37-1.88c.07-.71.08-1.27-.12-1.25A4.93,4.93,0,0,0,24,15.8c-.16.7-.36,1.45-.41,1.65h-.18l-.24,0h0a2.69,2.69,0,0,0,.3-1.08,1.17,1.17,0,0,0-.56-1,.49.49,0,0,0-.59,0A.47.47,0,0,1,22.4,15.17Zm-.73.67.33.3c.19,0,.31-.09.43-.21l.2-.17c.48.32.39.79.08,1.43l-.11.39c.07.38.52.39.81.39l.3,0a2.13,2.13,0,0,0-.24.57.9.9,0,0,0-.52.3,1.15,1.15,0,0,0-.23.75,1.47,1.47,0,0,0-.71-.37c-.05-.16-.12-.41-.19-.7-.15-.64-.3-1.41-.48-1.36s-.09.74,0,1.39c0,.26.09.51.14.7a.87.87,0,0,0-.37.23,1.15,1.15,0,0,0-.22-.38A.57.57,0,0,0,20.6,19a3.14,3.14,0,0,0-.25-.45.38.38,0,0,0,.16-.23c0-.14-.05-.22-.22-.42-.42-.49-.61-.81-.55-.94s.09-.12.25-.1a.47.47,0,0,0,.43-.09c.13-.13.11-.3.08-.59,0-.46-.07-.95.2-1S21.46,15.56,21.67,15.84ZM20,16.39h0v.07A.35.35,0,0,0,20,16.39Zm-2-3.87,0,.08,0-.08Zm-.28.58c0-.12.1-.15.37-.18a.47.47,0,0,0,.41-.17c.1-.15,0-.29-.07-.59s-.39-1-.11-1.11.87.47,1.08.74l.27.26a.32.32,0,0,0,.41-.19c.05-.1.08-.15.3-.08s.32.84.27,1.35a.25.25,0,0,0,.15.27.27.27,0,0,0,.31-.06.5.5,0,0,1,.24-.18,4.94,4.94,0,0,1-.05,1.55,1,1,0,0,0-.68-.09.72.72,0,0,0-.37.25.81.81,0,0,0-.7-.06c0-.58-.13-1.59-.92-1.7a.77.77,0,0,0-.75.46A.59.59,0,0,1,17.66,13.1ZM15.53,16c0-.17.18-.25.39-.33s.26-.11.3-.26L16.1,15c-.29-.53-.54-1.1-.19-1.35s.86-.07,1.38.5c.18.2.29.32.46.31s.32-.21.43-.4.21-.4.32-.38c.42.06.46,1,.47,1.37s0,.39.19.46a.34.34,0,0,0,.34-.07.36.36,0,0,1,.47,0,2.06,2.06,0,0,0,0,.35,3.73,3.73,0,0,0,0,.5v.1a.64.64,0,0,0-.72.41.63.63,0,0,0-.05.26,1.56,1.56,0,0,0,.37.86,1.69,1.69,0,0,0-.51-.17,4,4,0,0,0-.44-1c-.2-.35-.84-1.07-1-.89s.32.77.49,1a3.46,3.46,0,0,1,.31.6.73.73,0,0,0-.68-.08c-.39.17-.34.61-.3.88-.65-.1-.76-.18-.76-.23s.07-.14.19-.24l.31-.5c0-.29-.28-.37-.62-.47C16,16.59,15.48,16.41,15.53,16Zm-1.29,1.79c.4-.44.86-.2,1.36.12l.46.21h.1c.06.44.6.59,1.15.67a2,2,0,0,0,.26,1.79h0a.56.56,0,0,0-.11.49,1.64,1.64,0,0,0,.95.95,2.44,2.44,0,0,0,1.65.09l.1,0L20.2,22l.06,0a1.27,1.27,0,0,0,.36.76,1,1,0,0,0-.26.36,1,1,0,0,0-.59-.05.91.91,0,0,0-1.19-.28,1.82,1.82,0,0,0-.77-.95h-.54a.94.94,0,0,0-.22.12,1.51,1.51,0,0,0-.94-.89H16a1,1,0,0,0,0-.46c-.08-.3-.41-.32-.7-.34-.56,0-.74-.1-.74-.43l.1-.28.14-.48-.28-.48C14.17,18.17,14,18,14.24,17.74Zm-.3,2.39v-.05S13.93,20.08,13.94,20.13Zm-4.72-.2c0-.09.21-.18.34-.24l.31-.19c.11-.13.08-.3,0-.56-.12-.57-.13-.93.17-1.06.14-.06.27.07.5.35l.39.33c.3.08.46-.22.57-.44a1.48,1.48,0,0,1,.21-.32c.21,0,.31.68.35,1s.09.57.3.63.46-.14.57-.27.15-.16.18-.15.21.54.23.83,0,.56.2.69a.56.56,0,0,0,.7-.05,1.6,1.6,0,0,0,1,.32l.23,0v0a.81.81,0,0,1-.08.34,3.29,3.29,0,0,0-2-.08l-.16,0h-.19l-.53.2s0,0,0,.05a4.6,4.6,0,0,1-.87-.81c-.43-.53-.63-1.16-.78-1.1-.32.12.09,1,.31,1.28A5.16,5.16,0,0,0,12.54,22v0a2.08,2.08,0,0,0,.09.69.88.88,0,0,0-.48.63v0l-.12,0h0a1.61,1.61,0,0,1-.15-.47,1.15,1.15,0,0,0-.28-.63c-.23-.16-.52-.05-.81.05l-.3.09c-.07-.06-.16-.11-.16-.16s0,0,0,0L10,21.79l0,0a1.23,1.23,0,0,1,.49-.29.33.33,0,0,0,.29-.2c0-.22-.12-.31-.33-.4C9.32,20.38,9.16,20.09,9.22,19.93ZM9,25c-.37.15-.54.2-.63.09l-.06-.16a.72.72,0,0,1,.28-.38.28.28,0,0,0,.1-.27.27.27,0,0,0-.22-.2c-.24,0-.91-.22-1.1-.58a.58.58,0,0,1,0-.52c.14-.3.35-.3.73-.19h.37c.18-.1.16-.3.14-.46s0-.39.09-.43a1,1,0,0,1,.9.31l.39.51.16.22c.22.18.51.07.79,0l.33-.1v0a1.62,1.62,0,0,0,.06.27,2.88,2.88,0,0,0,.15.5,1,1,0,0,0-.56.65,1.12,1.12,0,0,0,0,.24,1.2,1.2,0,0,0,.68,1l.06,0a.77.77,0,0,1,0,.15.2.2,0,0,1,0,.09l-.27.19a1.06,1.06,0,0,0-.91.42v0a2.35,2.35,0,0,0-.37-.33c.21-.26.42-.65.19-.95C9.91,24.56,9.37,24.78,9,25Zm-.73,4-.38.17c-.34.24-.61.38-.93.1-.09-.08-.12-.13.1-.41.1-.12.26-.33.1-.53l-.38-.18c-.58-.16-.9-.32-.84-.7,0-.18.1-.22.13-.24s.45,0,.67,0h.54c.24-.13.19-.41.16-.62-.07-.38,0-.39.08-.41.3-.07.7.28.94.48s.33.28.5.25.26-.25.29-.37.08-.26.19-.28.64.34,1,.85l0,0a.37.37,0,0,0,.05.11c0,.05.09.28.09.28l.16.43a3.79,3.79,0,0,0-.72-.18c-.55-.09-2.17,0-2.18.22s1.45.2,1.91.26l.32.06a.72.72,0,0,0-.24.63c0,.08,0,.15,0,.22v.14l-.06,0A1.25,1.25,0,0,0,8.47,29,.71.71,0,0,0,8.24,29Zm.59,2.88h0Zm2.58-.33a1.86,1.86,0,0,0-.13.23l-.07,0c-.07-.06-.1-.15-.18-.11l-.36.17c-.25.21-.9.75-1.21.47a.53.53,0,0,1-.13-.39l-.16-.42-.51-.1c-.47,0-.71,0-.81-.3a.4.4,0,0,1,0-.24c.06-.1.29-.17.46-.22l.44-.24,0-.59,0-.29c.18-.11.43,0,.74.25s.48.32.7.16.2-.44.18-.72a1.22,1.22,0,0,1,0-.41.8.8,0,0,1,.82,0h0a3.84,3.84,0,0,0,.61.45.93.93,0,0,0,.3.91,1.26,1.26,0,0,0,.46.28.54.54,0,0,0-.25.36.13.13,0,0,0,0,.06.39.39,0,0,0,.08.21A1.16,1.16,0,0,0,11.41,31.51ZM15.62,33l0,0c-.07-.14-.15-.32-.34-.36a.38.38,0,0,0-.33.08,1.48,1.48,0,0,0-.42.72c-.16.42-.31.83-.86.94-.22,0-.22,0-.27-.17s-.14-.5-.53-.47l-.6.22c-.23.11-.82.4-.95.32-.23-.33,0-.64.43-1.06l.23-.25a.46.46,0,0,0-.11-.53c-.14-.16-.21-.26,0-.54a.73.73,0,0,1,.83-.25.5.5,0,0,0,.47-.09.3.3,0,0,0,.07-.19.55.55,0,0,0-.2-.35l-.13-.14s.09-.05.09-.05c.43-.23,1,.11,1.27.24a.36.36,0,0,0,.33.06.25.25,0,0,0,.16-.16.44.44,0,0,0-.1-.4l-.14-.32a.41.41,0,0,1,.33-.09l.32,0a.8.8,0,0,0-.14.38.37.37,0,0,0,.05.2.83.83,0,0,0,.39.35,4.33,4.33,0,0,0-1.48.82c-.29.22-.87.72-.84.86a19.89,19.89,0,0,0,2.34-1.09,5.4,5.4,0,0,1,.87-.24.21.21,0,0,0,0,.07A4.4,4.4,0,0,1,15.62,33Zm-.1-2.53s.14-.16.14-.16l.16-.44c0-.25-.28-.25-.52-.25h-.43c-.38,0-.73-.16-.85-.51,0,.07.17-.11.17-.11s.36-.34.17-.57L14,28.22c-.48-.07-.63-.16-.63-.38,0-.05.11-.11.2-.15s.33-.18.33-.4l-.25-.39c-.33-.29-.45-.47-.28-.77a.28.28,0,0,1,.19-.15c.26-.06.67.23.83.34l.15.09c.27.11.4-.18.47-.31l.08-.16a1,1,0,0,1,.67.92.27.27,0,0,0,.23.24.25.25,0,0,0,.28-.19,1.16,1.16,0,0,1,.25-.46A2.19,2.19,0,0,1,17,28a.27.27,0,0,0,.5.14.59.59,0,0,1,.2-.23c.1.07.34.48.38,1.54v.14a1.73,1.73,0,0,1-1-.4h0l-.07,0c-.28-.18-.62-.41-1-.67,0,0-.84-.61-1-.43s.68.87.68.87c.34.26.68.5,1,.68l.07,0a2.54,2.54,0,0,1,.6.79C16.4,30.71,15.71,30.73,15.52,30.43Zm-.87,12.14,0,0,0,0Zm.4,2.39a1.59,1.59,0,0,1-.88-.24.28.28,0,0,0-.36,0A1,1,0,0,1,13,45a1.41,1.41,0,0,1-1.26-.6,1.45,1.45,0,0,1,0-1.31A1.24,1.24,0,0,1,13,42.46a1.92,1.92,0,0,1,1.38.6l1.11,1.63c.05.07.14.1.2.17A2,2,0,0,1,15.05,45Zm7.74,0a1.35,1.35,0,0,1-.8-.23.27.27,0,0,0-.37,0,.91.91,0,0,1-.7.22,1.46,1.46,0,0,1-1.15-.6l-1.12-1.64c0-.07-.11-.12-.16-.18a1.64,1.64,0,0,1,.53-.08,1.4,1.4,0,0,1,.81.23.27.27,0,0,0,.37,0s.18-.22.69-.22a1.43,1.43,0,0,1,1.15.6l1.12,1.63a1.45,1.45,0,0,0,.17.18A1.47,1.47,0,0,1,22.79,45Zm-2.37-3a1.36,1.36,0,0,0-.45.2A2,2,0,0,0,19,42H19a2.53,2.53,0,0,1,1.46-.23C20.41,41.83,20.42,41.92,20.42,42Zm1.91.58.05.08-.07-.08Zm1.46-.38a2,2,0,0,0-.94-.23l-.32,0c.15-.28.39-.6.75-.6a.46.46,0,0,1,.37.14,1,1,0,0,1,.23.62ZM30.44,45a1.35,1.35,0,0,1-.8-.23.28.28,0,0,0-.38,0s-.18.22-.69.22a1.43,1.43,0,0,1-1.15-.6L26.3,42.75l-.16-.17a1.59,1.59,0,0,1,.58-.09,1.35,1.35,0,0,1,.8.23.27.27,0,0,0,.37,0,.91.91,0,0,1,.7-.22,1.44,1.44,0,0,1,1.15.6l1.12,1.64a1.29,1.29,0,0,0,.17.16A1.61,1.61,0,0,1,30.44,45ZM25.76,32.7a7.27,7.27,0,0,0-.36,5.93l0,.08a4.58,4.58,0,0,0,2.67,2.18l.22.1a6.21,6.21,0,0,1,2,1,2,2,0,0,0-.74.23,1.91,1.91,0,0,0-.95-.28,1.79,1.79,0,0,0-.51.07,2.07,2.07,0,0,0-.14-.31,2.24,2.24,0,0,0-1.34-1A2.77,2.77,0,0,1,24.81,39a7.13,7.13,0,0,1-.37-2.09,8.11,8.11,0,0,0-.33-2.14,7.58,7.58,0,0,0-.2,2.18,8,8,0,0,0,.41,2.24,3.24,3.24,0,0,0,2.08,2c.52.22.94.4,1.13.91v.08a2.06,2.06,0,0,0-.82-.17,1.9,1.9,0,0,0-1,.26,1.86,1.86,0,0,0-1-.29,1.69,1.69,0,0,0-.33,0,1.5,1.5,0,0,0-.36-.81,1,1,0,0,0-.75-.3c-.6,0-1.1.46-1.38,1.28a.07.07,0,0,0,0,0l0,0a2,2,0,0,0-.9-.26c0-.1,0-.21,0-.34s0,0,0,0a.41.41,0,0,0,0-.11,1.58,1.58,0,0,1,.16-.59c.09-.17.2-.36.32-.56.61-1.06.65-2.06.51-2.06a11.78,11.78,0,0,0-1,1.8c-.12.2-.23.4-.33.58a2.32,2.32,0,0,0-.19.58,2.33,2.33,0,0,0-2.42.94,0,0,0,0,1,0,0h0a1.9,1.9,0,0,0-.95-.27,1.54,1.54,0,0,0-.93.26l-.08,0a23.88,23.88,0,0,1,2.59-1.43l.42-.21A4.4,4.4,0,0,0,21.25,37c0-.14,0-.2-.89-1.62-.4-.64-.9-1.44-1-1.65a5.71,5.71,0,0,0-2.58-2.67c.25-.06.52-.13.81-.23a.47.47,0,0,0,.31-.33s0-.06,0-.1a1,1,0,0,0-.14-.42.71.71,0,0,0,.5,0,.61.61,0,0,0,.29-.62,7.47,7.47,0,0,0-.08-.8h0c.15,0,.72.45.68,2.06-.07,2.35,2.38,4,2.54,4.05a.37.37,0,0,0,.29-.08,1.57,1.57,0,0,0,.25-1.06,12.83,12.83,0,0,0-.21-2c-.42-2.38-1.83-2.79-2.35-2.94l-.14,0a2.23,2.23,0,0,0,.63-.75.71.71,0,0,0,.09.07,1.62,1.62,0,0,0,1.24-.15v0a4.45,4.45,0,0,0,.62,2.53l.75,1.25.39.65a.26.26,0,0,0,.29.11c.42-.12.75-2.38.75-2.41s0-.23,0-.37a5.57,5.57,0,0,0-.35-1.9h0a.3.3,0,0,0,.13.09.26.26,0,0,0,.32-.18c.13-.44.21-.79.27-1.07,0,.08,0,.16,0,.22l.1.55c.16.19.34.1.82-.13l.58-.27a6.16,6.16,0,0,0-.83,1.56,6.29,6.29,0,0,0-.29,2A4.89,4.89,0,0,1,25,31.5a.29.29,0,0,0,0,.09.24.24,0,0,0,.14.23.26.26,0,0,0,.34-.08A17.45,17.45,0,0,1,27,29.89a3.42,3.42,0,0,0-.26.68v0a.27.27,0,0,0,.11.22.28.28,0,0,0,.28,0,2.05,2.05,0,0,1,1-.15h0v0A5,5,0,0,0,25.76,32.7Zm1.67-2.48c.13-.28.3-.64.45-.94a1.36,1.36,0,0,1,.56-.41c.09,0,.78-.45.68-.63s-.8.11-.91.16a7.31,7.31,0,0,0-.77.43,3.67,3.67,0,0,0-.75.62.64.64,0,0,1,0-.64l.29-.2a.75.75,0,0,0,.51-.63,1.83,1.83,0,0,0,.79,0,.6.6,0,0,0,.29-.5l.07,0a1.8,1.8,0,0,0,1.75-.19.45.45,0,0,0,.17-.34s-.06-.11-.08-.16a3.64,3.64,0,0,0,.48,0A.33.33,0,0,1,31,27v0c0,.11-.12.2-.28.32l-.3.32a.31.31,0,0,0,0,.13.48.48,0,0,0,.17.33.36.36,0,0,1,.12.26v.05c0,.3-.35.4-.93.47l-.54.17a.3.3,0,0,0-.09.22.62.62,0,0,0,.18.36l.11.15-.08.08a2.52,2.52,0,0,1-.74.21l-.37.1A3.4,3.4,0,0,0,27.43,30.22Zm6.46,3.39c-.13.21-.33.19-.67.08L33,33.63a.48.48,0,0,0-.36.22.43.43,0,0,1-.35.21c-.2,0-.47-.27-.63-.44l-.35-.25c-.23,0-.33.17-.37.24s-.1.2-.33.17-.52-.67-.65-1-.2-.48-.36-.54a.42.42,0,0,0-.44.15,3.71,3.71,0,0,1-.43-1.55,6,6,0,0,1,1.34.66c.29.21.83.66,1,.53s-.34-.72-.67-1a7.51,7.51,0,0,0-1-.64,2.79,2.79,0,0,1,1.76-.22l0,.11,0,.27c0,.26.29.29.84.35a3.42,3.42,0,0,1,.88.17h0a.6.6,0,0,1-.08.19.75.75,0,0,0-.09.31.36.36,0,0,0,0,.14c.08.17.27.23.57.31a2,2,0,0,1,.54.21l-.09.09a.54.54,0,0,0-.2.38.25.25,0,0,0,0,.08l.27.34c.18.14.25.22.25.29A.22.22,0,0,1,33.89,33.61ZM33,31.49s.06,0,.06,0h0ZM35.57,31c0,.11-.15.13-.46.09l-.47.07-.15.38c0,.12,0,.14-.06.17a.8.8,0,0,1-.49,0l-.2,0a3.45,3.45,0,0,0-.42-.14l-.17-.06a.9.9,0,0,0,.12-.4.57.57,0,0,0-.11-.33c-.18-.23-.58-.29-1.23-.36l-.35-.05a1,1,0,0,0,0-.17.5.5,0,0,0-.19-.41,2.11,2.11,0,0,0-1.49-.08c0-.09-.11-.22-.15-.32h.06a2.12,2.12,0,0,0,1.08-.35,2.84,2.84,0,0,0,2.29.2l.1-.06a.69.69,0,0,0,.33.28l.6,0c.18,0,.56-.12.64-.05s.2.23.12.39l-.07.46c0,.15.18.21.33.27C35.6,30.66,35.69,30.75,35.57,31Zm.77-.65.13.05S36.4,30.4,36.34,30.38Zm1.83-.66h0v0Zm1-.76a.46.46,0,0,1-.15.32,1.17,1.17,0,0,1-.74,0l-.45,0c-.14.09-.16.26-.18.44s-.05.39-.15.43-.55-.12-.73-.2-.43-.2-.58,0l-.11.25a1.15,1.15,0,0,1-.07.19,1.39,1.39,0,0,0-.52-.35v0a.87.87,0,0,0,.1-.38.83.83,0,0,0-.36-.64,1.36,1.36,0,0,0-1.09-.06l-.33,0a.75.75,0,0,1-.17-.28,3.44,3.44,0,0,0,.38-.11l.34,0c.48,0,2.31.28,2.31,0s-1.08-.4-1.82-.47a2,2,0,0,0,.6-.95l0-.08s.06,0,.08-.05.12.12.16.29.08.28.22.34.27,0,.5-.15,1-.62,1.23-.36a.39.39,0,0,1,.08.49c-.1.24-.06.4.11.49l.26.06C38.92,28.33,39.22,28.54,39.15,29Z"/><path id="University_of_Toronto_Mark_Stacked" data-name="University of Toronto Mark Stacked" class="cls-1" d="M284.42,74.21A15.35,15.35,0,0,1,300,89.72c0,8.66-7.53,15.81-16,15.81-8.81,0-15.13-7.15-15.13-15.81a16,16,0,0,1,15.58-15.51M286,103.57c5.65,0,9.18-5.57,9.18-10.91,0-8.51-4.89-16.49-12.19-16.49-5.8,0-9.34,5.12-9.34,11.07C273.65,95.06,278.17,103.57,286,103.57ZM254.69,74.89h-6.44c-2.78,0-4.89,0-6.62-.07-1.58-.08-2-.46-2.19-.76h-.82c-.16.38-2.19,5.8-2.26,6.1l1,.6c1-2.63,2.1-3.91,7.45-3.91a40,40,0,0,1,4.29.23c.3,3.83.37,7.6.37,11.44,0,2.4-.07,11.42-.37,13.38-.15.9-.6,1.33-3.09,1.78-1.05.16-1.73.23-2.33.3l.23,1.22c.8-.07,1.77-.12,3-.2s2.68-.12,4.86-.12c.83,0,2.19-.06,3.47,0s2.41.08,4,.15l.15-1.26a14.15,14.15,0,0,1-1.44-.16,5.49,5.49,0,0,1-2.7-.9c-1-1.13-1-9.25-1-11.43,0-1.88.3-11.36.3-13.55,0-.9.3-.9,3-.9h.09c1.21,0,1.55,0,2,0,5.34,0,5.49,1.28,6.46,3.91l1-.6c-.07-.3-1.12-5.72-1.27-6.1H265c-.23.3-.6.68-2.18.76-2.06.09-4.5.07-6.95.07Zm-49.58-.07c-1.21.07-2.12.07-3.62.07-.76,0-1.51,0-2.26-.07s-.87-.07-1.59-.15V76c4.36.82,4.75,1.5,4.6,10.23v5.35c0,2-.14,8-.37,9.78-.23,2-1.05,2.11-2.18,2.33-.6.15-1.28.31-1.73.38v1.13c1.13,0,2.25-.08,3.38-.15s2.64-.15,3.77-.15,2.33.07,3.39.15a12.38,12.38,0,0,1,2.11.15v-1.28c-5.95-1.05-5.95-1.88-5.87-6.92V84.23l.07-2.41s0,0,22.15,23.48h1.55c-.15-2.49-.15-8.88-.15-11.67,0-4,0-14.28.14-15.56.25-2,2.86-2.13,4.3-2.13V74.82c-3.24,0-5,.07-6.44-.08a29.35,29.35,0,0,0-3.16-.22,14.78,14.78,0,0,0-1.89,0l-.22,1.12c5,.31,4.93.75,4.93,12.12,0,1.35,0,8,0,9.27Zm-27.26-.61a15.34,15.34,0,0,1,15.58,15.51c0,8.66-7.53,15.81-16,15.81-8.81,0-15.13-7.15-15.13-15.81A16,16,0,0,1,177.85,74.21Zm1.58,29.36c5.65,0,9.19-5.57,9.19-10.91,0-8.51-4.9-16.49-12.2-16.49-5.79,0-9.33,5.12-9.33,11.07C167.09,95.06,171.6,103.57,179.43,103.57Zm-49.37-28.9c1,.07,1.88.15,2.86.15s1.88.07,2.78.07c.68,0,2.41-.15,4.14-.3s3-.15,4.06-.15c6.4,0,10.47,3.46,10.47,8.13,0,4.21-3.84,6.77-6.85,7.53,6.25,9,7.37,10.38,9.78,12.64a7.9,7.9,0,0,0,4.52,2.18l-.08,1.13a13.38,13.38,0,0,1-9.1-3.08c-4.59-3.62-9.11-10.77-9.94-12.27-1.28,0-1.81,0-4-.15v4.36c0,2-.07,6.33.53,7.53.37.68,2.63,1.35,4.14,1.81l.07,1.13a45.74,45.74,0,0,0-6.62-.53c-1.05,0-5.72.3-6.7.37l-.22-.9c.45-.07,3.16-.68,3.83-1.95s.46-7.46.46-9.49V85.66c0-9.34-.46-9.49-4.22-9.71Zm8.73,14.15A23.29,23.29,0,0,0,142,89c1.13,0,7.46,0,7.46-6,0-2.79-2-6.85-7.38-6.85-3.16,0-3.16.37-3.24,5.49ZM109.13,74.21a15.34,15.34,0,0,1,15.58,15.51c0,8.66-7.52,15.81-16,15.81-8.8,0-15.13-7.15-15.13-15.81A16,16,0,0,1,109.13,74.21Zm1.58,29.36c5.65,0,9.19-5.57,9.19-10.91,0-8.51-4.9-16.49-12.2-16.49-5.79,0-9.33,5.12-9.33,11.07C98.37,95.06,102.89,103.57,110.71,103.57Zm-32-28.68H72.25c-2.78,0-4.89,0-6.62-.07-1.58-.08-2-.46-2.18-.76h-.83c-.15.38-2.19,5.8-2.26,6.1l1,.6c1-2.63,2.11-3.91,7.45-3.91a40,40,0,0,1,4.29.23c.3,3.83.38,7.6.38,11.44,0,2.4-.08,11.42-.38,13.38-.15.9-.6,1.33-3.09,1.78-1,.16-1.73.23-2.33.3l.23,1.22c.8-.07,1.77-.12,3-.2s2.67-.12,4.85-.12c.83,0,2.19-.06,3.47,0s2.41.08,4,.15l.15-1.26a13.75,13.75,0,0,1-1.43-.16,5.49,5.49,0,0,1-2.71-.9c-1-1.13-1-9.25-1-11.43,0-1.88.3-11.36.3-13.55,0-.9.3-.9,3-.9h.09c1.22,0,1.55,0,2,0,5.35,0,5.5,1.28,6.48,3.91l1-.6c-.08-.3-1.13-5.72-1.28-6.1H89c-.23.3-.6.68-2.18.76-2.06.09-4.5.07-7,.07ZM273.16,48.33a33.3,33.3,0,0,1-4.57.2l-2.28,0L264,48.43l-.78,0-.61.06v.58h.1c.6,0,1.15.09,1.4.45.35.52.38,1.07.38,5.81,0,2.23-.2,4.75-.26,5.13s-.85.7-1.4.8h-.08l-.05.71h.13c1.33-.1,2.78-.13,3.15-.13l1.17,0,2.18.1v-.78l-.16,0c-1.54-.14-2.06-.41-2.23-.61a4.65,4.65,0,0,1-.22-1.85c0-.25,0-.5,0-.75,0,0,.06-2,.07-2.47l1.1-.06a10.89,10.89,0,0,1,3.12.45c.21.07.39.5.47,1.1l0,.1h.67V57a35.84,35.84,0,0,0,.06-3.81v-.11h-.71v.09c-.16,1-.23,1.4-2.85,1.4a11.62,11.62,0,0,1-1.79-.12h-.06c0-.23,0-.49,0-.77s0-.62,0-1c0,0,0-2.79.05-3.22.76-.09,1.41-.12,1.61-.12a6.14,6.14,0,0,1,3.26.67,2.28,2.28,0,0,1,.7,1.32l0,.09.75,0v-.12c0-.21,0-1,.07-1.6l.07-1.42Zm-20.42-.09a6.92,6.92,0,0,1,7.08,6.91,7.26,7.26,0,0,1-7.28,7,6.89,6.89,0,0,1-6.88-7A7.17,7.17,0,0,1,252.74,48.24Zm.71,12.87c2.47,0,4-2.43,4-4.68,0-3.49-2-7.11-5.34-7.11-2.66,0-4.06,2.38-4.06,4.74C248,57.52,250.06,61.11,253.45,61.11Zm-25.86-12.6v.67h.16c.67,0,1.59.07,1.59.61,0,.16-.28,1-2.82,4.63C225.42,53.12,223,50,223,49.6c0-.15,0-.32,1.54-.35h.11v-.79l-1.28,0-2.46,0-2.68,0v.72h.11a2.29,2.29,0,0,1,1.38.31,41.24,41.24,0,0,1,3.8,4.42l1.27,1.64c.07.95.13,2,.13,3.32,0,2,0,2.43-1.87,2.49H223l0,.67H223c.27,0,1.14,0,2-.11l1.44-.09,1.08.06h.22l1.47.07v-.68h-.11c-1.84-.16-1.85-.4-1.88-.76,0,0,0-.14,0-.14,0-.83-.06-1.75-.06-2.75,0-.76,0-1.56,0-2.41,0-.05,2.65-4,2.65-4,.84-1.29,1.3-2,3.1-2H233v-.78h-.1c-.24,0-1,0-1.6.06l-.87,0-1-.05-.73,0-1,0h-.12Zm-11.91-.37h-.42l0,0c-.07.09-.19.25-.89.29l-2.7,0h-3.78l-3,0c-.7,0-.82-.2-.89-.29l0,0h-.51l0,.07c-.05.13-1,2.54-1,2.68l0,.08.63.38,0-.12c.42-1.12.88-1.65,3.23-1.65.75,0,1.38.05,1.81.09.14,1.82.16,3.58.16,4.91s0,5-.16,5.85c-.05.3-.14.49-1.29.69l-.84.11-.32,0,.14.75,1.12-.08.31,0,2.16-.05h1.55l.91,0,1,0,0-.1.08-.67-.61-.06-.14,0a2.33,2.33,0,0,1-1.15-.37c-.15-.16-.4-1-.4-4.93l.06-2.77.07-3.16c0-.27,0-.29,1.24-.29h.93c2.18,0,2.35.46,2.72,1.46l.12.31.62-.37-.15-.72c-.22-1.06-.4-1.94-.45-2l0-.07Zm-22.48.41v.67h.11c1.75.06,2,.42,2.18.79a38.49,38.49,0,0,1,.3,5.83v.24c0,1.15,0,3.87-.36,4.49-.11.21-.57.57-2.3.7H193V62l2.13-.07h2l3.26.11,0-.13,0-.63h-.1c-1.42,0-1.88,0-2.05-.58a26.48,26.48,0,0,1-.13-3.8c0-5.24,0-6.63.32-7.14s1.61-.51,2-.47h.12v-.79h-1.59l-2.25.06-1.48,0-.64,0-1.18,0h-.11Zm-11.92,3.59c0,2.3,2,3.1,3.38,3.68l.12,0c2.45,1,3.57,1.45,3.57,3.14A2.14,2.14,0,0,1,186,61.07a4.92,4.92,0,0,1-3.13-1.13,3.45,3.45,0,0,1-1-1.91v-.09H181l.05.14a10.06,10.06,0,0,1,.57,3.83V62l.66,0,0-.07c0-.08.15-.33.3-.33a5.84,5.84,0,0,1,.83.17l.09,0,.2,0a4.69,4.69,0,0,0,1.64.25c3.29,0,5.06-2,5.06-3.88,0-2.64-2.6-3.67-4.32-4.35s-2.88-1.21-2.88-2.54a2.24,2.24,0,0,1,2.51-2.2,3.68,3.68,0,0,1,2.54,1,2.91,2.91,0,0,1,.81,1.68l0,.08.1,0h.59l-.18-1.76a7.22,7.22,0,0,1,.2-1.59l0-.12-.6-.09-.43.29a9.57,9.57,0,0,0-2.7-.42C183.25,48.3,181.28,49.88,181.28,52.14Zm-9.48-3.81c2.82,0,4.79,1.52,4.79,3.68a3.77,3.77,0,0,1-3,3.36c2.71,3.83,3.21,4.42,4.28,5.41a3.47,3.47,0,0,0,1.94.92h.12l-.05.71h-.11A6.09,6.09,0,0,1,175.64,61a22.14,22.14,0,0,1-4.44-5.35l-1.61-.06V58a9.46,9.46,0,0,0,.22,2.63,5,5,0,0,0,1.78.74l.08,0,.05.72-.14,0a21.48,21.48,0,0,0-2.94-.23c-.47,0-2.53.13-3,.17h-.09l-.16-.6.12,0c.28,0,1.37-.32,1.64-.8a20.82,20.82,0,0,0,.19-3.8V53.36c0-4-.16-4-1.78-4.14h-.11l.05-.78h.2l1.19.06,1.24,0c.3,0,1.08-.06,1.84-.13h0Zm-2.18,6.32a12.37,12.37,0,0,0,1.34.05c1.2,0,3.22-.32,3.22-2.52A2.94,2.94,0,0,0,171,49.29c-1.3,0-1.3,0-1.34,2.29C169.65,51.58,169.63,54.46,169.62,54.65Zm-8-6.25c-1.65.1-4.25.13-6,.13-1.05,0-3.68-.06-4.64-.1h-.12v.67l.1,0c1.14.2,1.21.22,1.29.48s.26,1.54.26,5.61a45.33,45.33,0,0,1-.3,5.43c-.09.45-.66.6-1.55.7h-.11l.09.75h.11a51.76,51.76,0,0,1,5.31-.2l5.38.07,0-.08a7.12,7.12,0,0,0,1-3.29l0-.11-.64,0,0,.08c-.46,1.23-1.37,2.5-4.64,2.5a5.34,5.34,0,0,1-2.29-.4,18.13,18.13,0,0,1-.16-2.59s0-2,0-2.48a16.51,16.51,0,0,1,2-.12c2.63,0,2.83.21,3.19,1.83l0,.09h.64v-.12a39.46,39.46,0,0,1,.06-4v-.12H160l0,.09c-.26,1-.47,1.18-.85,1.24a24,24,0,0,1-4.25.13c0-.17-.07-1.77-.07-1.77A23,23,0,0,1,155,49.6a19.45,19.45,0,0,1,2.59-.25c1.49,0,2.37.19,2.75.61a1.82,1.82,0,0,1,.3,1.42v.1l.76.1v-.13c0-.14.09-.68.16-1.07l.08-.5a8.29,8.29,0,0,0,.1-1.37v-.12Zm-29.15.15,0,.59h.09c1.81.23,1.89.24,3.35,3.24l3,6.17,0,.06a29.42,29.42,0,0,1,1.54,3.62l0,.08h.67l0-.07a28.32,28.32,0,0,1,1.85-4.38l3.26-6.4c.75-1.51,1.08-1.89,2.55-2.19h.09v-.74h-.12c-.83,0-1.65,0-2.48,0l-2.56-.07v.1l0,.7H144c.67,0,1.57.09,1.57.81a4.84,4.84,0,0,1-.48,1.5l-.05.11c-.67,1.5-1.09,2.33-1.54,3.2L142,57.94s-.22.49-.35.76a64.94,64.94,0,0,1-4.15-9.07c0-.16,0-.18,1.14-.31l.34,0v-.74h-3.17c-.78,0-2.35,0-3.16-.1h-.13Zm-9.08,0v.67h.1c1.76.06,2,.42,2.19.79a38.49,38.49,0,0,1,.3,5.83v.24c0,1.15,0,3.87-.36,4.49-.11.21-.57.57-2.3.7h-.1V62l2.13-.07h2l3.25.11v-.13l0-.63h-.1c-1.42,0-1.88,0-2.05-.58a26.48,26.48,0,0,1-.13-3.8c0-5.24,0-6.63.32-7.14s1.61-.51,2-.47h.12v-.79h-1.59l-2.26.06-1.48,0-.63,0-1.18,0h-.11Zm-7.74-.23h-.08v.09l-.12.62h.12c2.6.15,2.19.21,2.27,5.58,0,0,0,3.25,0,3.62l-9.33-9.75,0,0-1.5,0-1,0H106l-.91-.06v.77l.08,0c1.87.35,2.18.55,2.12,4.37l0,2.35c0,.87-.1,3.52-.2,4.27s-.38.83-.87.93l-.87.18V62l3.14-.14,1.51.07,1,.07v-.77l-.1,0c-2.56-.45-2.56-.73-2.53-2.92l.07-5.58s0-.48,0-.79c.5.52,9.75,10.1,9.7,10.13l0,0,.87,0v-.12C119,60.84,119,58,119,56.81c0-1.81.08-6.05.17-6.58.12-.9.9-1.12,1.64-1.12h.11v-.72h-.11c-1.45,0-2.18.09-2.81,0l-.43-.05-1-.06Zm-24.46.13-.78,0c-.91,0-2.76,0-3,.06l-.1,0,0,.74h.11c.88,0,1.18,0,1.38.14s.46,1.72.46,3.77l-.17,4.39c0,3,1.94,4.63,5.6,4.63,5.8,0,6.11-3.1,6.2-9.55l0-1.94v-.09c0-.94,0-1.33,1.61-1.42h.09l0-.75-.3,0-2.34.05-1.81,0-.8,0v.79h.11a2.63,2.63,0,0,1,1.64.33c.42.42.54,2.23.54,3.12v1.19c0,4.47-.3,7.18-4.47,7.18-3.79,0-3.79-3-3.79-4.47V54.09c0-4.67.17-4.68,2.25-4.87h.1v-.77h-.1C93.24,48.41,92.08,48.44,91.23,48.45Z"/></g></svg>