<?xml version="1.0" standalone="no"?>
<!DOCTYPE svg PUBLIC "-//W3C//DTD SVG 20010904//EN"
 "http://www.w3.org/TR/2001/REC-SVG-20010904/DTD/svg10.dtd">
<svg version="1.0" xmlns="http://www.w3.org/2000/svg"
 width="440.000000pt" height="440.000000pt" viewBox="0 0 440.000000 440.000000"
 preserveAspectRatio="xMidYMid meet">
<metadata>
Created by potrace 1.14, written by Peter Selinger 2001-2017
</metadata>
<g transform="translate(0.000000,440.000000) scale(0.100000,-0.100000)"
fill="#000000" stroke="none">
<path d="M2040 4390 c-1054 -81 -1889 -881 -2020 -1936 -11 -87 -15 -384 -6
-434 2 -14 7 -52 11 -85 21 -188 96 -451 185 -646 74 -162 95 -201 172 -316
256 -384 635 -680 1074 -839 214 -77 529 -134 744 -134 303 0 660 82 942 218
686 328 1135 954 1238 1723 30 229 24 414 -25 675 -123 659 -565 1242 -1174
1549 -335 168 -768 254 -1141 225z m425 -862 c354 -69 661 -274 861 -575 131
-196 198 -390 225 -646 22 -219 -29 -486 -135 -702 -303 -616 -1001 -905
-1657 -685 -334 112 -615 360 -775 685 -93 189 -136 377 -136 595 0 285 71
522 226 753 304 457 849 682 1391 575z"/>
<path d="M2090 3330 c-331 -30 -646 -220 -834 -503 -201 -303 -247 -687 -121
-1021 104 -276 314 -505 580 -632 496 -237 1088 -81 1410 371 122 172 185 338
204 548 60 626 -403 1180 -1033 1237 -55 5 -105 9 -111 8 -5 0 -48 -4 -95 -8z
m309 -100 c437 -89 760 -420 835 -855 62 -357 -71 -729 -345 -965 -282 -243
-659 -321 -1009 -208 -135 43 -259 113 -369 208 -273 235 -407 609 -345 965
101 582 662 972 1233 855z"/>
<path d="M2146 3000 c-122 -37 -176 -179 -110 -288 75 -122 253 -122 328 0 91
150 -50 338 -218 288z"/>
<path d="M1515 2615 c-32 -31 -32 -75 -2 -111 20 -23 44 -31 175 -59 84 -18
190 -38 235 -45 l82 -11 -3 -122 c-5 -272 -34 -452 -102 -650 -42 -122 -43
-152 -4 -188 29 -27 95 -30 123 -4 40 35 111 230 137 375 16 87 17 90 44 90
27 0 28 -3 44 -90 26 -145 97 -340 137 -375 28 -26 94 -23 123 4 39 36 38 66
-4 188 -68 198 -97 378 -102 650 l-3 122 82 11 c45 7 151 27 235 45 131 28
155 36 175 59 30 36 30 80 -2 111 -32 33 -59 32 -228 -5 -360 -79 -571 -78
-936 4 -144 33 -175 33 -206 1z"/>
</g>
</svg>
