<?xml version="1.0" encoding="utf-8"?>
<svg viewBox="165.322 7.227 214.482 259.596" fill="#6d6d6d" width="214.482" height="259.596" xmlns="http://www.w3.org/2000/svg">
  <g>
    <path d="M254.264,243.332c-4.896,1.836-7.956,4.896-12.24,7.955c-4.284,3.674-8.567,6.121-13.464,8.568    c-2.448,1.225-0.612,5.508,1.836,4.896c4.896-1.225,8.568-3.672,12.852-6.119c4.896-3.061,9.793-6.121,14.076-10.404    C259.159,246.392,257.323,242.107,254.264,243.332z"/>
    <path d="M279.968,198.044c-0.612-2.449-4.284-2.449-4.896,0c-1.836,6.73-3.672,12.852-7.956,18.359    c-1.224,1.836,0.612,3.672,2.448,2.447C275.684,213.343,281.191,207.224,279.968,198.044z"/>
    <path d="M279.355,146.636c-1.836-2.448-5.508-0.612-4.896,1.836c2.447,7.956,3.06,16.524,3.672,24.48c0,2.448,4.284,2.448,4.284,0    C283.64,164.384,284.863,154.592,279.355,146.636z"/>
    <path d="M260.384,95.84c-1.836-2.448-4.896,0.612-3.672,3.06c3.672,8.568,9.18,16.524,13.464,25.092    c0.612,1.836,3.672,0.612,3.06-1.224C270.788,112.976,267.115,103.184,260.384,95.84z"/>
    <path d="M231.619,80.54c-5.508-5.508-15.911-13.464-24.479-10.404c-2.448,0.612-2.448,4.284,0,4.896    c3.672,1.224,7.344,0.612,11.016,1.836S225.5,80.54,228.56,83.6C230.396,84.824,232.844,82.375,231.619,80.54z"/>
    <path d="M188.78,77.479c-5.508,0-10.404,1.224-14.076,5.508c-3.06,3.672-7.956,11.628-4.896,16.524    c1.224,2.448,4.284,1.836,6.12,0c1.224-1.836,1.224-3.06,1.224-4.896s0.612-4.284,1.836-6.12c1.836-3.672,5.508-7.956,9.792-8.568    C190.615,79.928,190.615,77.479,188.78,77.479z"/>
    <path d="M201.02,140.516c-3.06-4.284-7.956-7.344-11.017-11.016c-3.671-4.284-6.119-9.18-8.567-14.076    c-1.224-2.448-4.896-0.612-4.284,1.836c2.448,9.792,9.792,24.48,20.196,27.54C199.796,145.412,202.243,142.352,201.02,140.516z"/>
    <path d="M250.592,168.056c-4.896-2.448-9.792-3.06-15.3-4.896c-7.345-1.836-13.465-5.508-18.973-10.404    c-2.447-2.448-6.12,1.224-3.672,3.672c8.568,9.18,23.868,17.136,36.72,17.136C251.815,173.563,253.04,169.28,250.592,168.056z"/>
    <path d="M300.775,127.052c-3.06,3.06-3.672,7.344-4.896,11.016c-1.836,4.896-4.284,10.404-7.345,14.688    c-2.447,2.448,1.225,6.12,3.673,3.672c3.672-3.672,6.731-7.956,9.18-12.24s5.508-9.792,4.896-14.688    C305.672,127.052,302.611,125.216,300.775,127.052z"/>
    <path d="M316.688,82.988c-7.956,6.732-10.404,20.808-9.792,30.6c0,3.06,4.284,3.06,4.896,0c0.611-4.284,1.836-9.18,3.06-13.464    c1.836-4.896,5.508-9.18,6.732-14.076C321.584,82.988,318.523,81.151,316.688,82.988z"/>
    <path d="M341.168,50.552c-3.672-0.612-6.732,2.448-9.181,4.284c-3.06,2.448-4.896,6.12-6.12,9.18    c-1.224,3.06,3.061,5.508,4.284,2.448c1.836-2.448,3.061-4.896,5.508-7.344c2.448-1.836,6.12-2.448,7.345-5.508    C343.615,53,343.004,51.164,341.168,50.552z"/>
    <path d="M375.439,36.476c-1.224-6.12-3.06-12.852-5.508-18.972c-0.612-1.836-2.448-3.672-4.284-3.672    c-12.24,0.612-23.256,4.284-33.66,11.016c-3.672,2.448-0.611,7.956,3.672,6.12c8.568-4.896,17.137-7.344,26.316-7.344    c1.224,4.284,2.448,8.568,3.672,12.852c1.225,4.896,0.612,9.792,3.672,13.464c1.836,2.448,4.896,1.224,6.12-0.612    C378.5,45.656,376.663,40.147,375.439,36.476z"/>
  </g>
</svg>